<svg width="135" height="135" viewBox="0 0 135 135" fill="none" xmlns="http://www.w3.org/2000/svg">
<circle cx="67.5" cy="67.5" r="67.5" fill="#1E78B4"/>
<g clip-path="url(#clip0_74_1229)">
<path opacity="0.4" d="M88.8962 57.4733C88.8962 57.4733 88.8962 57.4396 88.8962 57.4203C88.8865 57.3238 88.8624 57.2321 88.8383 57.1453C88.8335 57.1212 88.8238 57.1019 88.8142 57.0826C88.7901 57.0054 88.7563 56.9282 88.7177 56.8558C88.7081 56.8414 88.7032 56.8269 88.6936 56.8076C88.6502 56.7256 88.5971 56.6484 88.5392 56.576C88.5247 56.5567 88.5054 56.5374 88.491 56.5181C88.4379 56.4554 88.3752 56.3927 88.3125 56.3396C88.3028 56.33 88.2932 56.3203 88.2835 56.3107C88.2256 56.2625 88.1629 56.219 88.0954 56.1804C88.0761 56.1708 88.0568 56.1612 88.0327 56.1467C88.023 56.1419 88.0134 56.1322 88.0037 56.1274L68.6827 46.0013C68.1906 45.7456 67.6021 45.7456 67.1148 46.0013L47.871 56.1274C47.871 56.1274 47.8517 56.1419 47.8421 56.1467C47.8228 56.1563 47.8035 56.166 47.7842 56.1756C47.7166 56.2142 47.6539 56.2625 47.596 56.3107C47.5815 56.3203 47.5719 56.33 47.5622 56.3445C47.4995 56.3975 47.4416 56.4603 47.3838 56.523C47.3645 56.5423 47.35 56.5616 47.3355 56.5809C47.2776 56.6532 47.2246 56.7304 47.1811 56.8124C47.1715 56.8269 47.1667 56.8462 47.157 56.8607C47.1184 56.933 47.0895 57.0054 47.0654 57.0826C47.0557 57.1019 47.0509 57.126 47.0461 57.1453C47.0219 57.237 46.9978 57.3286 46.9882 57.4203C46.9882 57.4396 46.9882 57.4589 46.9882 57.4733C46.9882 57.5216 46.9785 57.5698 46.9785 57.6181V76.8619C46.9785 77.489 47.3259 78.0631 47.8806 78.3574L67.1245 88.4835C67.3174 88.5848 67.5249 88.633 67.7323 88.6571C67.7613 88.6571 67.7902 88.6668 67.8192 88.6668C67.8481 88.6668 67.8819 88.6764 67.9108 88.6764C67.9253 88.6764 67.9349 88.6764 67.9494 88.6764C67.9639 88.6764 67.9784 88.6764 67.9928 88.6764C68.0314 88.6764 68.0652 88.6668 68.1038 88.6619C68.1231 88.6619 68.1424 88.6619 68.1617 88.6571C68.3691 88.6378 68.5814 88.5848 68.7792 88.4835L88.023 78.3574C88.5778 78.0631 88.9251 77.489 88.9251 76.8619V57.6181C88.9251 57.5698 88.9203 57.5216 88.9155 57.4733H88.8962ZM67.8963 49.4024L83.5847 57.6229L67.9349 65.8578L52.2803 57.6181L67.9012 49.4024H67.8963ZM66.2079 84.1947L50.341 75.8488V60.4209L66.2079 68.7668V84.1947ZM85.5289 75.8488L69.5848 84.2381V68.8103L85.5289 60.4209V75.8488Z" fill="white"/>
<path d="M107.855 47.6222C107.855 47.6222 107.855 47.5884 107.855 47.5691C107.846 47.4726 107.822 47.381 107.798 47.2941C107.793 47.27 107.783 47.2507 107.773 47.2314C107.749 47.1542 107.716 47.0771 107.677 47.0047C107.667 46.9902 107.662 46.9757 107.653 46.9564C107.609 46.8744 107.556 46.7972 107.498 46.7249C107.484 46.7056 107.465 46.6863 107.45 46.667C107.397 46.6043 107.334 46.5416 107.272 46.4885C107.262 46.4788 107.252 46.4692 107.243 46.4595C107.185 46.4113 107.122 46.3679 107.055 46.3293C107.035 46.3196 107.016 46.31 106.992 46.3004C106.982 46.2955 106.973 46.2859 106.963 46.2811L68.6393 26.193C68.1472 25.9373 67.5587 25.9373 67.0714 26.193L28.9022 46.2762C28.9022 46.2762 28.8829 46.2907 28.8732 46.2955C28.8539 46.3052 28.8346 46.3148 28.8154 46.3245C28.7478 46.3631 28.6851 46.4113 28.6272 46.4595C28.6176 46.4692 28.6079 46.4788 28.5934 46.4885C28.5307 46.5416 28.468 46.6043 28.4149 46.667C28.4005 46.6863 28.3812 46.7056 28.3667 46.7249C28.3088 46.7972 28.2557 46.8744 28.2123 46.9564C28.2027 46.9709 28.1979 46.9854 28.1882 46.9999C28.1496 47.0722 28.1207 47.1494 28.0917 47.2266C28.0869 47.2459 28.0772 47.2652 28.0724 47.2893C28.0435 47.381 28.0242 47.4726 28.0145 47.5691C28.0145 47.5884 28.0145 47.6029 28.0145 47.6222C28.0145 47.6704 28.0049 47.7187 28.0049 47.7669V85.9362C28.0049 86.5633 28.3522 87.1374 28.907 87.4317L67.0714 107.51C67.3175 107.64 67.5876 107.703 67.8578 107.703C67.8819 107.703 67.906 107.703 67.935 107.698C67.9639 107.698 67.988 107.703 68.017 107.703C68.2823 107.703 68.5525 107.64 68.8033 107.51L106.968 87.4317C107.523 87.1374 107.87 86.5633 107.87 85.9362V47.7669C107.87 47.7187 107.865 47.6704 107.86 47.6222H107.855ZM67.8578 29.5941L102.549 47.7717L67.935 65.9832L33.3164 47.7669L67.8578 29.5941ZM66.1693 103.217L31.377 84.9134V50.565L66.1645 68.8681V103.217H66.1693ZM104.493 84.9134L69.5463 103.299V68.9501L104.493 50.565V84.9134Z" fill="url(#paint0_linear_74_1229)"/>
<path opacity="0.7" d="M42.6556 50.589C42.0477 50.589 41.464 50.2609 41.1601 49.6869C40.7259 48.8619 41.0443 47.8392 41.8692 47.405L61.113 37.279C61.938 36.8448 62.9607 37.1632 63.3949 37.9881C63.8291 38.8131 63.5107 39.8358 62.6857 40.27L43.4419 50.396C43.1911 50.5263 42.9209 50.589 42.6556 50.589V50.589Z" fill="white"/>
<path opacity="0.7" d="M45.044 88.2855C44.7786 88.2855 44.5085 88.2228 44.2576 88.0925L34.6912 83.0609C34.1364 82.7666 33.7891 82.1925 33.7891 81.5654V61.8584C33.7891 60.9273 34.5465 60.1699 35.4775 60.1699C36.4086 60.1699 37.166 60.9273 37.166 61.8584V80.5474L45.8303 85.1063C46.6553 85.5405 46.9737 86.5632 46.5395 87.3882C46.2356 87.9623 45.6518 88.2903 45.044 88.2903V88.2855Z" fill="white"/>
<path opacity="0.7" d="M55.1848 93.6212C54.9195 93.6212 54.6494 93.5584 54.3985 93.4282L50.6983 91.4792C49.8734 91.045 49.555 90.0223 49.9892 89.1973C50.4233 88.3724 51.4461 88.054 52.271 88.4882L55.9712 90.4372C56.7961 90.8714 57.1145 91.8941 56.6804 92.719C56.3764 93.2931 55.7927 93.6212 55.1848 93.6212Z" fill="white"/>
</g>
<defs>
<linearGradient id="paint0_linear_74_1229" x1="67.935" y1="71.3091" x2="67.935" y2="15.9367" gradientUnits="userSpaceOnUse">
<stop stop-color="white"/>
<stop offset="1" stop-color="white" stop-opacity="0"/>
</linearGradient>
<clipPath id="clip0_74_1229">
<rect width="79.865" height="81.7031" fill="white" transform="translate(28 26)"/>
</clipPath>
</defs>
</svg>
