<svg xmlns="http://www.w3.org/2000/svg" xml:space="preserve" id="Layer_1" x="0" y="0" style="enable-background:new 0 0 288 288" version="1.1" viewBox="0 0 288 288"><style>.st2{fill:#fff}</style><switch><g><linearGradient id="SVGID_1_" x1="144" x2="144" y1="32.264" y2="280.221" gradientUnits="userSpaceOnUse"><stop offset="0" style="stop-color:#5f38f1"/><stop offset=".787" style="stop-color:#00386b;stop-opacity:0"/></linearGradient><path d="M212.8 223.9c.4.3.9.4 1.4.4.5 0 1.1-.2 1.5-.5l22.1-17.8c1.1.9 2.4 1.5 3.8 1.9.9.2 1.8.4 2.7.4 4.7 0 9-3.1 10.2-7.8.7-2.7.4-5.6-1.1-8-1.4-2.5-3.7-4.2-6.4-4.9-2.7-.7-5.6-.4-8 1.1-2.4 1.4-4.2 3.7-4.9 6.4-.7 2.7-.4 5.6 1.1 8l.6.9-.6-.9c-.2-.3-.3-.5-.4-.8L214 218.8l-21.3-14.2-1.6-11.2 23.8-19.6c.3.3.7.5 1.1.7 1.6.9 3.4 1.4 5.3 1.4.9 0 1.8-.1 2.8-.4 2.7-.7 5-2.5 6.4-4.9 1.4-2.4 1.8-5.3 1.1-8s-2.5-5-4.9-6.4c-2.4-1.4-5.3-1.8-8-1.1s-5 2.5-6.4 4.9c-1.4 2.4-1.8 5.3-1.1 8 .2.7.4 1.3.7 1.9l-21.5 17.7-4.4-29.7c-.3-2.5 7.6-11.8 12.3-17.4 7.4-8.7 11.9-14.3 12.1-17.9.3-4.4-3.4-9.6-7-14.7-2.3-3.3-5-7.1-5.2-9v-.1c5.7-8.3 8.7-17.7 8.7-27.4 0-29.7-28.2-53.9-62.9-53.9S81.1 41.7 81.1 71.4c0 9.7 3 19.1 8.7 27.4v.1c-.1 1.9-2.8 5.7-5.2 9-3.6 5.1-7.3 10.3-7 14.7.2 3.6 4.8 9.2 12.1 17.9 4.7 5.6 12.6 14.9 12.3 17.5l-4.4 29.6-21.5-17.7c.3-.6.5-1.2.7-1.9.7-2.7.4-5.6-1.1-8-1.4-2.4-3.7-4.2-6.4-4.9-2.7-.7-5.6-.4-8 1.1-2.4 1.4-4.2 3.7-4.9 6.4-.7 2.7-.4 5.6 1.1 8 1.4 2.4 3.7 4.2 6.4 4.9.9.2 1.8.4 2.7.4 2.3 0 4.6-.8 6.4-2.2l23.8 19.6-1.6 11.2L74 218.8l-20.8-16.7c1.1-2.3 1.3-4.8.6-7.2-.7-2.7-2.5-5-4.9-6.4-2.4-1.4-5.3-1.8-8-1.1s-5 2.5-6.4 4.9c-1.4 2.4-1.8 5.3-1.1 8s2.5 5 4.9 6.4c1.6.9 3.4 1.4 5.3 1.4.9 0 1.8-.1 2.8-.4 1.4-.4 2.7-1 3.8-1.9l22.1 17.8c.4.4 1 .5 1.5.5m140-51 .1.1c0-.1 0-.1-.1-.1zm-1.4-1.7-.1-.1s.1 0 .1.1zm.7.9c0-.1-.1-.1-.1-.2.1.1.1.2.1.2zm-139.1.9.2-.2c-.1.1-.1.2-.2.2zm1.7-2s-.1.1 0 0c-.1.1 0 0 0 0zm-.8 1s0 .1 0 0c0 .1 0 0 0 0zm-22.6 31.7.6-.9-.6.9zm184 .7z" style="fill:url(#SVGID_1_)"/><g style="opacity:.9"><path d="M253.5 192.4c-1.4-2.5-3.7-4.2-6.4-4.9-2.7-.7-5.6-.4-8 1.1-2.4 1.4-4.2 3.7-4.9 6.4-.7 2.7-.4 5.6 1.1 8 1.4 2.4 3.7 4.2 6.4 4.9.9.2 1.8.4 2.7.4 4.7 0 9-3.1 10.2-7.8.7-2.8.3-5.6-1.1-8.1zM226.5 156.3c-2.4-1.4-5.3-1.8-8-1.1s-5 2.5-6.4 4.9c-1.4 2.4-1.8 5.3-1.1 8s2.5 5 4.9 6.4c1.6.9 3.4 1.4 5.3 1.4.9 0 1.8-.1 2.8-.4 2.7-.7 5-2.5 6.4-4.9s1.8-5.3 1.1-8c-.8-2.6-2.5-4.9-5-6.3zM225 246.6c-2.7-.7-5.6-.4-8 1.1-2.4 1.4-4.2 3.7-4.9 6.4-.7 2.7-.4 5.6 1.1 8 1.4 2.4 3.7 4.2 6.4 4.9.9.2 1.8.4 2.7.4 4.7 0 9-3.1 10.2-7.8 1.5-5.7-1.9-11.5-7.5-13zm2.7 11.7c-.4 1.5-1.3 2.7-2.7 3.5-1.3.8-2.9 1-4.3.6-1.5-.4-2.7-1.3-3.5-2.7-.8-1.3-1-2.9-.6-4.3.4-1.5 1.3-2.7 2.7-3.5.9-.5 1.9-.8 2.8-.8.5 0 1 .1 1.5.2 3.2.8 5 3.9 4.1 7zM65.8 267.4c-4.7 0-9-3.1-10.2-7.8-.7-2.7-.4-5.6 1.1-8 1.4-2.4 3.7-4.2 6.4-4.9 2.7-.7 5.6-.4 8 1.1 2.4 1.4 4.2 3.7 4.9 6.4.7 2.7.4 5.6-1.1 8-1.4 2.4-3.7 4.2-6.4 4.9-.9.2-1.8.3-2.7.3zm0-16.3c-.5 0-1 .1-1.5.2-1.5.4-2.7 1.3-3.5 2.7-.8 1.3-1 2.9-.6 4.3.4 1.5 1.3 2.7 2.7 3.5 1.3.8 2.8 1 4.3.6 3-.8 4.8-3.9 4-7-.4-1.5-1.3-2.7-2.7-3.5-.8-.5-1.7-.8-2.7-.8zM93.4 76.2c-1.4 0-2.4-1.1-2.4-2.4C91 48.6 114.9 28 144.3 28c1.4 0 2.4 1.1 2.4 2.4s-1.1 2.4-2.4 2.4c-26.7 0-48.4 18.3-48.4 40.9-.1 1.4-1.2 2.5-2.5 2.5zM43.7 208.3c-1.8 0-3.6-.5-5.3-1.4-2.4-1.4-4.2-3.7-4.9-6.4-.7-2.7-.4-5.6 1.1-8 1.4-2.5 3.7-4.2 6.4-4.9 2.7-.7 5.6-.4 8 1.1 2.4 1.4 4.2 3.7 4.9 6.4.7 2.7.4 5.6-1.1 8-1.4 2.4-3.7 4.2-6.4 4.9-.9.2-1.8.3-2.7.3zm0-16.3c-.5 0-1 .1-1.5.2-1.5.4-2.7 1.3-3.5 2.7-.8 1.3-1 2.9-.6 4.3.4 1.5 1.3 2.7 2.7 3.5 1.3.8 2.8 1 4.3.6 3-.8 4.8-3.9 4-7-.4-1.5-1.3-2.7-2.7-3.5-.7-.5-1.7-.8-2.7-.8zM178.6 137c-2.5 0-5-.5-7.3-1.6-3.7-1.7-6.3-4.6-7.1-8-.6-2.5-1.3-6.2.8-9.6 1.9-3.2 5.7-5.5 11.6-7 14.5-3.6 17 1.4 18.9 8.4.9 3.4 0 7.2-2.3 10.5s-5.9 5.6-9.9 6.7c-1.6.4-3.1.6-4.7.6zm6.2-22.6c-1.7 0-4 .4-7 1.1-4.5 1.1-7.4 2.7-8.6 4.7-.8 1.4-.9 3.2-.2 5.9.5 2 2.2 3.8 4.5 4.9 2.6 1.2 5.6 1.5 8.6.7 2.9-.8 5.5-2.5 7.2-4.8 1.5-2.1 2.1-4.5 1.6-6.4-1.1-3.7-1.7-6.1-6.1-6.1zM109.4 137c-1.5 0-3.1-.2-4.6-.6-4-1.1-7.6-3.4-9.9-6.7-2.4-3.3-3.2-7.1-2.3-10.5 1.8-7 4.4-12 18.9-8.4 5.9 1.5 9.7 3.8 11.6 7 2 3.4 1.4 7.1.8 9.6-.9 3.4-3.5 6.3-7.1 8-2.4 1.1-4.9 1.6-7.4 1.6zm-6.2-22.6c-4.4 0-5 2.3-5.9 6-.5 2 0 4.3 1.6 6.4 1.7 2.3 4.3 4.1 7.2 4.8 2.9.8 6 .5 8.6-.7 2.3-1.1 4-2.9 4.5-4.9.7-2.6.6-4.4-.2-5.9-1.2-2-4.1-3.6-8.6-4.7-3.3-.6-5.5-1-7.2-1zM186.9 249.3c-5.7-1.3-11.4 2.2-12.7 7.9-1.3 5.7 2.2 11.4 7.9 12.7.8.2 1.6.3 2.4.3 4.8 0 9.2-3.3 10.3-8.2 1.3-5.6-2.2-11.3-7.9-12.7z" class="st2"/><path d="M176.6 220.6v-29.3c0-.7-.3-1.5-.9-1.9l-20.4-16.2c-.7-.6-1.7-.7-2.6-.3-.8.4-1.4 1.3-1.4 2.2v60.3c0 .7.3 1.5.9 1.9l22.7 18c.7-1.5 1.8-2.8 3-3.8l-21.8-17.2v-54l15.6 12.3V222c0 .8.4 1.5 1 2l39.8 28.8c.7-1.5 1.6-2.9 2.9-3.9l-38.8-28.3zM108.6 250.5c-2.4-1.4-5.3-1.8-8-1.1-5.6 1.5-9 7.3-7.5 13 1.3 4.7 5.6 7.8 10.2 7.8.9 0 1.8-.1 2.7-.4 2.7-.7 5-2.5 6.4-4.9 1.4-2.4 1.8-5.3 1.1-8s-2.4-5-4.9-6.4zM69.5 155.3c-2.7-.7-5.6-.4-8 1.1-2.4 1.4-4.2 3.7-4.9 6.4-.7 2.7-.4 5.6 1.1 8 1.4 2.4 3.7 4.2 6.4 4.9.9.2 1.8.4 2.7.4 4.7 0 9-3.1 10.2-7.8.7-2.7.4-5.6-1.1-8-1.4-2.5-3.7-4.3-6.4-5z" class="st2"/><path d="M135.1 172.8c-.8-.4-1.8-.3-2.6.3l-20.4 16.2c-.6.5-.9 1.2-.9 1.9v29.3l-39 27.8c1.3 1 2.4 2.3 3.1 3.8l39.7-28.4c.6-.5 1-1.2 1-2v-29.4l15.6-12.3v54l-21.8 17.2c1.3 1 2.4 2.3 3.1 3.8l22.7-17.9c.6-.5.9-1.2.9-1.9V175c0-.9-.5-1.7-1.4-2.2z" class="st2"/><path d="M235.2 203c-.2-.3-.3-.5-.4-.8L214 218.8l-21.3-14.2-1.6-11.2 23.8-19.6c-1.3-1-2.4-2.3-3.1-3.8l-21.5 17.7-4.4-29.7c-.3-2.5 7.6-11.8 12.3-17.4 7.4-8.7 11.9-14.3 12.1-17.9.3-4.4-3.4-9.6-7-14.7-2.3-3.3-5-7.1-5.2-9v-.1c5.7-8.3 8.7-17.7 8.7-27.4 0-29.7-28.2-53.9-62.9-53.9S81 41.8 81 71.5c0 9.7 3 19.1 8.7 27.4v.1c-.1 1.9-2.8 5.7-5.2 9-3.6 5.1-7.3 10.3-7 14.7.2 3.6 4.8 9.2 12.1 17.9 4.7 5.6 12.6 14.9 12.3 17.5l-4.4 29.6L76 170c-.7 1.5-1.8 2.8-3.1 3.8l23.8 19.6-1.6 11.2L74 218.8l-20.8-16.7c-.1.3-.3.6-.4.8-.7 1.2-1.6 2.2-2.6 3l22.1 17.8c.4.4 1 .5 1.5.5s.9-.1 1.4-.4L98.9 208c.6-.4 1-1 1.1-1.7l7-47.4c.8-4.3-4.6-11-13.4-21.4-4.6-5.4-10.8-12.9-11-15.1-.2-2.7 3.3-7.6 6.1-11.6 2.2-3.2 4.2-6 5.3-8.6.2 0 .4.1.6.1h.4s2.4-.4 5.9-.1c1.3.1 2.5-.9 2.6-2.3.1-1.3-.9-2.5-2.3-2.6-3.1-.2-5.5 0-6.5.1-.1-.2-.2-.3-.3-.5-5.5-7.5-8.4-16.3-8.4-25.2 0-27 26-49 58-49s58 22 58 49c0 9-2.9 17.8-8.4 25.4-.1.2-.2.3-.3.5-1-.1-3.3-.3-6.5-.1-1.3.1-2.4 1.3-2.3 2.6.1 1.4 1.3 2.3 2.6 2.3 3.5-.2 5.9.1 5.9.1h.4c.2 0 .4 0 .6-.1 1.1 2.6 3.1 5.4 5.3 8.6 2.8 4 6.3 8.9 6.1 11.6-.1 2.2-6.4 9.7-11 15.1-8.8 10.4-14.2 17.1-13.4 21.3l7 47.5c.1.7.5 1.3 1.1 1.7l23.7 15.8c.4.3.9.4 1.4.4.5 0 1.1-.2 1.5-.5l22.1-17.8c-1.1-.9-2-1.9-2.6-3.1z" class="st2"/></g></g></switch></svg>