<svg xmlns="http://www.w3.org/2000/svg" xml:space="preserve" id="Layer_1" x="0" y="0" style="enable-background:new 0 0 288 288" version="1.1" viewBox="0 0 288 288"><style>.st2{fill:#fff}</style><switch><g><linearGradient id="SVGID_1_" x1="144" x2="144" y1="54.909" y2="249.299" gradientUnits="userSpaceOnUse"><stop offset="0" style="stop-color:#00ba6f"/><stop offset="1" style="stop-color:#00807d;stop-opacity:0"/></linearGradient><path d="m256.4 74.9-2.1-41.2c0-.9-.5-1.7-1.3-2.1-.8-.4-1.7-.4-2.5 0L194.9 63c-.7-.9-1.6-1.6-2.6-2.2-4.8-2.8-10.9-1.1-13.7 3.7-.8 1.5-1.3 3.1-1.3 4.6l-16.8 2.1h-25.2L109.7 68 54.1 36.5c.3-2.1-.1-4.3-1.3-6.2-2.8-4.8-8.9-6.4-13.7-3.7-4.8 2.8-6.4 8.9-3.7 13.7 1.3 2.2 3.3 3.7 5.5 4.5l-1.1 22.1c-2.8.5-5.4 2.2-6.9 4.8-2.8 4.8-1.1 10.9 3.7 13.7 1.6.9 3.3 1.3 5 1.3 1.1 0 2.1-.2 3.1-.5-.1 0-.1.1-.2.1L64 127.5l-9.7 42c-.1.3-.1.5 0 .8-.1.1-.1.3-.1.4l-1.9 8.2c-.2 1 .2 2.1 1.1 2.7l48.9 32.6 23.5 47.1c.4.9 1.3 1.4 2.3 1.4h19c.3 0 .5-.1.8-.1.3.1.5.1.8.1h19c1 0 1.9-.6 2.3-1.4l23.5-47.1 48.9-32.6c.9-.6 1.3-1.7 1.1-2.7l-1.9-8.2c0-.1-.1-.3-.1-.4v-.8l-7.7-33.4c1.6-.9 3-2.1 4-3.8 1.3-2.3 1.7-5 1-7.6-.5-2-1.7-3.7-3.2-5.1l20.6-43.4c.1-.4.2-.9.2-1.3zM46.7 85.5s-.1 0 0 0l.1-.1s-.1 0-.1.1z" style="fill:url(#SVGID_1_)"/><g style="opacity:.9"><path d="M187.3 79.5c-1.7 0-3.4-.4-5-1.3-4.8-2.8-6.4-8.9-3.7-13.7 2.8-4.8 8.9-6.4 13.7-3.7 4.8 2.8 6.4 8.9 3.7 13.7-1.9 3.2-5.2 5-8.7 5zm0-14.9c-1.7 0-3.3.9-4.2 2.4-1.3 2.3-.5 5.3 1.8 6.7 2.3 1.3 5.3.5 6.7-1.8 1.3-2.3.5-5.3-1.8-6.7-.8-.4-1.7-.6-2.5-.6zM41.6 86.8c-1.7 0-3.4-.4-5-1.3-4.8-2.8-6.4-8.9-3.7-13.7 2.8-4.8 8.9-6.4 13.7-3.7 4.8 2.8 6.4 8.9 3.7 13.7-1.8 3.2-5.2 5-8.7 5zm.1-14.9c-1.7 0-3.3.9-4.2 2.4-1.3 2.3-.5 5.3 1.8 6.7 2.3 1.3 5.3.5 6.7-1.8 1.3-2.3.5-5.3-1.8-6.7-.9-.4-1.7-.6-2.5-.6zM229 137.3c-1.7 0-3.4-.4-5-1.3-2.3-1.3-4-3.5-4.7-6.1-.7-2.6-.3-5.3 1-7.6 2.8-4.8 8.9-6.4 13.7-3.7 2.3 1.3 4 3.5 4.7 6.1s.3 5.3-1 7.6c-1.8 3.2-5.2 5-8.7 5zm.1-14.9c-1.7 0-3.3.9-4.2 2.4-.7 1.1-.8 2.4-.5 3.7.3 1.3 1.1 2.3 2.3 3 2.3 1.3 5.3.5 6.7-1.8.7-1.1.8-2.4.5-3.7-.3-1.3-1.1-2.3-2.3-3-.9-.4-1.7-.6-2.5-.6z" class="st2"/><path d="m177.3 69.1-16.8 2.1h-25.2L109.7 68 54.1 36.5c-.2 1.7-.9 3.4-1.9 4.8l55.4 31.4c.3.2.6.3.9.3l26.3 3.4H161l17.4-2.2c-.8-1.6-1.2-3.3-1.1-5.1z" class="st2"/><path d="M52.9 30.3c-2.8-4.8-8.9-6.4-13.7-3.7-4.8 2.8-6.4 8.9-3.7 13.7 1.9 3.2 5.2 5 8.7 5 1.7 0 3.4-.4 5-1.3 4.8-2.8 6.4-8.9 3.7-13.7z" class="st2"/><path d="m45 67.3 1.2-22.2c-.6.1-1.3.2-1.9.2-1.1 0-2.2-.2-3.2-.5L40 66.9c1.6-.3 3.4-.1 5 .4zM216.8 86c-4.8-2.8-10.9-1.1-13.7 3.7-2.8 4.8-1.1 10.9 3.7 13.7 1.6.9 3.3 1.3 5 1.3 3.5 0 6.8-1.8 8.7-5 2.8-4.8 1.1-10.9-3.7-13.7z" class="st2"/><path d="m224.9 118.1-8.4-14.6c-1 .5-2.2.9-3.3 1.1l9 15.4c.7-.7 1.7-1.4 2.7-1.9zM254.2 33.7c0-.9-.5-1.7-1.3-2.1-.8-.4-1.7-.4-2.5 0L194.9 63c1.1 1.3 1.9 3 2.2 4.7l50.4-28.5-32.4 46.1c.6.2 1.1.4 1.7.8.5.3.9.6 1.3.9l31.3-44.7 1.7 32.3-20.3 42.9c1.1.2 2.2.6 3.2 1.2.5.3 1 .7 1.5 1l20.6-43.5c.2-.4.3-.8.2-1.2l-2.1-41.3zM243.5 178.9l-1.9-8.2c0-.1-.1-.3-.1-.4v-.8l-7.7-33.4c-1.4.8-3.1 1.2-4.7 1.2h-.3l7.7 33.4c0 .1.1.3.1.4v.8l1.5 6.4-48 32c-.4.2-.7.6-.9 1l-23.1 46.3h-17.4c-.3 0-.5.1-.8.1-.3-.1-.5-.1-.8-.1h-17.4l-23.1-46.3c-.2-.4-.5-.7-.9-1l-48-32 1.5-6.4c.1-.3.1-.6 0-.9 0-.1.1-.2.1-.3l9.9-42.8v-.1l18.1-31.2c.3-.6.3-1.3-.1-1.8l-36.4-52c-.5.4-1 .8-1.6 1.2-.4.2-.9.5-1.3.6l35.9 51.2-16 27.6-18.9-39.8c-.7.7-1.4 1.3-2.3 1.8-.7.4-1.4.7-2.1.9L64 127.5l-9.7 42c-.1.3-.1.5 0 .8-.1.1-.1.3-.1.4l-1.9 8.2c-.2 1 .2 2.1 1.1 2.7l48.9 32.6 23.5 47.1c.4.9 1.3 1.4 2.3 1.4h19c.3 0 .5-.1.8-.1.3.1.5.1.8.1h19c1 0 1.9-.6 2.3-1.4l23.5-47.1 48.9-32.6c.9-.6 1.3-1.7 1.1-2.7z" class="st2"/><path d="M100.2 177.6c.4.8 1.2 1.3 2.1 1.4l22.7 1.9-2.8 27-20.3-17.8c-.2-.2-.4-.3-.7-.4l-43.1-11.2 8.7 5.8 33.1 8.6 30.4 26.7v14c0 .8.4 1.5 1 2L146 247c.5.4 1 .5 1.6.5h.8c.6 0 1.1-.2 1.6-.5l14.7-11.4c.6-.5 1-1.2 1-2v-14l30.4-26.7 33.1-8.6 8.7-5.8-43.1 11.2c-.3.1-.5.2-.7.4l-20.3 17.8-2.8-27 22.7-1.9c.9-.1 1.7-.6 2.1-1.4l9.6-18.3c.4-.8.4-1.8-.1-2.6s-1.4-1.2-2.4-1.1l-22.4 1.8c-.6.1-1.2.3-1.6.7l-11.3 11.3c-.2.2-.4.5-.5.7-.4.4-.6.8-.5 1.4l4.1 39.2-7.3 6.4H148.7c-.2 0-.4 0-.6.1-.2 0-.4-.1-.6-.1H132.8l-7.3-6.4 4.1-39.3c.1-.6-.2-1.1-.6-1.5-.1-.2-.2-.4-.4-.5l-11.3-11.3c-.4-.4-1-.7-1.6-.7L93 155.5c-1-.1-1.8.4-2.4 1.1-.5.8-.6 1.8-.1 2.6l9.7 18.4zm81.5-15.2 16.8-1.4-6.8 12.9-19.5 1.6-.3-3.4 9.8-9.7zm-46.3 59.8h11.9c.2 0 .4 0 .6-.1.2 0 .4.1.6.1h11.9v10.2l-12.5 9.7-12.5-9.7v-10.2zm-21.3-59.8 9.8 9.8-.3 3.4-19.5-1.6-6.8-13 16.8 1.4z" class="st2"/></g></g></switch></svg>