<svg width="104" height="29" viewBox="0 0 104 29" fill="none" xmlns="http://www.w3.org/2000/svg">
<g clip-path="url(#clip0_8_906)">
<path d="M85.9629 26.336C85.7946 26.8973 85.6304 27.4419 85.4641 27.9927H83.7991C83.795 27.3542 83.678 26.7617 83.8936 26.1545C84.2118 25.2532 84.4807 24.333 84.7845 23.4275C84.9426 22.9581 85.1336 22.4991 85.2998 22.0317C85.538 21.3661 85.772 20.6985 85.9917 20.0266C86.0307 19.9098 85.9978 19.7679 85.9978 19.6239C85.7782 19.8639 85.7782 19.8785 85.4682 19.8827C84.3719 19.8931 83.2756 19.891 82.1793 19.8931C82.0172 19.8931 81.855 19.8931 81.6805 19.9244C82.0377 20.1622 82.4688 20.2686 82.7295 20.6484C82.9944 21.0344 83.2099 21.4225 83.2222 21.9107C83.2346 22.3968 82.9964 22.7578 82.746 23.1229C82.6372 23.0979 82.5489 23.077 82.4627 23.0582C82.4093 23.2898 82.3621 23.4964 82.3148 23.7071C83.0785 24.1411 83.4501 24.8108 83.4111 25.6976C83.4009 25.9396 83.3208 26.1879 83.2243 26.4111C83.1258 26.6427 82.9451 26.8389 82.8404 27.0705C82.7234 27.3271 82.5468 27.5045 82.3025 27.6234C81.8057 27.8675 81.2945 28.024 80.73 27.9822C80.4241 27.9593 80.112 28.0094 79.8041 28.0177C79.5126 28.024 79.219 28.0177 78.8905 28.0177C78.7838 27.5253 78.833 27.0621 78.8474 26.6031C78.8556 26.3736 79.0404 26.3193 79.2395 26.3173C79.6829 26.3131 80.1264 26.3193 80.5678 26.2922C81.1364 26.2568 81.2966 26.0585 81.3212 25.4764C81.3458 24.9256 81.2945 24.6752 80.5247 24.6231C80.1325 24.5959 79.7363 24.6231 79.3422 24.6105C78.9008 24.5959 78.8392 24.525 78.833 24.0722C78.8289 23.7092 78.833 23.3482 78.833 22.9393C79.1184 22.9205 79.3422 22.9038 79.5659 22.8955C79.7466 22.8892 79.9293 22.8788 80.1079 22.8976C80.7094 22.9623 81.1364 22.7661 81.2781 22.0713C81.0892 21.7146 80.8018 21.4913 80.3276 21.5205C79.8718 21.5497 79.412 21.5268 78.9295 21.5268C78.7365 21.0093 78.9049 20.4982 78.792 19.9619C78.4224 19.9619 78.0488 20.012 77.6936 19.9473C77.3344 19.8827 77.0038 19.866 76.6487 19.9724C76.5009 20.0162 76.3099 19.9077 76.0595 19.8514C76.0697 20.0454 76.0472 20.1935 76.0923 20.3187C76.4023 21.1909 76.737 22.0526 77.0387 22.9268C77.4042 23.9825 77.7409 25.0466 78.0981 26.1065C78.2602 26.5885 78.443 27.0642 78.6093 27.5441C78.6503 27.663 78.6647 27.7903 78.7057 27.976C78.482 27.9969 78.3095 28.0219 78.1371 28.0261C77.7429 28.0323 77.3487 28.0261 76.9546 28.024C76.5727 28.0219 76.4721 27.928 76.388 27.5483C76.3202 27.2457 76.2381 26.9432 76.1416 26.649C76.0821 26.4654 75.9527 26.3444 75.7413 26.3423C75.1172 26.336 74.4931 26.3214 73.871 26.3235C73.791 26.3235 73.6678 26.3945 73.639 26.4654C73.5323 26.722 73.4563 26.9933 73.3722 27.2603C73.2941 27.5044 73.2223 27.7507 73.1484 27.9969H71.4752C71.4793 27.3605 71.3623 26.7658 71.5799 26.1608C71.8981 25.2761 72.165 24.3727 72.4668 23.4818C72.7747 22.5763 73.0971 21.677 73.4132 20.7777C73.522 20.4669 73.6349 20.1602 73.752 19.8388C73.9983 19.8075 74.2221 19.7804 74.4808 19.7491C74.4972 19.5739 74.5239 19.4111 74.5239 19.2505C74.5218 18.0883 74.5095 16.9262 74.5074 15.764C74.5054 10.984 74.5054 6.20599 74.5054 1.42593C74.5054 0.64143 74.5341 0.622652 75.3102 0.630998C76.2114 0.64143 77.1147 0.61222 78.0159 0.639344C79.0671 0.67064 78.911 0.73532 78.9151 1.5699C78.9357 4.90196 78.9418 8.2361 78.9521 11.5682C78.9562 12.8805 78.9521 14.1929 78.9521 15.5032C78.9521 16.4504 78.9583 17.3977 78.9459 18.3449C78.9439 18.5473 78.8741 18.7476 78.8228 19.0168C78.8741 19.2004 78.948 19.4675 79.0281 19.7596H79.5454C79.5454 19.2442 79.5454 18.7372 79.5454 18.2302C79.5454 18.0299 79.5105 17.8254 79.5454 17.6314C79.5967 17.3351 79.607 17.0513 79.5577 16.7488C79.492 16.3503 79.7055 16.1291 80.1202 16.1124C80.3953 16.0999 80.6971 16.0478 80.8223 16.4171C81.3192 16.246 81.7893 16.0415 82.3066 16.1104C82.475 16.1333 82.633 16.2355 82.8014 16.2481C83.0498 16.2668 83.3023 16.2501 83.5528 16.2251C83.7601 16.2042 83.9613 16.1187 84.1666 16.1104C84.6265 16.0937 85.0863 16.1083 85.5462 16.1041C85.8931 16.102 86.236 16.2898 86.5911 16.1166C86.6609 16.0832 86.7923 16.1229 86.8704 16.1709C87.0161 16.2585 87.1331 16.2335 87.283 16.1729C87.5478 16.0665 87.8086 16.1479 87.8927 16.4087C88.0262 16.8156 88.3013 16.9366 88.7221 16.9449V17.5187C88.564 17.5646 88.4285 17.6043 88.252 17.6564C88.3444 17.7274 88.408 17.7753 88.4696 17.8254C88.7817 18.0779 88.8925 18.3783 88.7242 18.7393C88.6503 18.8979 88.6564 18.9917 88.7119 19.1378C88.8063 19.3923 88.7611 19.6323 88.5332 19.8075C88.369 19.9348 88.3197 20.0871 88.3895 20.2874C88.6503 21.0365 88.911 21.7855 89.1676 22.5366C89.5823 23.7468 89.9929 24.9611 90.4117 26.1691C90.5677 26.6198 90.7504 27.06 90.9126 27.5065C90.9598 27.638 90.9824 27.7819 91.0255 27.9509C90.8633 27.9843 90.7566 28.024 90.6498 28.0261C90.2064 28.0344 89.763 28.0365 89.3195 28.0323C88.8576 28.0281 88.7796 27.9468 88.6954 27.5086C88.6359 27.204 88.562 26.8994 88.4634 26.6031C88.4019 26.4174 88.254 26.3319 88.0426 26.336C87.3713 26.3486 86.7 26.3402 85.9629 26.3402V26.336ZM86.4823 24.6377C86.9792 24.6126 87.3631 24.5918 87.8044 24.5709C87.5868 23.8093 87.3856 23.1083 87.1598 22.3238C86.9237 23.1271 86.7123 23.8511 86.4823 24.6398V24.6377ZM75.497 24.5959C75.2691 23.7989 75.07 23.1 74.8462 22.3196C74.6204 23.1313 74.335 23.8427 74.2077 24.5959H75.497ZM87.8209 18.3595C87.6443 18.13 87.7531 17.8046 87.4637 17.6293C87.4431 17.8358 87.478 18.0382 87.398 18.1634C87.2604 18.3742 87.1085 18.5557 87.1639 18.8332C87.2111 19.0752 87.2358 19.3214 87.2707 19.5655C87.3056 19.5697 87.3425 19.5759 87.3774 19.5801C87.5581 19.1879 87.2789 18.6183 87.8229 18.3616L87.8209 18.3595ZM78.5353 11.4492C78.3711 11.3074 78.2705 11.2218 78.1473 11.1154C78.0899 11.2489 78.0488 11.3428 77.9872 11.4826C78.1781 11.4701 78.3136 11.4617 78.5333 11.4492H78.5353ZM75.6982 13.2582C75.9226 13.3166 76.0588 13.2631 76.1067 13.0975C75.9568 13.1559 75.8275 13.206 75.6982 13.2582ZM74.9406 14.0823C74.916 14.1053 74.8913 14.1303 74.8667 14.1533C74.8955 14.2075 74.9119 14.2785 74.957 14.3098C75.0043 14.3431 75.0782 14.3348 75.1398 14.3452C75.148 14.3223 75.1582 14.2993 75.1664 14.2785C75.0905 14.2138 75.0166 14.1491 74.9406 14.0823ZM77.3364 2.88228C77.3775 2.586 77.2112 2.62773 77.0798 2.63399C77.0613 2.63399 77.0428 2.66946 76.9977 2.71745C77.1106 2.77169 77.2091 2.81968 77.3364 2.88228ZM86.2072 25.7477C86.1847 25.7477 86.1621 25.7477 86.1416 25.7456C86.1374 25.8332 86.1333 25.9208 86.1292 26.0106C86.1559 26.0106 86.1826 26.0106 86.2072 26.0126V25.7477ZM73.8033 26.0147C73.8361 26.0147 73.869 26.0147 73.9018 26.0126C73.8936 25.9229 73.8833 25.8311 73.8751 25.7414C73.8505 25.7435 73.8279 25.7456 73.8033 25.7497V26.0168V26.0147ZM77.8168 11.8853C77.8353 11.854 77.8558 11.8227 77.8763 11.7914C77.8517 11.7768 77.8189 11.7455 77.8045 11.7539C77.7737 11.7705 77.7511 11.8081 77.7244 11.8352C77.7491 11.8498 77.7737 11.8623 77.8168 11.8853Z" fill="white"/>
<path d="M91.1713 25.2616C91.7071 25.2386 92.1772 25.2094 92.6494 25.2031C92.865 25.201 93.0251 25.3137 93.0702 25.5474C93.1503 25.9563 93.3597 26.2255 93.7867 26.3131C94.0208 26.3611 94.2404 26.478 94.5053 26.5802C94.4929 26.7137 94.4765 26.8681 94.458 27.0601C94.6695 26.9286 94.5504 26.7075 94.651 26.5531C94.9713 26.4571 95.31 26.3549 95.6775 26.2422C95.6816 25.9355 95.9444 25.6371 95.7083 25.3095C95.6529 25.2344 95.5954 25.1531 95.5215 25.0988C95.3511 24.9757 95.1766 24.8547 94.9918 24.7566C94.881 24.6982 94.7455 24.6398 94.6284 24.6523C93.7641 24.7399 92.982 24.5063 92.2675 24.0326C91.6886 23.6487 91.3909 23.1104 91.3499 22.3823C91.2739 21.0511 92.1136 20.2603 93.2612 19.9411C92.9142 19.8973 92.7069 19.6031 92.3887 19.7909C92.3558 19.8097 92.2901 19.7867 92.247 19.7679C91.9678 19.6448 91.6886 19.5196 91.395 19.3861C91.3068 19.0961 91.4772 18.9354 91.7132 18.8186C91.9124 18.7205 92.1156 18.6329 92.3414 18.5307C92.2737 18.3658 92.2244 18.249 92.1977 18.1801C91.9083 18.1801 91.6188 18.2594 91.4217 18.1572C91.2493 18.0654 91.1795 17.7712 91.0378 17.5187C90.9208 17.5021 90.814 17.5897 90.8079 17.7629C90.7997 17.9486 90.8387 18.0967 91.0604 18.1864C91.4402 18.3429 91.4443 18.5119 91.1425 18.8123C90.9578 18.7497 90.7853 18.6788 90.6067 18.6413C90.5615 18.6308 90.4753 18.7205 90.4466 18.7831C90.4301 18.8207 90.4815 18.9354 90.5164 18.9438C90.9393 19.0231 90.8243 19.3277 90.8099 19.5906C90.3706 19.7721 90.3706 19.7679 90.1078 19.3924C90.0586 19.3214 89.9621 19.2526 89.88 19.2421C89.6028 19.2067 89.533 19.0189 89.5227 18.7852C89.5063 18.3867 89.4817 17.9861 89.494 17.5876C89.5412 16.0603 89.4653 14.533 89.4837 13.0037C89.5063 11.1885 89.4878 9.37116 89.4837 7.55595C89.4837 7.28889 89.4837 7.03434 89.9025 7.05521C89.416 6.73598 89.4817 6.28113 89.4961 5.83255C89.5125 5.25251 89.5166 4.67039 89.5084 4.08828C89.5043 3.82121 89.6849 3.7148 89.8574 3.59379C89.9436 3.53328 90.0503 3.50198 90.2228 3.4227C90.0545 3.23909 89.9415 3.08261 89.7978 2.96368C89.5782 2.78007 89.4735 2.56934 89.4817 2.27515C89.4981 1.76189 89.4858 1.24862 89.4858 0.691539C90.1571 0.608081 90.7627 0.49124 91.2595 1.04832C91.3478 0.910616 91.3971 0.760391 91.5018 0.693625C91.6003 0.628945 91.7543 0.631032 91.8836 0.631032C92.442 0.635205 92.9984 0.653983 93.5568 0.662328C93.7765 0.666501 93.8853 0.787515 93.9099 0.99616C93.9222 1.09422 93.9304 1.19437 93.9304 1.29452C93.9202 2.29393 93.9037 3.29334 93.8955 4.29275C93.8914 4.90825 93.9058 5.52167 93.9037 6.13717C93.8996 7.15327 93.9099 8.16937 93.8709 9.18338C93.8606 9.48592 93.7395 9.7968 93.6102 10.0743C93.5588 10.1828 93.3494 10.2266 93.2016 10.2746C93.0969 10.308 92.9389 10.1807 92.8711 10.4206C93.1893 10.5145 93.4726 10.3497 93.8257 10.3247C93.8442 10.4749 93.8791 10.6272 93.8791 10.7816C93.8955 12.8973 93.9366 15.0129 93.9017 17.1286C93.8914 17.7044 93.9428 18.274 93.9202 18.8478C93.9079 19.1399 93.8524 19.4299 93.8134 19.7512C94.0392 19.7992 94.3123 19.8597 94.6161 19.9244C94.612 19.843 94.6243 19.7492 94.5997 19.6636C94.5689 19.5572 94.4457 19.4362 94.4724 19.3611C94.5976 19.0022 94.4847 18.6642 94.4334 18.3199C94.3821 17.9757 94.7044 17.8567 94.9076 17.5876C94.7988 17.5208 94.6839 17.4749 94.6038 17.3936C94.5319 17.3205 94.4478 17.2037 94.4601 17.1181C94.4704 17.0409 94.5894 16.9491 94.6798 16.9158C94.9713 16.8094 95.2443 16.7196 95.2957 16.3295C95.3223 16.1229 95.5461 16.0228 95.7206 16.0833C96.1476 16.2314 96.5849 15.9393 97.0181 16.1584C97.1556 16.2272 97.3856 16.0791 97.5744 16.0749C98.0836 16.0603 98.5968 16.0248 99.0998 16.0812C99.7034 16.15 100.295 16.1292 100.892 16.0666C101.424 16.0123 101.923 16.1125 102.341 16.3921C102.485 16.2731 102.592 16.1104 102.721 16.0916C102.957 16.0561 103.218 16.0645 103.446 16.1333C103.657 16.198 103.752 16.5506 103.641 16.8406C103.557 17.0597 103.534 17.2392 103.641 17.4562C103.694 17.5667 103.696 17.719 103.68 17.8484C103.624 18.2949 103.633 18.7331 103.68 19.1837C103.739 19.7554 103.723 20.3375 103.733 20.9134C103.744 21.4538 103.674 21.5289 103.152 21.531C102.216 21.5352 101.28 21.5352 100.346 21.531C99.8594 21.5289 99.8081 21.4809 99.7855 20.9948C99.7711 20.6755 99.7834 20.3542 99.7834 20.0329C99.7424 20.0329 99.7034 20.0329 99.6623 20.0329C99.6623 20.5399 99.6623 21.049 99.6623 21.556C99.6623 22.0735 99.7054 22.5909 99.6643 23.1042C99.6089 23.8136 99.6767 24.5188 99.6602 25.2261C99.6438 25.925 99.6643 26.6261 99.6643 27.325C99.6643 27.9969 99.5042 28.1325 98.8678 27.9635C98.7241 27.9259 98.603 27.8008 98.4387 27.6943C98.3525 27.8404 98.2191 27.9593 97.9891 27.8675C97.751 27.7736 97.7448 27.5733 97.7407 27.3751C97.7346 26.962 97.7387 26.5489 97.6997 26.1316C97.4492 26.8681 96.9996 27.4565 96.3098 27.7131C95.7843 27.9093 95.2197 28.1617 94.6018 27.9593C94.3759 27.8863 94.0947 27.9113 93.8586 27.9718C93.4049 28.0887 92.9655 27.9343 92.6309 27.7444C92.0356 27.4043 91.4217 26.9933 91.2349 26.2464C91.161 25.9522 91.1959 25.6288 91.1795 25.2595L91.1713 25.2616ZM97.5744 22.2904C97.1207 22.6034 96.6342 22.618 96.1394 22.6138C95.8746 22.6118 95.7186 22.5429 95.6734 22.2383C95.618 21.869 95.3819 21.6249 95.0123 21.5268C94.7742 21.4642 94.3225 21.4392 94.0208 21.4872C93.9571 21.4976 93.8894 21.4809 93.8257 21.4872C93.563 21.5185 93.3433 21.7042 93.2981 21.9274C93.2447 22.1945 93.3187 22.4094 93.604 22.5387C93.9428 22.6931 94.3082 22.7912 94.6654 22.8955C95.2279 23.0603 95.813 23.1647 96.3529 23.3858C96.704 23.5298 97.0345 23.7927 97.2891 24.0785C97.4759 24.2893 97.5252 24.6294 97.634 24.911C97.6894 24.6669 97.6894 24.4353 97.6894 24.2016C97.6935 23.3733 97.6935 22.5429 97.7079 21.7146C97.712 21.5185 97.7264 21.3036 97.8085 21.1325C97.8803 20.9843 97.8639 20.8988 97.7921 20.7757C97.7428 20.6943 97.712 20.59 97.7079 20.4961C97.6956 20.2144 97.7305 19.9265 97.3773 19.8034C97.3281 19.7867 97.3281 19.6261 97.2973 19.5343C97.2911 19.5155 97.246 19.5092 97.1885 19.4821C97.1741 19.5948 97.1638 19.697 97.1454 19.841C96.9462 19.8514 96.745 19.9015 96.5644 19.8618C96.3817 19.8222 96.2174 19.697 96.045 19.6094C96.1025 19.674 96.1599 19.7387 96.2174 19.8034C96.0696 19.8743 95.9218 19.9474 95.8438 19.9849C96.8251 20.2228 97.5601 21.2764 97.5765 22.2842L97.5744 22.2904ZM91.1425 1.83283C91.0871 1.78066 91.0399 1.74102 90.9988 1.69303C90.9475 1.63461 90.9044 1.56785 90.8633 1.5136C90.5129 1.54281 90.2597 1.64505 90.1037 1.82031C90.1694 1.96844 90.2331 2.11241 90.2905 2.24386C90.6703 2.32314 90.9968 2.33149 91.1425 1.83283ZM95.8458 19.2568C95.8807 19.1337 95.8849 18.9834 95.9567 18.8895C96.1558 18.6308 96.0799 18.4305 95.8705 18.2448C95.7268 18.1176 95.7021 17.9757 95.7617 17.7983C95.7801 17.742 95.7535 17.669 95.7473 17.6022C95.7103 17.598 95.6734 17.5918 95.6364 17.5876C95.6077 17.6961 95.5831 17.8067 95.5502 17.9152C95.5133 18.0383 95.4702 18.1593 95.427 18.2824C95.6214 18.4646 95.7603 18.7887 95.8438 19.2547L95.8458 19.2568ZM91.703 7.01556C91.7974 6.73598 91.7666 6.52316 91.4299 6.39589C91.4833 6.84239 90.9003 6.80275 90.8469 7.22838C91.1487 7.15327 91.4094 7.08859 91.703 7.01556ZM90.4384 8.07339C90.4301 8.11929 90.4199 8.1652 90.4117 8.2111C90.5574 8.26535 90.7032 8.31751 90.9023 8.39053V7.90439C90.7278 7.96698 90.5841 8.02123 90.4384 8.07339ZM89.8717 6.26027C90.0319 6.07249 90.2331 5.96817 90.075 5.69693C89.7999 5.80125 89.7958 5.98277 89.8717 6.26027ZM94.8727 27.4481C94.6654 27.3271 94.5361 27.2478 94.3862 27.421C94.5196 27.6526 94.6592 27.5775 94.8727 27.4481ZM91.7153 10.7232C91.6804 10.7566 91.6475 10.7899 91.6126 10.8233C91.6845 10.9005 91.7584 10.9756 91.8303 11.0528C91.8631 11.0215 91.896 10.9882 91.9309 10.9569L91.7153 10.7253V10.7232ZM90.9413 9.12079C90.9023 9.11662 90.8633 9.11036 90.8223 9.10618C90.814 9.18755 90.8058 9.26893 90.7976 9.3503C90.8264 9.35238 90.8797 9.36282 90.8818 9.35447C90.9064 9.27727 90.9229 9.19799 90.9413 9.1187V9.12079ZM98.5229 19.8305C98.4983 19.8243 98.4757 19.8138 98.451 19.8138C98.4469 19.8138 98.4305 19.8472 98.4346 19.8535C98.449 19.8764 98.4716 19.8931 98.4921 19.9119C98.5024 19.8848 98.5126 19.8577 98.5229 19.8305ZM96.355 26.8639C96.3817 26.8514 96.4084 26.841 96.435 26.8285C96.4227 26.8034 96.4104 26.7784 96.4001 26.7534C96.3652 26.7721 96.3303 26.7909 96.2954 26.8097C96.316 26.8285 96.3345 26.8452 96.355 26.8639Z" fill="white"/>
<path d="M27.5214 19.801H28.1168C28.1168 19.5443 28.1024 19.3336 28.1209 19.1229C28.1393 18.9121 28.1989 18.7077 28.2235 18.4969C28.2358 18.3926 28.2235 18.2778 28.1927 18.1777C28.1209 17.9503 28.0962 17.7375 28.2276 17.5392C28.5992 17.5935 28.2215 18.1631 28.6813 18.161C28.6218 17.8126 28.5705 17.51 28.515 17.1804C28.4165 17.1366 28.2728 17.1053 28.1742 17.0197C28.125 16.978 28.1537 16.8403 28.1414 16.6755C28.3221 16.7068 28.4576 16.7485 28.593 16.7464C28.706 16.7464 28.8189 16.6942 28.9297 16.665C28.8599 16.4731 28.8025 16.3145 28.7655 16.2123C29.3136 15.9285 29.8187 15.7032 30.2867 15.4152C30.5721 15.2379 30.8082 14.9729 31.0525 14.733C31.2516 14.541 31.4343 14.3303 31.6191 14.1237C31.6951 14.0403 31.7916 13.9568 31.8224 13.8546C31.9147 13.5479 31.9558 13.2245 32.0625 12.924C32.1221 12.755 32.274 12.6173 32.428 12.4066C32.4198 12.3753 32.3931 12.2668 32.3643 12.1604C32.3397 12.0665 32.2678 11.958 32.2945 11.8829C32.5676 11.0963 32.4115 10.2826 32.4444 9.45217C32.5491 9.41044 32.66 9.36454 32.7831 9.31447C32.3315 9.21223 32.1077 8.48823 32.4157 7.97705C32.0851 7.40745 31.7751 6.83994 31.4323 6.28912C30.9622 5.53591 30.2724 5.04142 29.482 4.68881C29.2171 4.56988 28.9215 4.5219 28.6362 4.45513C28.244 4.36541 28.1085 4.21727 28.1065 3.80833C28.1003 2.92576 28.0983 2.0432 28.1065 1.15854C28.1106 0.716214 28.164 0.668226 28.591 0.66614C29.5005 0.65988 30.3504 0.891476 31.2065 1.20653C32.2001 1.57374 33.0685 2.12665 33.8835 2.76928C34.5015 3.25542 34.9531 3.92308 35.4171 4.56571C35.8749 5.20208 36.0494 5.96154 36.3676 6.65842C36.4743 6.89001 36.4949 7.17794 36.2485 7.39285C36.191 7.44292 36.1705 7.53473 36.1151 7.64113C36.2691 7.6766 36.4025 7.7079 36.5585 7.74337C36.6304 8.01252 36.7618 8.28167 36.7577 8.54874C36.7536 8.80746 36.6119 9.06618 36.5257 9.33324C37.0389 9.63578 36.7515 10.1407 36.7967 10.6164C36.6571 10.6039 36.5667 10.5976 36.4723 10.5893C36.4579 10.6394 36.4271 10.6873 36.4353 10.7291C36.4538 10.8397 36.4559 10.9857 36.5257 11.0525C36.9342 11.4447 36.8521 11.9392 36.7659 12.3961C36.6016 13.2704 36.3471 14.1237 35.9036 14.902C35.5875 15.4591 35.259 16.0078 34.9326 16.5607C34.6595 17.0239 34.2572 17.3598 33.8507 17.6957C33.3087 18.1422 32.7749 18.5971 32.1365 18.9038C31.4343 19.2397 30.7548 19.6403 29.9398 19.7112C29.9808 19.9929 29.8474 20.1786 29.6606 20.3539C29.2192 20.7691 28.7819 21.1905 28.3549 21.6183C27.7965 22.1774 27.2463 22.7428 26.6961 23.3124C26.4867 23.5294 26.4867 23.6066 26.7002 23.8549C27.6733 24.9879 28.6546 26.1166 29.6257 27.2517C29.7899 27.4436 29.9275 27.6606 30.1122 27.9151C29.9439 27.9631 29.8577 28.0111 29.7694 28.0111C29.2438 28.0174 28.7183 28.0111 28.1927 28.0174C27.9792 28.0195 27.8273 27.936 27.6877 27.7691C26.8829 26.8135 26.072 25.8621 25.2508 24.9211C25.0825 24.7291 25.0312 24.5288 25.0353 24.2868C25.0435 23.8695 25.0558 23.4522 25.0312 23.037C25.0127 22.7095 25.1318 22.482 25.3535 22.2504C26.0227 21.5515 26.6674 20.8275 27.3161 20.1097C27.4023 20.0138 27.4619 19.8948 27.5337 19.7863L27.5214 19.7989V19.801ZM34.1114 8.00418C34.0806 8.04382 34.0498 8.08138 34.019 8.12102C34.1607 8.3234 34.3023 8.52788 34.4542 8.74278C34.637 8.74278 34.7766 8.68019 34.8505 8.54665C34.5733 8.34218 34.3434 8.17318 34.1114 8.00209V8.00418ZM33.9287 9.76931C33.8609 9.63161 33.8384 9.51894 33.7952 9.51059C33.6207 9.47721 33.438 9.46469 33.2594 9.47304C33.206 9.47512 33.1157 9.5711 33.1157 9.62535C33.1157 9.68168 33.1999 9.78392 33.2512 9.786C33.4544 9.79852 33.6618 9.77766 33.9266 9.76931H33.9287Z" fill="white"/>
<path d="M64.3001 16.1435C64.257 16.3167 64.2242 16.4544 64.1811 16.6297C64.4767 16.6735 64.6265 16.8383 64.6019 17.1888C64.5855 17.4184 64.6532 17.6395 64.2857 17.6479C64.6491 17.7605 64.7641 17.9358 64.7087 18.2988C64.6553 18.6494 64.7353 19.0187 64.7353 19.3817C64.7353 19.8303 64.4972 19.9847 64.0722 19.8324C63.9963 19.8052 63.9285 19.7489 63.8505 19.7239C63.7746 19.7009 63.6658 19.6634 63.6185 19.6988C63.21 20.0014 62.8282 19.6613 62.436 19.6425C62.317 19.6362 62.2082 19.4046 62.085 19.2649C61.9433 19.2127 61.7791 19.1501 61.6128 19.0896C61.5841 19.0792 61.5451 19.0541 61.5266 19.0646C60.9641 19.3984 60.5699 18.9623 60.1778 18.7099C59.7138 18.4115 59.2786 18.0485 58.8967 17.6458C57.938 16.6401 57.0655 15.5656 56.6631 14.1844C56.5502 13.7963 56.4106 13.4186 56.2648 12.9784C56.4866 12.9387 56.6529 12.9095 56.8171 12.8803C56.8191 12.8636 56.8212 12.849 56.8232 12.8323C56.6754 12.8177 56.5276 12.8031 56.3716 12.7885C56.1273 12.5569 56.0883 12.2586 56.0739 11.931C56.0554 11.52 55.9692 11.1131 55.9425 10.7021C55.92 10.339 55.92 9.97182 55.9425 9.60877C55.961 9.29789 56.0431 8.99119 56.0678 8.67822C56.1273 7.88328 56.3162 7.13216 56.62 6.38939C56.8623 5.79683 57.0922 5.20637 57.3858 4.63468C57.784 3.86478 58.4081 3.29936 59.0179 2.73184C59.7405 2.06001 60.6089 1.62811 61.5163 1.23586C62.4258 0.843607 63.3414 0.643308 64.3145 0.655826C64.7025 0.659999 64.7682 0.71216 64.7723 1.07312C64.7826 2.08713 64.7764 3.10114 64.7764 4.14854C64.3905 4.31337 64.0476 4.51367 63.6781 4.60965C63.0293 4.77447 62.5592 5.21472 62.0562 5.60071C61.58 5.96584 61.2946 6.49579 61.0626 7.04662C60.8327 7.59327 60.6684 8.15452 60.6151 8.75542C60.5678 9.29163 60.4426 9.82159 60.34 10.435C60.42 10.7459 60.5986 11.1548 60.6151 11.57C60.6356 12.1042 60.7711 12.6091 60.8532 13.1286C60.8655 13.2058 60.9004 13.283 60.9435 13.3498C61.1488 13.6669 61.4178 13.9548 61.5594 14.297C61.8263 14.948 62.3724 15.2777 62.9 15.6324C63.0827 15.7555 63.3168 15.8014 63.5303 15.8765C63.7746 15.9641 64.0209 16.0455 64.3001 16.1435ZM58.1022 10.1659C58.1495 10.3119 58.1967 10.46 58.2377 10.5873C58.905 10.7271 59.0712 10.7229 59.4161 10.5644C59.2149 10.458 58.9768 10.3745 58.7961 10.2222C58.5724 10.0344 58.3691 10.0261 58.1022 10.1638V10.1659ZM63.5446 19.3191C64.062 19.2294 64.3597 18.9686 64.452 18.4616H64.1728C64.1379 18.6431 64.1051 18.8163 64.0907 18.9018C63.9203 19.1397 63.5528 18.8851 63.5446 19.3191ZM59.5126 13.137C59.4962 13.1703 59.4798 13.2037 59.4613 13.2371C59.527 13.2642 59.5906 13.2914 59.6563 13.3185C59.6666 13.2955 59.6789 13.2747 59.6892 13.2517C59.6296 13.2142 59.5701 13.1745 59.5106 13.137H59.5126ZM57.977 12.6529C57.977 12.6341 57.975 12.6174 57.9729 12.5987C57.8908 12.607 57.8087 12.6174 57.7266 12.6258C57.7266 12.6341 57.7266 12.6425 57.7286 12.6508H57.975L57.977 12.6529Z" fill="white"/>
<path d="M45.688 18.4405C45.6511 18.6534 45.6264 18.7973 45.5977 18.958C45.4314 19.0018 45.2774 19.0414 45.1009 19.0873C45.0947 19.1771 45.0906 19.2709 45.0845 19.3711C45.3226 19.2793 45.5279 19.1979 45.766 19.1061C45.9077 18.9663 45.8584 18.6346 46.1889 18.5553C46.3737 18.9267 46.2505 19.3064 46.1889 19.659C46.1499 19.8885 45.8646 19.8927 45.686 19.8176C45.4006 19.6945 45.1625 19.7216 44.8607 19.7884C44.5527 19.8552 44.1955 19.6799 43.8609 19.6069C43.8342 19.6006 43.7993 19.5672 43.7931 19.5401C43.7439 19.3168 43.6289 19.1854 43.3846 19.2063C43.2101 19.2209 43.0541 18.9663 42.8549 19.1833C42.8159 19.2271 42.664 19.1917 42.5778 19.1562C41.6478 18.7931 40.8944 18.1651 40.2148 17.4516C39.8412 17.0572 39.5168 16.6107 39.1966 16.1705C38.788 15.6092 38.4555 15.0021 38.2296 14.3407C38.0818 13.9109 37.9463 13.4769 37.7882 12.997C37.9915 12.9448 38.1414 12.9073 38.283 12.8718C38.129 12.803 37.9176 12.7717 37.8231 12.6486C37.7102 12.5046 37.6671 12.2834 37.6445 12.0894C37.5809 11.5615 37.4967 11.0295 37.507 10.5016C37.5234 9.68789 37.5953 8.87417 37.6815 8.06463C37.7184 7.70576 37.8334 7.35107 37.934 7.00054C38.2091 6.04495 38.6176 5.14569 39.1124 4.29025C39.2582 4.03987 39.4676 3.82288 39.6626 3.60589C40.3914 2.79218 41.2085 2.07235 42.1816 1.59247C42.8611 1.25864 43.5673 0.968621 44.3269 0.818397C44.8648 0.711988 45.3924 0.657741 45.9344 0.676519C46.152 0.682778 46.2731 0.778755 46.2731 1.00618C46.2731 2.05357 46.2731 3.10097 46.2731 4.17967C45.7825 4.36536 45.3062 4.49681 44.8751 4.71797C44.0046 5.16238 43.2614 5.74659 42.7872 6.65837C42.2842 7.62439 42.12 8.66136 41.9906 9.71919C41.966 9.92783 41.8818 10.1302 41.8264 10.3305C41.927 10.7374 42.081 11.1484 42.1179 11.5699C42.1651 12.0852 42.237 12.5901 42.3889 13.0825C42.4218 13.191 42.4731 13.2954 42.5306 13.3934C42.6722 13.6354 42.8447 13.8629 42.9637 14.1153C43.2532 14.7329 43.6802 15.2086 44.2633 15.5487C44.5178 15.6969 44.7478 15.8659 45.0619 15.8972C45.3123 15.9243 45.5546 16.0557 45.8358 16.1559C45.7927 16.3249 45.7599 16.4605 45.725 16.5982C45.9262 16.7081 46.0569 17.0078 46.1171 17.4975C46.076 17.5288 46.0309 17.5767 45.9734 17.6018C45.918 17.6268 45.8543 17.6289 45.7455 17.6519C45.996 17.7458 46.2546 17.7812 46.23 18.0629C46.2054 18.3654 45.957 18.4385 45.686 18.4405H45.688ZM41.0504 10.5913C40.6685 10.3764 40.3339 10.1886 39.9972 9.99877C39.7468 10.1351 39.6729 10.3326 39.7755 10.5913C40.1881 10.8208 40.5905 10.7624 41.0504 10.5913ZM39.6092 12.6694C39.601 12.6193 39.5948 12.5714 39.5866 12.5213C39.4614 12.5588 39.3362 12.5985 39.2109 12.636C39.215 12.6548 39.2192 12.6736 39.2233 12.6924C39.3526 12.684 39.4819 12.6778 39.6113 12.6694H39.6092ZM41.1941 13.3454C41.2064 13.3141 41.2208 13.2828 41.2331 13.2495C41.1962 13.2244 41.1592 13.1931 41.1202 13.1723C41.0771 13.1493 41.0299 13.1347 40.9847 13.1159C40.9703 13.1472 40.956 13.1806 40.9395 13.2119C41.0237 13.2557 41.1079 13.2995 41.192 13.3433L41.1941 13.3454Z" fill="white"/>
<path d="M9.69353 27.9904H8.0409C7.99368 27.4375 7.94646 26.8929 8.10043 26.3671C8.26262 25.8122 8.4905 25.2759 8.67731 24.7272C8.94215 23.9469 9.19055 23.1582 9.45128 22.3758C9.61757 21.8771 9.79207 21.3847 9.96041 20.8881C10.059 20.5939 10.1534 20.2977 10.2581 19.9764C9.6381 19.6968 9.88035 19.1376 9.90088 18.6828C9.91114 18.4616 9.96862 18.2571 9.89677 18.0297C9.85366 17.892 9.90293 17.7251 9.91319 17.5081C10.1616 17.6416 10.1082 17.8044 10.1246 17.9358C10.1472 18.1257 10.2417 18.1862 10.4059 18.1465C10.3382 17.8064 10.2766 17.4914 10.2088 17.143C10.0261 17.1179 9.80233 17.0804 9.93372 16.7006C10.0836 16.7298 10.2437 16.7611 10.4408 16.7987C10.4757 16.7695 10.5496 16.7048 10.6256 16.6401C10.5763 16.4878 10.5291 16.3376 10.4921 16.2228C11.0403 15.9391 11.5597 15.6783 12.0729 15.4029C12.6108 15.1128 12.9085 14.5871 13.3293 14.055H9.90498C9.85366 12.8365 9.87213 11.6806 9.88035 10.4768C10.0918 10.458 10.2663 10.4288 10.4408 10.4267C11.3113 10.4162 12.1797 10.4079 13.0501 10.41C13.1938 10.41 13.3416 10.4455 13.4812 10.4872C13.7317 10.5623 13.8487 10.7292 13.8405 11.0088C13.8261 11.5054 13.8364 12.004 13.8364 12.5507C13.976 12.5277 14.0704 12.511 14.1916 12.4923C14.1012 12.1835 13.8508 11.9206 14.1156 11.6243C14.1402 11.5972 14.0992 11.5012 14.0766 11.4407C13.9431 11.0777 14.0027 10.7543 14.2901 10.4413H18.1065C18.1332 10.8189 18.1517 11.1757 18.5212 11.3468C18.5253 11.6598 18.5869 11.9873 18.5212 12.2836C18.3734 12.9262 18.201 13.571 17.9649 14.1844C17.2032 16.154 15.9571 17.7334 14.1259 18.7808C13.5654 19.1 12.9516 19.3254 12.3501 19.5612C12.0996 19.6592 11.8183 19.6759 11.5556 19.8011C11.7116 19.8011 11.8676 19.8011 12.0257 19.8011C12.4342 19.8074 12.463 19.8261 12.5944 20.2038C12.8736 20.9987 13.1548 21.7957 13.4299 22.5928C13.8364 23.7695 14.2408 24.9484 14.6473 26.1251C14.8136 26.6071 14.9902 27.087 15.1585 27.571C15.1955 27.6753 15.2098 27.788 15.2427 27.9299C15.1277 27.9633 15.0394 28.0092 14.9491 28.0113C14.4564 28.0196 13.9637 28.0092 13.473 28.0217C13.2143 28.028 13.0706 27.9007 12.9988 27.6733C12.9044 27.3749 12.8161 27.0745 12.7422 26.7719C12.6477 26.3901 12.5779 26.3254 12.1694 26.3233C11.7424 26.3212 11.3154 26.3254 10.8883 26.3212C10.7611 26.3212 10.6358 26.2983 10.4962 26.2837C10.4819 26.0625 10.4716 25.8747 10.4531 25.5722C10.178 26.4527 9.93783 27.2205 9.69763 27.9883L9.69353 27.9904ZM10.7323 24.6667C11.2332 24.6396 11.6377 24.6166 12.0729 24.5916C11.8573 23.8133 11.652 23.0789 11.4201 22.2402C11.145 23.0956 10.9068 23.853 10.7323 24.6667ZM12.155 11.5408C12.2659 11.6827 12.311 11.7704 12.3808 11.8204C12.4363 11.8601 12.5225 11.8663 12.5944 11.8622C12.6251 11.8622 12.6826 11.7808 12.6744 11.7641C12.6334 11.6848 12.5903 11.5826 12.5184 11.5492C12.4424 11.5116 12.3357 11.5408 12.153 11.5408H12.155ZM10.5742 25.3469C10.5989 25.3469 10.6235 25.3469 10.6461 25.349V25.0005C10.6276 25.0005 10.6091 25.0005 10.5927 24.9984C10.5866 25.1153 10.5804 25.23 10.5742 25.3469Z" fill="white"/>
<path d="M27.5337 19.7888C27.4393 19.8159 27.3428 19.8347 27.2504 19.8681C26.9055 19.9975 26.6202 19.4028 26.2568 19.7826C25.9201 19.7283 25.5773 19.7012 25.2508 19.6073C25.1277 19.5718 25.0455 19.3861 24.9306 19.2526C24.791 19.2067 24.6247 19.1545 24.4563 19.0982C24.4276 19.0878 24.3907 19.0565 24.3722 19.0648C23.7419 19.3841 23.3395 18.8916 22.9105 18.6016C22.4403 18.2824 21.9805 17.9194 21.5986 17.4979C20.8329 16.655 20.0918 15.7808 19.7058 14.6687C19.5149 14.1179 19.3178 13.5691 19.1043 12.9599C19.3404 12.9307 19.5067 12.9098 19.673 12.8889C19.675 12.8681 19.6771 12.8472 19.6791 12.8263C19.5354 12.8159 19.3897 12.8055 19.2316 12.793C18.9893 12.5488 18.9175 12.2463 18.9154 11.8979C18.9113 11.5181 18.8354 11.1384 18.8169 10.7587C18.7984 10.3622 18.8025 9.96374 18.8128 9.56523C18.8169 9.38371 18.8703 9.20427 18.8785 9.02275C18.9503 7.61231 19.3897 6.30828 20.0138 5.06476C20.7795 3.53956 21.9784 2.46504 23.4463 1.6555C23.9636 1.36966 24.4871 1.09842 25.0497 0.973233C25.838 0.795885 26.6345 0.555943 27.4537 0.695735C27.6035 1.09842 27.6343 3.09306 27.5111 4.19471C27.1621 4.33659 26.7906 4.49516 26.4128 4.63912C25.3946 5.02512 24.6432 5.70738 24.0991 6.66506C23.6228 7.50382 23.4689 8.41977 23.3498 9.35241C23.3293 9.51724 23.3498 9.70293 23.278 9.84481C23.0193 10.3664 23.2882 10.8296 23.3991 11.3116C23.4319 11.4555 23.4956 11.6099 23.473 11.7497C23.395 12.2651 23.5489 12.7679 23.7358 13.1894C24.0314 13.857 24.4276 14.5205 24.9265 15.0442C25.3227 15.4615 25.8175 15.8913 26.4806 15.9143C26.5729 15.9185 26.6633 15.9811 26.7557 16.0186C27.197 16.1897 27.2053 16.2168 26.9445 16.6425C27.0718 16.6758 27.195 16.7071 27.3408 16.7468C27.3736 16.9951 27.4044 17.2392 27.4393 17.5104C27.3223 17.5605 27.2073 17.6085 27.0595 17.6732C27.2997 17.7337 27.5399 17.7921 27.5194 18.0884C27.4968 18.3846 27.2771 18.4514 27.0082 18.4493C26.9733 18.6183 26.9404 18.7769 26.9014 18.9709C26.7413 19.0064 26.5709 19.044 26.3841 19.0857C26.3779 19.1796 26.3718 19.2756 26.3656 19.3528C26.4724 19.43 26.7721 19.2004 27.429 18.5766C27.5358 18.7505 27.5652 19.1594 27.5173 19.8034L27.5296 19.7888H27.5337ZM22.3521 10.6084C22.0852 10.4478 21.8491 10.3372 21.65 10.1807C21.4118 9.99295 21.2045 9.94079 20.9786 10.1849C20.9992 10.2934 21.0156 10.4061 21.0402 10.5187C21.0464 10.55 21.069 10.5772 21.0833 10.6043C21.4351 10.6975 21.8587 10.6989 22.3541 10.6084H22.3521ZM22.658 13.3417C22.4937 13.1831 22.4034 13.0976 22.2597 12.9599C22.2371 13.2562 22.2925 13.3793 22.658 13.3417ZM25.8421 17.0264C25.8462 17.0514 25.8503 17.0744 25.8524 17.0994C25.9406 17.0869 26.0289 17.0744 26.1172 17.0618C26.1131 17.0326 26.1069 17.0034 26.1028 16.9742C26.0166 16.9909 25.9283 17.0097 25.8421 17.0264ZM20.4859 12.6365C20.49 12.6573 20.4921 12.6782 20.4962 12.6991C20.6091 12.6866 20.722 12.6719 20.8349 12.6594C20.8308 12.6344 20.8267 12.6094 20.8226 12.5843L20.4859 12.6386V12.6365ZM20.9561 13.6734C20.9561 13.6734 20.9396 13.6922 20.9294 13.7006C20.9478 13.7131 20.9684 13.7277 20.9889 13.736C20.993 13.736 21.0053 13.7193 21.0135 13.7089C20.9951 13.6964 20.9745 13.6839 20.9561 13.6734Z" fill="white"/>
<path d="M7.61596 19.8054C7.49688 19.7574 7.37987 19.6906 7.25669 19.6635C7.05139 19.6176 6.88921 19.5926 6.74961 19.3547C6.65107 19.1878 6.31028 19.169 6.07624 19.0856C5.73545 19.4048 5.43572 19.0981 5.18731 18.9604C4.50162 18.5807 3.86931 18.1008 3.33144 17.527C2.88184 17.0471 2.46919 16.5213 2.10993 15.9705C1.7445 15.4072 1.3955 14.823 1.23331 14.149C1.16557 13.8653 1.04649 13.592 0.950006 13.3145C0.826828 12.9556 0.851464 12.9222 1.221 12.9076C1.28053 12.9055 1.34007 12.9076 1.40576 12.8304C1.2559 12.82 1.10603 12.8095 0.935635 12.797C0.73034 12.5341 0.635904 12.2316 0.650274 11.8832C0.660539 11.6682 0.650274 11.4513 0.621533 11.2384C0.496302 10.3058 0.559944 9.37315 0.652327 8.44886C0.740604 7.57255 0.9808 6.72545 1.35444 5.92843C1.61106 5.37761 1.8841 4.83304 2.18383 4.30309C2.3337 4.03811 2.54721 3.80442 2.75045 3.57283C3.58395 2.62558 4.57142 1.87237 5.71697 1.37163C6.27332 1.12751 6.83378 0.847927 7.48046 0.841668C7.88284 0.837495 8.28522 0.714394 8.68965 0.666406C8.8621 0.645542 9.04071 0.687271 9.20289 0.697703C9.33633 1.14212 9.35892 2.94063 9.25421 4.18207C8.83131 4.34273 8.3735 4.49713 7.93211 4.69116C7.15199 5.03334 6.5012 5.55913 6.05366 6.29147C5.48704 7.21577 5.10724 8.21309 5.08466 9.32934C5.07645 9.66734 4.94916 10.0033 4.88758 10.2849C4.99022 10.8691 5.11956 11.4158 5.17294 11.9708C5.22837 12.5404 5.37207 13.0641 5.66154 13.5502C5.78061 13.7484 5.92021 13.9362 6.0167 14.1449C6.31643 14.8 6.79888 15.282 7.41066 15.6179C7.7494 15.8036 8.13535 15.8954 8.50078 16.0289C8.78683 16.1332 8.8532 16.3349 8.69992 16.634C9.30143 16.6966 9.07766 17.1577 9.1372 17.5207C9.02634 17.5708 8.92779 17.6146 8.89289 17.6292C9.01197 17.7607 9.2419 17.9026 9.25216 18.057C9.27064 18.3428 8.99554 18.4325 8.74919 18.4576C8.71839 18.6307 8.69376 18.7768 8.66091 18.9541C8.49462 18.9959 8.32628 19.0355 8.13741 19.0835C8.1333 19.1795 8.12919 19.2734 8.12304 19.3881C8.36734 19.2692 8.59522 19.192 8.78203 19.0543C8.95243 18.9312 8.92574 18.6099 9.23574 18.5431C9.38971 18.9312 9.30349 19.3109 9.25216 19.6719C9.22342 19.8826 8.94011 19.9264 8.80256 19.845C8.4433 19.6343 8.10456 19.6948 7.74734 19.8054C7.70423 19.8179 7.65086 19.795 7.60158 19.7887L7.61596 19.8012V19.8054ZM2.77508 10.5812C3.237 10.7773 3.66401 10.7732 4.13414 10.5875C3.82825 10.4289 3.55521 10.3204 3.31706 10.1577C3.09329 10.0053 2.90853 9.99074 2.69091 10.1931C2.71965 10.3204 2.75045 10.4602 2.77714 10.5812H2.77508ZM4.28811 13.3416C4.20805 13.2268 4.13004 13.1162 4.00686 12.941C3.97196 13.2727 4.03355 13.4 4.28811 13.3416ZM2.6129 12.6593C2.6129 12.6322 2.60879 12.6051 2.60674 12.5759C2.48562 12.5905 2.36655 12.6051 2.24542 12.6197C2.24542 12.6322 2.24953 12.6447 2.25158 12.6593H2.61085H2.6129ZM0.960271 11.6703C0.986959 11.6536 1.02391 11.6432 1.03007 11.6223C1.03623 11.6036 1.00954 11.5744 0.997224 11.5493C0.96643 11.5702 0.935635 11.589 0.904841 11.6098C0.923317 11.6307 0.941794 11.6495 0.958218 11.6682L0.960271 11.6703ZM2.7874 13.7025C2.76277 13.6921 2.73813 13.6796 2.71144 13.6733C2.70734 13.6733 2.69707 13.6963 2.69091 13.7109C2.71555 13.7213 2.74018 13.7338 2.76687 13.7422C2.77098 13.7422 2.78124 13.7192 2.78945 13.7046L2.7874 13.7025ZM7.58516 17.0221L7.6098 17.1243C7.67754 17.1014 7.74529 17.0784 7.81099 17.0555C7.80277 17.0304 7.79456 17.0054 7.78635 16.9803C7.7186 16.9949 7.65086 17.0096 7.58516 17.0242V17.0221Z" fill="white"/>
<path d="M51.773 9.39175C51.5923 9.32915 51.4117 9.26656 51.1468 9.17476C50.8553 8.82841 50.8635 8.37356 51.0545 7.94375C50.7301 7.38458 50.4345 6.85463 50.1204 6.33927C49.4922 5.30857 48.5601 4.71602 47.4043 4.48233C46.9444 4.38844 46.8151 4.26743 46.8131 3.79381C46.809 2.91124 46.8069 2.02659 46.8131 1.14402C46.8172 0.703777 46.8603 0.647443 47.2996 0.664134C47.6732 0.67874 48.0448 0.74342 48.4144 0.808099C48.751 0.86652 49.0939 0.920768 49.4183 1.02926C51.5698 1.74491 53.2758 3.03851 54.3987 5.06445C54.4952 5.23763 54.5856 5.42124 54.6307 5.6111C54.682 5.81975 54.7395 6.00336 54.8586 6.19322C55.1953 6.72735 55.1706 6.99024 54.8545 7.61618C55.5443 7.84986 55.6798 8.51544 55.1994 9.31038C55.5648 9.54197 55.6326 9.87998 55.4581 10.6478H55.0906C55.1542 10.821 55.1645 11.015 55.2651 11.1047C55.6716 11.4719 55.5587 11.9393 55.4724 12.3524C55.341 12.9804 55.1542 13.6043 54.9181 14.201C54.1483 16.1456 52.9535 17.7563 51.1119 18.7641C50.0834 19.3274 48.9974 19.7969 47.7985 19.8678C47.4946 19.8866 47.1867 19.8532 46.9013 19.8449C46.7597 19.2544 46.7987 17.7814 46.9465 17.5059C47.1395 17.5811 47.0717 17.7521 47.0799 17.8898C47.0923 18.063 47.1415 18.1757 47.3448 18.1402C47.2811 17.8293 47.2195 17.5331 47.1497 17.1867C47.0225 17.1074 46.7043 17.0887 46.8644 16.7527C47.0676 16.5211 47.3735 17.0156 47.5501 16.6192C47.5131 16.4794 47.468 16.3167 47.4392 16.2061C47.9524 15.9411 48.4144 15.7053 48.8722 15.4633C49.2253 15.2776 49.525 15.0439 49.7488 14.6892C49.911 14.4326 50.1696 14.2386 50.3832 14.0132C50.4365 13.9569 50.5063 13.8964 50.5269 13.8254C50.611 13.5313 50.6562 13.2225 50.7609 12.9366C50.8245 12.7655 50.9744 12.6278 51.1263 12.4192C51.114 12.3858 51.0709 12.2836 51.036 12.1792C51.0052 12.0874 50.9292 11.9539 50.9641 11.9038C51.1222 11.6785 50.9867 11.4281 51.0565 11.2028C51.229 10.6457 51.1325 10.0886 51.0668 9.50233C51.2536 9.2457 51.5431 9.42722 51.7812 9.37297C51.7751 9.85285 51.9085 9.91962 52.5039 9.72766C52.5613 9.56909 52.5039 9.4752 52.3417 9.45225C52.1507 9.42513 51.9598 9.40844 51.7689 9.38549L51.773 9.39175ZM52.742 8.04599C52.7276 8.07311 52.7133 8.10024 52.7009 8.12736C52.8508 8.32349 52.9842 8.5363 53.1546 8.71157C53.2737 8.83467 53.4318 8.74286 53.5837 8.47371C53.3476 8.42364 53.0931 8.40903 53.0089 8.11275C52.9966 8.06894 52.8344 8.06685 52.742 8.04599ZM54.1996 7.86447C54.1996 7.86447 54.1996 7.85821 54.1996 7.85612H53.9861C53.9861 7.85612 53.9861 7.86238 53.9861 7.86447H54.1996Z" fill="white"/>
<path d="M67.1311 19.7989C67.6998 19.7989 68.2685 19.7843 68.8351 19.8031C69.2683 19.8177 69.7158 19.705 70.1346 19.947C70.2106 19.9909 70.3687 19.8719 70.4918 19.8427C70.9599 19.728 71.0872 19.826 71.0975 20.3101C71.1036 20.6105 71.1077 20.9089 71.1057 21.2093C71.1057 21.4305 70.9887 21.5453 70.769 21.5453C70.7361 21.5453 70.7033 21.5473 70.6704 21.5473C68.8987 21.5453 67.127 21.5432 65.3553 21.539C65.2917 21.539 65.226 21.5202 65.1665 21.5119C64.9632 20.9006 65.1131 20.6481 65.6202 20.7462C65.6243 20.4165 65.3594 20.4812 65.1541 20.4415C65.1418 20.3539 65.0926 20.2517 65.1254 20.2016C65.3348 19.8845 65.2835 19.5381 65.2794 19.1897C65.2732 18.7098 65.2917 18.232 65.3102 17.7521C65.3143 17.6686 65.3718 17.5852 65.4026 17.5038C65.729 17.6102 65.3738 18.1444 65.8439 18.1548C65.7865 17.8815 65.7475 17.6415 65.6818 17.4099C65.6551 17.316 65.5791 17.1992 65.497 17.1658C65.2486 17.0677 65.3204 16.8987 65.343 16.663C65.5422 16.7089 65.7064 16.7464 65.8788 16.7882C65.9261 16.7464 65.9876 16.6922 66.0431 16.6421C65.9959 16.4752 65.9507 16.3125 65.8973 16.1163C67.1127 15.7971 68.0303 15.1336 68.7304 14.0466H65.3204C65.2486 12.8302 65.3656 11.6743 65.3287 10.4746C65.5976 10.4454 65.8214 10.4015 66.0451 10.4015C66.8827 10.4015 67.7183 10.4057 68.5559 10.4203C69.1472 10.4308 69.2724 10.5643 69.2785 11.1694C69.2826 11.5512 69.2744 11.9351 69.2826 12.3169C69.2847 12.463 69.3381 12.584 69.5701 12.4901C69.5146 12.3419 69.3976 12.1875 69.4181 12.054C69.4756 11.6785 69.3894 11.3091 69.414 10.9398C69.4346 10.6039 69.6707 10.4015 69.995 10.3995C71.0626 10.3932 72.128 10.3953 73.1956 10.3995C73.3064 10.3995 73.4152 10.4349 73.5405 10.4579C73.5754 10.8084 73.6472 11.1151 73.9305 11.3467C74.0127 11.4135 74.0209 11.6305 73.9983 11.7682C73.9018 12.3378 73.8156 12.9136 73.6575 13.4665C73.3434 14.5682 72.8014 15.5676 72.1588 16.5044C71.6518 17.2451 70.9804 17.821 70.2475 18.3259C69.4797 18.8537 68.6668 19.294 67.784 19.5882C67.5705 19.6591 67.3467 19.6967 67.1291 19.7488V19.801L67.1311 19.7989ZM67.6485 11.6597C67.7717 11.7285 67.8969 11.7995 68.0201 11.8683C68.0488 11.8141 68.1104 11.7515 68.0981 11.7077C68.0386 11.4802 67.8723 11.5199 67.6485 11.6597Z" fill="white"/>
<path d="M33.5571 21.898C33.4873 22.09 33.4175 22.2819 33.3395 22.4947C33.3683 22.4989 33.4339 22.4968 33.4873 22.5218C33.6187 22.5803 33.8055 22.6157 33.861 22.7221C34.0314 23.0435 34.2572 23.3877 34.2716 23.732C34.329 25.0924 34.3147 26.4569 34.327 27.8214C34.327 27.8527 34.3044 27.884 34.2716 27.9758C33.7029 28.0593 33.1075 28.0009 32.467 28.0009C32.4526 27.8047 32.43 27.6441 32.43 27.4855C32.43 26.0542 32.4362 24.6208 32.4342 23.1895C32.4342 22.9266 32.4711 22.7138 32.8078 22.67C32.699 22.6387 32.5902 22.6074 32.4383 22.5636C32.4383 21.946 32.3993 21.3305 32.4567 20.7233C32.4814 20.4625 32.6702 20.2205 32.4239 19.9117C32.5963 19.8637 32.7134 19.8095 32.8324 19.8032C33.0788 19.7907 33.3313 19.8428 33.5694 19.8032C34.1463 19.701 34.4419 20.0348 34.6862 20.4792C34.988 21.028 35.298 21.5746 35.5916 22.1275C35.7948 22.5072 36.0186 22.8682 36.2691 23.2187C36.5236 23.5776 36.7248 23.9782 36.9507 24.36C36.9835 24.4163 37.0287 24.4643 37.1231 24.5874C37.1416 24.3997 37.1642 24.2828 37.1621 24.166C37.156 22.8849 37.1457 21.6017 37.1395 20.3206C37.1375 19.8888 37.1868 19.8303 37.6097 19.8136C37.9546 19.8011 38.2995 19.8053 38.6423 19.8011C38.901 19.7969 39.0426 19.918 39.0488 20.1871C39.0508 20.304 39.0632 20.4208 39.0632 20.5356C39.0632 22.6512 39.0632 24.7648 39.0632 26.8804C39.0632 26.9952 39.0488 27.112 39.0406 27.2518C38.9297 27.2685 38.825 27.2831 38.6936 27.304C38.7922 27.5043 38.8804 27.6879 38.9975 27.9278C38.823 27.9675 38.7039 28.0134 38.5848 28.0176C38.3056 28.0301 38.0244 27.9967 37.7493 28.0322C37.3469 28.0822 37.1108 27.9007 36.9219 27.5648C36.7043 27.1767 36.4477 26.8116 36.228 26.4256C35.5854 25.2968 34.9531 24.1618 34.3167 23.0309C34.2202 22.8599 33.9636 22.7221 34.1853 22.4968C33.9698 22.3007 33.7583 22.1066 33.5448 21.9126C33.4996 21.8333 33.4565 21.754 33.4114 21.6748C33.3888 21.7019 33.3641 21.729 33.3416 21.754C33.4134 21.802 33.4853 21.85 33.5592 21.898H33.5571ZM35.4171 22.8932C35.1557 22.8334 34.9477 22.8703 34.793 23.0038C35.0311 22.9621 35.2241 22.9266 35.4171 22.8932ZM38.1311 26.4172C38.1557 26.4089 38.1824 26.4006 38.2071 26.3901C38.1845 26.3254 38.1599 26.2608 38.1352 26.1961C38.1126 26.2044 38.0901 26.2128 38.0675 26.2211C38.088 26.2858 38.1085 26.3526 38.1291 26.4172H38.1311Z" fill="white"/>
<path d="M69.9293 8.1629C69.6009 7.8854 69.3011 7.64337 69.102 7.21983C68.675 6.30596 68.1022 5.47555 67.1722 4.98107C66.7513 4.75782 66.3367 4.53665 65.8522 4.47823C65.4149 4.42607 65.2814 4.26959 65.2773 3.82517C65.2691 2.9593 65.2712 2.09342 65.2773 1.22755C65.2773 1.0648 65.3184 0.902061 65.343 0.712194C65.8049 0.601612 66.2504 0.660033 66.6774 0.72054C67.4206 0.826949 68.1268 1.07315 68.8228 1.3736C69.6419 1.72621 70.3543 2.2353 71.04 2.77986C71.4588 3.11161 71.8119 3.54142 72.1506 3.96288C72.5078 4.40938 72.8568 4.87257 73.0478 5.43174C73.136 5.69046 73.2551 5.94083 73.3537 6.19538C73.4378 6.41237 73.3126 6.54382 73.1463 6.63771C72.8343 6.81088 72.5202 6.98406 72.1958 7.13637C71.4567 7.48063 70.7115 7.81029 69.9273 8.16499L69.9293 8.1629Z" fill="white"/>
<path d="M100.352 4.41341C99.5658 4.41341 98.7795 4.43845 97.9933 4.40298C97.6135 4.38629 97.2501 4.3383 96.8559 4.39046C96.2606 4.46975 95.6447 4.41967 95.0411 4.38212C94.495 4.34873 94.4191 4.24858 94.4191 3.71028C94.4191 2.8611 94.4191 2.01191 94.4314 1.16273C94.4375 0.760043 94.4868 0.69119 94.8748 0.659893C95.2156 0.632769 95.5605 0.664066 95.9054 0.659893C97.0674 0.647375 98.2294 0.628596 99.3893 0.620251C100.537 0.611905 101.684 0.613991 102.83 0.620251C103.368 0.622337 103.503 0.764216 103.505 1.30043C103.51 2.08285 103.51 2.86527 103.505 3.64769C103.501 4.16304 103.321 4.37168 102.81 4.40507C102.401 4.43219 101.99 4.41341 101.58 4.4155C101.169 4.4155 100.759 4.4155 100.35 4.4155L100.352 4.41341Z" fill="white"/>
<path d="M64.9714 27.9485C64.801 27.9818 64.6922 28.0215 64.5834 28.0236C64.1071 28.0298 63.6329 28.034 63.1566 28.0236C62.8138 28.0173 62.6927 27.9005 62.6147 27.5687C62.5428 27.2641 62.4874 26.9491 62.3786 26.659C62.3293 26.5297 62.1651 26.3648 62.048 26.3586C61.348 26.3315 60.6459 26.344 59.913 26.344C59.7959 26.7467 59.6728 27.1368 59.5701 27.5291C59.4695 27.9067 59.3505 28.0173 58.9583 28.0236C58.6463 28.0277 58.3342 28.0194 58.0242 28.0257C57.7758 28.0319 57.6834 27.9213 57.665 27.6689C57.6136 26.9428 57.7532 26.2584 58.0037 25.5783C58.3404 24.6644 58.6278 23.7338 58.9399 22.8116C59.2191 21.9896 59.4654 21.155 59.7939 20.3538C60.0464 19.7383 59.9047 19.7946 60.6048 19.7904C60.999 19.7884 61.3911 19.7946 61.7853 19.8009C62.1404 19.8071 62.1917 19.851 62.3129 20.1973C62.629 21.0966 62.9534 21.9916 63.2593 22.893C63.4954 23.592 63.6945 24.3034 63.9388 24.9982C64.179 25.6826 64.4623 26.3523 64.7128 27.0325C64.8134 27.3079 64.875 27.5958 64.9735 27.9422L64.9714 27.9485ZM60.3872 24.6811C60.921 24.6435 61.3439 24.6143 61.7812 24.5851C61.5533 23.7881 61.3439 23.0578 61.1098 22.2399C60.769 23.0599 60.652 23.859 60.3892 24.6811H60.3872Z" fill="white"/>
<path d="M14.5221 8.12761C14.1177 7.89393 13.8487 7.58513 13.6516 7.15324C13.0789 5.90137 12.1674 4.9875 10.8494 4.54309C10.6954 4.49093 10.5311 4.47006 10.371 4.43668C9.98095 4.35531 9.86599 4.23012 9.86393 3.83787C9.85983 2.93861 9.85777 2.03935 9.86393 1.13801C9.86804 0.716544 9.91526 0.653951 10.3135 0.666469C11.1984 0.69568 12.0668 0.814607 12.8777 1.21938C13.2513 1.40507 13.6722 1.49896 14.0355 1.70343C15.5958 2.58392 16.846 3.78154 17.6097 5.44652C17.7185 5.68438 17.8171 5.9264 17.9156 6.16843C17.9875 6.34578 17.9628 6.4814 17.7699 6.57529C17.4517 6.73386 17.1478 6.9279 16.8255 7.07812C16.0577 7.43699 15.2837 7.77917 14.52 8.12344L14.5221 8.12761Z" fill="white"/>
<path d="M102.707 11.4908C102.504 11.5096 102.36 11.5325 102.218 11.5325C100.215 11.5367 98.2109 11.543 96.2092 11.5346C96.0265 11.5346 95.8438 11.4387 95.6878 11.3948C95.4127 11.447 95.1478 11.5284 94.881 11.5388C94.5689 11.5513 94.4252 11.4366 94.4375 11.1361C94.4683 10.3454 94.2774 9.54208 94.5545 8.76383C94.5771 8.70124 94.5381 8.60943 94.5135 8.53641C94.4437 8.32568 94.3698 8.10869 94.61 7.96055C94.805 7.83953 94.9795 7.9376 95.2238 8.31316C95.2218 7.94386 95.4106 7.88126 95.6878 7.88335C97.79 7.88961 99.8922 7.88335 101.994 7.88335C102.093 7.88335 102.192 7.88335 102.29 7.90004C102.635 7.95429 102.74 8.06278 102.744 8.43C102.75 9.14565 102.744 9.86339 102.738 10.579C102.736 10.8732 102.721 11.1674 102.711 11.4887L102.707 11.4908ZM101.292 9.02255C101.259 9.06011 101.229 9.09558 101.196 9.13313C101.303 9.20616 101.335 9.39602 101.623 9.31257C101.481 9.18947 101.387 9.10601 101.292 9.02255Z" fill="white"/>
<path d="M56.8212 20.352C56.8787 20.521 56.9074 20.7004 56.9937 20.8423C57.3653 21.4411 57.4802 22.1025 57.4864 22.791C57.4946 23.54 57.511 24.2912 57.4802 25.0402C57.4576 25.5973 57.4289 26.1564 57.1394 26.676C56.7514 27.3708 56.2135 27.8381 55.4396 27.9633C54.7272 28.0781 54.0066 28.0447 53.2696 27.9904C53.1218 27.5085 53.2019 27.0432 53.2244 26.5883C53.2285 26.4986 53.4195 26.363 53.5385 26.3442C53.7787 26.3067 54.0313 26.3129 54.2735 26.3421C54.8997 26.4152 55.4211 26.0271 55.4416 25.3949C55.4724 24.3788 55.4704 23.3627 55.4601 22.3466C55.456 21.9105 55.0844 21.5517 54.641 21.5224C54.2981 21.4995 53.9512 21.5058 53.6083 21.487C53.2778 21.4682 53.1957 21.3973 53.1813 21.0718C53.1649 20.6754 53.1772 20.2789 53.1772 19.8449C53.7089 19.7385 54.1832 19.8032 54.6492 19.7761C55.2774 19.7385 55.8296 19.9993 56.388 20.2351C56.5235 20.2935 56.6755 20.3144 56.8192 20.352H56.8212Z" fill="white"/>
<path d="M42.9802 20.644C42.9802 20.7776 42.9884 20.9111 42.9802 21.0426C42.9617 21.2867 42.8221 21.4536 42.5983 21.5037C41.9783 21.6434 41.6252 22.0795 41.3953 22.6262C41.1612 23.1791 41.0299 23.7737 41.1551 24.3683C41.2967 25.0423 41.4507 25.7371 42.0994 26.1439C42.1672 26.1856 42.2288 26.267 42.2965 26.2712C42.742 26.3067 42.8139 26.6426 42.8816 26.9868C42.9001 27.0849 42.9268 27.1809 42.9309 27.2789C42.9596 27.98 42.7667 28.1427 42.083 27.9779C41.8326 27.9174 41.5677 27.8631 41.346 27.738C40.3914 27.1976 39.6872 26.4611 39.408 25.3302C39.2643 24.7481 39.2479 24.1722 39.2068 23.588C39.1473 22.7534 39.447 22.0044 39.9007 21.3722C40.3667 20.7233 40.9806 20.1746 41.8161 19.9993C42.0379 19.9534 42.2534 19.8595 42.4772 19.8345C42.8857 19.7886 42.9658 19.8721 42.9884 20.2914C42.9945 20.4083 42.9884 20.5251 42.9884 20.6399C42.9863 20.6399 42.9822 20.6399 42.9802 20.6399V20.644Z" fill="white"/>
<path d="M19.1679 20.6379C19.1679 20.7714 19.17 20.905 19.1679 21.0385C19.1618 21.2868 19.016 21.4621 18.8004 21.508C18.1045 21.6519 17.7699 22.1589 17.5256 22.7577C17.2012 23.5527 17.2546 24.3622 17.5317 25.1488C17.7226 25.685 18.0409 26.1441 18.6383 26.3047C18.7594 26.3381 19.0591 26.7762 19.0755 26.9369C19.1022 27.1935 19.1228 27.4481 19.1453 27.7047C19.1597 27.8633 19.092 27.9864 18.9359 27.9801C18.6485 27.9676 18.3611 27.9363 18.0778 27.8821C17.8581 27.8403 17.6385 27.7694 17.4352 27.6776C16.8522 27.4126 16.4765 26.9119 16.0967 26.4174C15.5465 25.7017 15.4767 24.8484 15.3966 23.995C15.2981 22.9518 15.6409 22.0317 16.224 21.2054C16.6017 20.6713 17.1273 20.2957 17.7473 20.0808C18.0388 19.9786 18.3344 19.8701 18.6383 19.8242C19.092 19.7553 19.1597 19.8325 19.1741 20.2853C19.1782 20.4021 19.1741 20.519 19.1741 20.6358H19.1679V20.6379Z" fill="white"/>
<path d="M24.8567 27.9758H23.0254C23.0111 27.7901 22.9844 27.6127 22.9844 27.4374C22.9803 25.1424 22.9803 22.8473 22.9803 20.5501C22.9803 20.4833 22.9803 20.4166 22.9803 20.3498C22.9906 19.8136 23.009 19.7969 23.5469 19.7969C23.9698 19.7969 24.3948 19.7969 24.8628 19.7969C24.8895 20.018 24.9326 20.1933 24.9306 20.3686C24.9244 22.7972 24.9121 25.2258 24.8998 27.6544C24.8998 27.7358 24.8772 27.8172 24.8546 27.9758H24.8567Z" fill="white"/>
<path d="M32.0543 28.0048C31.498 28.0048 30.9765 28.0111 30.4571 28.0027C30.26 27.9985 30.1677 27.8754 30.1779 27.671C30.2067 26.9929 30.2436 26.3169 30.2518 25.6388C30.2559 25.2778 30.1882 24.9148 30.1861 24.5538C30.1759 23.1705 30.1779 21.7872 30.1759 20.4039C30.1759 20.3037 30.18 20.2036 30.1861 20.1034C30.2005 19.9073 30.297 19.8009 30.5002 19.8009C30.9108 19.8009 31.3214 19.7884 31.732 19.803C32.04 19.8134 32.0872 19.8718 32.0974 20.2078C32.1098 20.575 32.1036 20.9401 32.1036 21.3073C32.1036 23.206 32.1036 25.1067 32.1015 27.0054C32.1015 27.3038 32.0769 27.6021 32.0584 28.0048H32.0543Z" fill="white"/>
<path d="M7.60363 19.793C7.62005 20.1581 7.6529 20.5211 7.6529 20.8863C7.64674 22.134 7.6221 23.3817 7.62005 24.6294C7.62005 25.3596 7.64674 26.092 7.657 26.8222C7.66316 27.1853 7.657 27.5483 7.657 27.9531C7.0637 28.0198 6.52582 28.0198 5.99206 27.9823C5.90994 27.976 5.77444 27.8091 5.77239 27.7173C5.76623 27.0392 5.78676 26.3611 5.80113 25.683C5.80113 25.6204 5.84014 25.5578 5.83193 25.4973C5.63689 24.041 5.77855 22.5763 5.74365 21.1158C5.73338 20.7047 5.75391 20.2937 5.76007 19.8138C6.41702 19.8097 7.01648 19.8076 7.61594 19.8055L7.60157 19.793H7.60363Z" fill="white"/>
<path d="M53.0294 27.9801H51.1674V19.818C51.6868 19.7658 52.2062 19.7408 52.7173 19.8346C52.8487 19.8576 52.9719 20.0662 53.0438 20.2165C53.0971 20.325 53.0622 20.4773 53.0622 20.6108C53.0622 21.46 53.0479 22.3071 53.0663 23.1563C53.0828 23.8594 52.9822 24.5563 53.0479 25.2636C53.1115 25.9563 53.0643 26.6594 53.0602 27.3584C53.0602 27.5524 53.0417 27.7465 53.0294 27.9822V27.9801Z" fill="white"/>
<path d="M1.29695 27.4251C1.25384 27.3103 1.20867 27.1977 1.16556 27.0829C1.1245 27.085 1.08344 27.0871 1.04444 27.0892C0.997218 27.3291 0.952053 27.567 0.904835 27.809C0.500403 27.8361 0.444973 27.809 0.430602 27.4209C0.40802 26.7741 0.403914 26.1252 0.410073 25.4763C0.420338 24.4623 0.447026 23.4504 0.461397 22.4364C0.46345 22.2549 0.430602 22.0733 0.422391 21.8918C0.40802 21.5622 0.38749 21.2304 0.646163 20.9446C0.342325 20.64 0.391596 20.2665 0.451132 19.8951C0.701593 19.8228 0.944526 19.8582 1.17993 20.0015C1.43655 19.6948 1.77118 19.7866 2.08529 19.8388C2.31522 19.8784 2.3029 20.0996 2.30495 20.2832C2.31316 20.882 2.31932 21.4787 2.32343 22.0775C2.32548 22.476 2.33985 22.8766 2.31932 23.2751C2.307 23.4838 2.18999 23.6883 2.18999 23.8948C2.18999 24.0993 2.31111 24.3038 2.31522 24.5082C2.32959 25.4889 2.32343 26.4695 2.31932 27.4501C2.31932 27.6462 2.33985 27.9091 2.10992 27.9571C1.90257 28.0009 1.65622 27.9571 1.44887 27.8841C1.23331 27.809 1.32159 27.5732 1.30516 27.4C1.36675 27.4209 1.42834 27.4418 1.48993 27.4626L1.49609 27.4167C1.43245 27.4188 1.36675 27.423 1.30311 27.4251H1.29695ZM1.04854 20.4313C0.995166 20.3666 0.966424 20.304 0.941789 20.3061C0.884306 20.3103 0.828876 20.3458 0.771393 20.3687C0.80424 20.4146 0.830929 20.4856 0.874041 20.5002C0.913047 20.5127 0.972583 20.4626 1.04649 20.4313H1.04854Z" fill="white"/>
<path d="M68.9891 28.0216C68.482 28.0216 67.9914 28.0216 67.5028 28.0216C67.2646 28.0216 67.1373 27.9068 67.1394 27.6564C67.1394 27.3894 67.1291 27.1244 67.1353 26.8573C67.1537 25.9601 67.1907 25.063 67.1969 24.1658C67.201 23.5691 67.1558 22.9724 67.1476 22.3777C67.1435 22.167 67.1825 21.9563 67.203 21.7163H68.985C69.1225 22.3819 69.1369 27.4916 68.9911 28.0195L68.9891 28.0216Z" fill="white"/>
<path d="M43.4831 26.3526C43.9451 26.2691 44.2345 25.9875 44.4911 25.5764C44.216 25.614 43.9943 25.6682 43.7726 25.6703C43.3066 25.6745 43.1506 25.5117 43.1444 25.0506C43.1403 24.817 43.1506 24.5833 43.1526 24.3517C43.1567 24.1097 43.2655 23.9845 43.516 23.9886C43.7459 23.9928 43.9759 23.9761 44.2058 23.9782C44.8114 23.9824 44.8401 24.0095 44.9079 24.6772C44.9387 24.4205 44.9592 24.2369 44.988 23.9845C45.5053 23.9845 45.9919 23.9719 46.4784 23.9949C46.579 23.9991 46.7042 24.118 46.7679 24.2182C46.928 24.4748 46.9157 24.7773 46.8233 25.0402C46.5954 25.6933 46.3491 26.3526 45.8625 26.8596C45.2569 27.4897 44.5486 27.9529 43.6515 28.0113C43.1752 28.0426 43.0377 27.8402 43.1773 27.3666C43.2737 27.0411 43.3723 26.7156 43.479 26.3526H43.4831Z" fill="white"/>
<path d="M50.7362 22.9623C51.036 23.3357 50.9559 23.7781 50.9272 24.2037C50.9128 24.4269 50.7424 24.5438 50.5166 24.55C49.8453 24.5646 49.1739 24.5793 48.5026 24.5918C48.1598 24.598 47.8169 24.6106 47.4741 24.598C47.0799 24.5834 47.0183 24.5125 47.0101 24.1223C47.0019 23.7447 47.0101 23.367 47.0101 23.0102C47.4371 22.883 50.1286 22.8621 50.7383 22.9643L50.7362 22.9623Z" fill="white"/>
<path d="M22.7688 22.3089C22.3562 22.5405 21.9784 22.768 21.5863 22.9641C21.3708 23.0726 21.1675 23.0058 21.0279 22.7951C20.9273 22.6449 20.8206 22.4946 20.7364 22.3361C20.4798 21.8478 20.0815 21.5787 19.5457 21.5077C19.4985 21.5015 19.4554 21.4723 19.3773 21.441C19.2644 20.9799 19.3096 20.5 19.3404 20.0243C19.3527 19.8302 19.5252 19.7843 19.673 19.8156C20.0055 19.8887 20.3484 19.9533 20.6584 20.089C21.6356 20.5146 22.4301 21.1405 22.7709 22.3089H22.7688Z" fill="white"/>
<path d="M46.5605 22.3239C46.1581 22.5388 45.7475 22.7704 45.3267 22.9811C45.1666 23.0604 45.0023 23.0124 44.8833 22.8684C44.8011 22.7683 44.7149 22.6639 44.6615 22.5471C44.3823 21.9253 43.9019 21.5832 43.2163 21.4747C43.0746 20.951 43.1588 20.4273 43.1649 19.9224C44.2961 19.5155 46.1294 20.8112 46.5626 22.3239H46.5605Z" fill="white"/>
<path d="M103.69 28.0282C103.14 28.0282 102.604 28.0282 102.068 28.0282C101.496 28.0282 100.925 28.0199 100.352 28.024C99.9087 28.0282 99.8019 27.9322 99.8122 27.4711C99.8163 27.2604 99.8409 27.0517 99.8676 26.841C99.8799 26.7409 100.327 26.3799 100.44 26.3903C100.791 26.4216 101.132 26.359 101.479 26.3173C101.621 26.3006 101.787 26.3006 101.912 26.357C102.136 26.4571 102.329 26.5093 102.559 26.3653C102.637 26.3173 102.797 26.3277 102.881 26.3778C103.06 26.4842 103.206 26.478 103.382 26.3778C103.54 26.2902 103.717 26.3778 103.721 26.5406C103.731 27.0121 103.846 27.492 103.692 28.0261L103.69 28.0282ZM100.354 27.2353C100.334 27.2395 100.315 27.2437 100.295 27.2479C100.305 27.2979 100.315 27.348 100.325 27.396C100.346 27.3918 100.364 27.3877 100.385 27.3835C100.375 27.3334 100.364 27.2854 100.354 27.2353Z" fill="white"/>
<path d="M99.8122 22.9852C100.095 22.9498 100.317 22.8997 100.541 22.8976C101.262 22.8872 101.984 22.8893 102.705 22.8914C103.288 22.8934 103.329 22.9414 103.335 23.5528C103.337 23.8344 103.335 24.114 103.335 24.4604C103.056 24.5 102.805 24.5501 102.551 24.5668C102.001 24.6002 101.45 24.5 100.892 24.6002C100.617 24.6502 100.309 24.5605 100.026 24.4917C99.9374 24.4687 99.8265 24.308 99.8204 24.2058C99.7957 23.8136 99.8101 23.4171 99.8101 22.9832L99.8122 22.9852Z" fill="white"/>
<path d="M21.071 24.9941C21.65 25.1256 22.0955 25.4365 22.5389 25.7369C22.5964 25.7766 22.5943 25.9998 22.543 26.0958C22.3931 26.367 22.2392 26.6529 22.0257 26.8699C21.3892 27.5167 20.6604 28.0028 19.7099 28.0028C19.6442 28.0028 19.5785 27.9986 19.5149 27.9861C19.4677 27.9757 19.4266 27.9465 19.3794 27.9256C19.363 27.8776 19.3342 27.8317 19.3342 27.7837C19.3342 27.283 19.5313 26.8365 19.7736 26.4213C19.8618 26.269 20.0815 26.2001 20.2375 26.0854C20.6009 25.8204 20.8945 25.4949 21.071 24.9962V24.9941Z" fill="white"/>
<path d="M2.50613 23.0412C3.40122 22.818 4.22446 22.9515 5.03948 22.9161C5.31253 22.9035 5.45623 23.0767 5.51987 23.3292C5.52809 23.3605 5.53219 23.3959 5.53219 23.4272C5.54246 24.435 5.66974 24.4955 4.55909 24.531C4.2183 24.5414 3.87546 24.5831 3.53672 24.5727C3.26162 24.5644 2.98653 24.508 2.71348 24.4517C2.53693 24.4141 2.51024 24.2514 2.50819 24.0949C2.50408 23.7527 2.50819 23.4085 2.50819 23.0412H2.50613Z" fill="white"/>
<path d="M89.6398 19.8344C89.4776 19.7009 89.5022 19.5903 89.648 19.4609C89.7753 19.5966 89.8163 19.7071 89.6398 19.8344Z" fill="white"/>
<path d="M18.4063 10.7522C18.3632 10.6541 18.3242 10.604 18.3242 10.5539C18.3242 10.5247 18.396 10.4621 18.4124 10.4705C18.4617 10.4914 18.5253 10.5352 18.5315 10.579C18.5377 10.6165 18.472 10.6645 18.4042 10.7522H18.4063Z" fill="white"/>
<path d="M74.0147 10.5771C73.9367 10.6335 73.8895 10.6961 73.8484 10.6919C73.8053 10.6877 73.7376 10.6168 73.7376 10.5771C73.7376 10.5333 73.8053 10.4645 73.8484 10.4582C73.8895 10.454 73.9388 10.5187 74.0147 10.5771Z" fill="white"/>
</g>
<defs>
<clipPath id="clip0_8_906">
<rect width="103.368" height="27.4243" fill="white" transform="translate(0.401855 0.616211)"/>
</clipPath>
</defs>
</svg>
