<svg width="66" height="35" viewBox="0 0 66 35" fill="none" xmlns="http://www.w3.org/2000/svg">
<g clip-path="url(#clip0_8_949)">
<path opacity="0.3" fill-rule="evenodd" clip-rule="evenodd" d="M2.14975 0.561523C1.23596 0.56862 0.433372 1.15478 0.129726 2.02762C0.0299369 2.31006 0 2.59817 0 2.89479V32.1387C0.0342136 33.3579 0.973661 34.3074 2.16258 34.3102C4.65589 34.3131 9.7922 34.3017 9.7922 34.3017L9.78365 32.038H2.29373C2.25382 31.7953 2.2638 3.17581 2.30229 3.04524C2.5318 3.01259 62.9187 3.02395 63.0513 3.05659C63.0884 3.278 63.077 31.8989 63.037 32.0493H12.535V34.3131C12.535 34.3131 12.7317 34.3131 12.823 34.3159H63.2552C64.159 34.3074 64.9616 33.7312 65.2695 32.8654C65.3693 32.5901 65.3978 32.3062 65.3978 32.0153V2.71739C65.3792 1.74945 64.7292 0.899308 63.8111 0.642422H63.8083C63.5645 0.575716 63.3222 0.564362 63.0713 0.564362L2.14975 0.561523ZM30.2704 9.14808C30.2519 9.18498 30.2376 9.21194 30.2305 9.23607C28.1834 14.8053 26.1392 20.3773 24.0935 25.9451C24.0849 25.9536 24.0849 25.972 24.0849 25.982V25.999C24.0849 26.0061 24.0935 26.0104 24.0949 26.0175H26.909C26.9303 25.955 26.956 25.8997 26.9745 25.8415C27.4093 24.5868 27.8456 23.335 28.2818 22.0804C28.3545 21.8789 28.4258 21.6759 28.4913 21.473C28.517 21.3878 28.5598 21.3438 28.6481 21.3552C28.6767 21.358 28.7094 21.3552 28.738 21.3552H34.8793C35.4338 22.9164 35.9855 24.4648 36.5344 26.0146H39.4083C37.3341 20.3759 35.2699 14.7598 33.2085 9.14524H30.269L30.2704 9.14808ZM19.4661 9.20485C19.3064 9.20485 19.2052 9.25168 19.0997 9.378C16.9585 11.9497 14.813 14.5228 12.6676 17.0917C12.6391 17.1243 12.602 17.1541 12.5407 17.2123V10.8129C12.5407 10.2835 12.5492 9.75126 12.5407 9.22188H9.84923V26.0004C10.0631 26.0387 12.401 26.0302 12.545 25.9905V25.7776H12.5378V19.9231C12.5378 19.7911 12.5749 19.6989 12.6804 19.6152C13.1252 19.2575 13.5657 18.8899 14.0047 18.5252C14.0489 18.4925 14.0917 18.4627 14.1459 18.423C14.1929 18.4854 14.2328 18.5365 14.2699 18.5919C15.0169 19.6861 15.7653 20.779 16.5123 21.8704C17.429 23.2158 18.347 24.5556 19.2608 25.894C19.3121 25.972 19.3577 26.0302 19.4704 26.0302C20.4326 26.0274 21.3949 26.0274 22.3571 26.0274C22.3885 26.0274 22.4213 26.016 22.4726 26.0047C20.3428 22.8582 18.223 19.733 16.0961 16.5893C16.5237 16.0854 16.9371 15.6001 17.352 15.1033C17.7668 14.6165 18.1802 14.1283 18.5936 13.6386C19.0071 13.1504 19.4176 12.6608 19.831 12.1711C20.2444 11.68 20.6593 11.1918 21.067 10.7022C21.479 10.2168 21.8867 9.73139 22.3229 9.20768H22.0806C21.2095 9.20768 20.3385 9.21336 19.4675 9.20485H19.4661ZM41.2801 9.2233C41.2345 9.43335 41.2459 25.884 41.2886 26.0231H50.9725V23.6856H46.3009C45.9089 23.6856 45.5126 23.6884 45.122 23.6856C44.7371 23.6828 44.3522 23.6998 43.953 23.6771V10.5205L43.9502 10.5177C43.9502 10.0834 43.9658 9.65191 43.9373 9.22188H41.2786L41.2801 9.2233ZM52.8157 9.22897V26.0189H55.4972C55.5058 25.9905 55.5129 25.9749 55.5129 25.9564V9.32548C55.5129 9.29994 55.5129 9.27865 55.5044 9.25168C55.5044 9.24459 55.4958 9.24317 55.4958 9.23749C55.4958 9.23465 55.4858 9.22755 55.4858 9.22755H52.8186L52.8157 9.22897ZM31.7131 11.5793C31.7416 11.6233 31.7644 11.6502 31.7716 11.68C32.2206 13.3846 32.8365 15.0366 33.3939 16.7085C33.6262 17.4039 33.8657 18.0951 34.1024 18.7906C34.1209 18.853 34.138 18.9155 34.1594 18.9921H29.3353C29.3567 18.9197 29.3752 18.8573 29.3966 18.7948C29.9625 17.1314 30.537 15.4752 31.0887 13.8075C31.3097 13.1376 31.4765 12.445 31.6661 11.7624C31.6817 11.7098 31.6917 11.6588 31.7131 11.5807V11.5793Z" fill="black"/>
<path fill-rule="evenodd" clip-rule="evenodd" d="M63.8068 0.639583C63.5631 0.572878 63.3207 0.561523 63.0698 0.561523H2.14833C1.23454 0.56862 0.431946 1.15478 0.128301 2.02762C0.0285113 2.31148 0 2.59817 0 2.89621V32.1387C0.0342136 33.3579 0.973661 34.3074 2.16258 34.3102C4.65589 34.3131 9.7922 34.3017 9.7922 34.3017L9.78365 32.038H2.29231C2.25239 31.7953 2.26237 3.17581 2.30086 3.04524C2.53038 3.01259 62.9173 3.02395 63.0499 3.05659C63.0869 3.278 63.0755 31.8989 63.0356 32.0493H12.535V34.3131C12.535 34.3131 12.7317 34.3131 12.823 34.3159H63.2537C64.1575 34.3074 64.9601 33.7312 65.2681 32.8654C65.3678 32.5901 65.3963 32.3062 65.3963 32.0153V2.71739C65.3778 1.74945 64.7278 0.899308 63.8097 0.642422H63.8083L63.8068 0.639583ZM12.5364 25.7776V19.9246C12.5364 19.7926 12.5735 19.7003 12.679 19.6166C13.1237 19.2589 13.5642 18.8913 14.0033 18.5266C14.0475 18.4939 14.0903 18.4641 14.1445 18.4244C14.1915 18.4868 14.2314 18.5379 14.2685 18.5933C15.0155 19.6875 15.7639 20.7804 16.5095 21.8718C17.4261 23.2172 18.3442 24.557 19.258 25.8954C19.3093 25.9735 19.3549 26.0317 19.4675 26.0317C20.4298 26.0288 21.392 26.0288 22.3543 26.0288C22.3856 26.0288 22.4184 26.0175 22.4697 26.0061C20.34 22.8596 18.2201 19.7344 16.0932 16.5907C16.5209 16.0869 16.9357 15.6015 17.3491 15.1047C17.764 14.6179 18.1774 14.1297 18.5908 13.64C19.0042 13.1518 19.4148 12.6622 19.8282 12.1725C20.2416 11.6815 20.6564 11.1932 21.0641 10.7036C21.4761 10.2182 21.8838 9.73281 22.3215 9.2091H22.0791C21.2081 9.2091 20.3371 9.21478 19.4661 9.20627C19.3064 9.20627 19.2052 9.2531 19.0997 9.37942C16.9585 11.9511 14.813 14.5243 12.6676 17.0931C12.6391 17.1258 12.602 17.1556 12.5407 17.2138V10.8143C12.5407 10.2849 12.5492 9.7541 12.5407 9.2233H9.84923V26.0018C10.0631 26.0402 12.401 26.0317 12.545 25.9933V25.7804H12.5378L12.5364 25.7776ZM26.9104 26.0189C26.9318 25.955 26.9574 25.9011 26.976 25.8415C27.4108 24.5868 27.847 23.335 28.2832 22.0804C28.3559 21.8789 28.4286 21.6759 28.4942 21.473C28.5198 21.3878 28.5626 21.3438 28.651 21.3552C28.6795 21.358 28.7123 21.3552 28.7408 21.3552H34.8821C35.4367 22.9164 35.9884 24.4648 36.5372 26.0146H39.4126C37.3384 20.3759 35.2742 14.7598 33.2128 9.14524H30.2733C30.2548 9.18214 30.2405 9.2091 30.2334 9.23465C28.1863 14.8038 26.142 20.3759 24.0963 25.9437C24.0878 25.9522 24.0878 25.9706 24.0878 25.9806V25.999C24.0878 26.0061 24.0963 26.0104 24.0977 26.0175H26.9118L26.9104 26.0189ZM29.3951 18.792C29.9611 17.1286 30.5356 15.4723 31.0873 13.8047C31.3083 13.1348 31.475 12.4422 31.6646 11.7595C31.6803 11.707 31.6903 11.6559 31.7117 11.5779C31.7402 11.6219 31.763 11.6488 31.7701 11.6772C32.2192 13.3817 32.835 15.0338 33.3924 16.7057C33.6248 17.4011 33.8643 18.0923 34.1009 18.7877C34.1195 18.8502 34.1366 18.9126 34.158 18.9893H29.3338C29.3552 18.9169 29.3738 18.8544 29.3951 18.792ZM43.9502 10.5177C43.9502 10.0834 43.9658 9.65191 43.9373 9.22188H41.2786C41.233 9.43193 41.2444 25.8826 41.2872 26.0203H50.9711V23.6828H46.2995C45.9075 23.6828 45.5112 23.6856 45.1205 23.6828C44.7356 23.6799 44.3507 23.697 43.9516 23.6743V10.5205L43.9487 10.5177H43.9502ZM55.5101 9.32548C55.5101 9.29994 55.5101 9.27723 55.5015 9.25026C55.5015 9.24317 55.493 9.24175 55.493 9.23607C55.493 9.23323 55.483 9.22755 55.483 9.22755H52.8157V26.016H55.4972C55.5058 25.9877 55.5129 25.9735 55.5129 25.9536V9.32548H55.5101Z" fill="#FBFAFB"/>
</g>
<defs>
<clipPath id="clip0_8_949">
<rect width="65.3963" height="33.753" fill="white" transform="translate(0 0.561523)"/>
</clipPath>
</defs>
</svg>
