<svg width="135" height="135" viewBox="0 0 135 135" fill="none" xmlns="http://www.w3.org/2000/svg">
<circle cx="67.5" cy="67.5" r="67.5" fill="#8007CA"/>
<g clip-path="url(#clip0_66_1469)">
<path d="M67.3757 87.9764L52.8038 81.4397V44.4004C52.8038 44.3575 52.7931 44.3199 52.7931 44.2769C52.7931 44.2017 52.7823 44.1265 52.7716 44.0513C52.7609 43.9922 52.7394 43.9331 52.7233 43.8741C52.7072 43.815 52.691 43.7559 52.6696 43.7022C52.6481 43.6431 52.6158 43.5894 52.5836 43.5303C52.5568 43.4766 52.5299 43.4282 52.503 43.3799C52.4708 43.3316 52.4332 43.2832 52.3956 43.2349C52.358 43.1865 52.3204 43.1382 52.2775 43.0952C52.2345 43.0523 52.1862 43.0147 52.1378 42.9717C52.0948 42.9341 52.0519 42.8911 52.0035 42.8589C51.9391 42.8159 51.8746 42.7783 51.8048 42.7461C51.7672 42.7246 51.735 42.7031 51.6974 42.687L51.6598 42.6709L37.3618 36.2578C36.7818 35.9946 36.105 36.0483 35.5732 36.3974C35.0361 36.7466 34.7139 37.3374 34.7139 37.9766V92.6547C34.7139 93.3959 35.1489 94.0673 35.8257 94.368L65.8342 107.833C66.0813 107.946 66.3445 108 66.6023 108C66.9621 108 67.3166 107.898 67.6228 107.699C68.1599 107.35 68.4822 106.759 68.4822 106.12V89.6898C68.4822 88.9486 68.0471 88.2772 67.3703 87.9764H67.3757ZM64.7277 103.22L38.4737 91.4408V40.877L49.044 45.6197V82.6536C49.044 82.6966 49.0548 82.7396 49.0548 82.7772C49.0548 82.8523 49.0655 82.9275 49.0763 82.9974C49.087 83.0564 49.1085 83.1155 49.1246 83.1746C49.1407 83.2337 49.1568 83.2928 49.1783 83.3465C49.1998 83.4056 49.232 83.4593 49.2643 83.5184C49.2911 83.5721 49.318 83.6204 49.3448 83.6688C49.3771 83.7225 49.4147 83.7654 49.4522 83.8138C49.4898 83.8621 49.5274 83.9105 49.5704 83.9534C49.6134 83.9964 49.6617 84.034 49.7101 84.077C49.753 84.1146 49.796 84.1575 49.8443 84.1898C49.9088 84.2327 49.9732 84.2703 50.0431 84.3026C50.0807 84.324 50.1129 84.3455 50.1505 84.3616L50.1881 84.3777L64.7224 90.8983V103.209L64.7277 103.22Z" fill="url(#paint0_linear_66_1469)"/>
<path d="M99.4845 96.3984C99.2213 96.3984 98.9582 96.3447 98.7165 96.2319L84.0586 89.6523C83.3819 89.3515 82.9468 88.6801 82.9468 87.9389V46.2697L79.0957 44.3737C78.4512 44.0568 78.043 43.4015 78.043 42.6871V33.2286C78.043 32.6915 78.2739 32.1812 78.6714 31.8267C79.0689 31.4722 79.606 31.3057 80.1377 31.3594C80.5567 31.4078 80.9702 31.4292 81.3677 31.4292C84.2251 31.4292 86.9161 30.3228 88.9464 28.314C89.505 27.7608 90.3429 27.6157 91.0572 27.9434L100.274 32.1973C100.94 32.5035 101.364 33.1695 101.364 33.9053V94.5185C101.364 95.1577 101.042 95.7485 100.505 96.0977C100.194 96.2964 99.839 96.3984 99.4845 96.3984ZM86.7066 86.725L97.6046 91.6181V35.1085L90.606 31.8804C88.1192 33.9322 85.0523 35.0924 81.8028 35.189V41.5216L85.6539 43.4176C86.2984 43.7345 86.7066 44.3898 86.7066 45.1041V86.725Z" fill="url(#paint1_linear_66_1469)"/>
<path opacity="0.6" d="M60.3985 55.3092L63.4654 56.9797L67.9986 54.5626L72.5748 57.0011L75.6847 55.3092C76.1197 55.0729 76.6246 55.0192 77.0919 55.1535L68.8795 50.776C68.3262 50.4806 67.6656 50.4806 67.1124 50.776L58.5723 55.3307C59.1362 55.0085 59.8291 55.0031 60.3985 55.3146V55.3092Z" fill="white"/>
<path opacity="0.6" d="M57.6165 56.9636C57.6165 56.3889 57.8796 55.8464 58.3254 55.4919C57.7454 55.927 57.4822 56.6467 57.6165 57.345V56.9583V56.9636Z" fill="white"/>
<path d="M77.5436 55.347C76.9743 55.0086 76.2653 54.9925 75.6852 55.3094L68.0421 59.4666L60.3989 55.3094C59.8189 54.9925 59.1099 55.0032 58.5405 55.347C57.9712 55.6853 57.6221 56.2976 57.6221 56.9637V67.2494C57.6221 67.9369 57.998 68.5707 58.605 68.8983L67.1451 73.5443C67.1451 73.5443 67.1719 73.5551 67.1881 73.5605C67.3116 73.6249 67.4405 73.6786 67.5748 73.7108C67.5909 73.7108 67.6016 73.7108 67.6177 73.7216C67.7574 73.7538 67.9024 73.7753 68.0474 73.7753C68.1925 73.7753 68.3321 73.7538 68.4771 73.7216C68.4932 73.7216 68.504 73.7216 68.5201 73.7108C68.6544 73.6786 68.7833 73.6249 68.9068 73.5605C68.9176 73.5551 68.9337 73.5497 68.9498 73.5443L77.4899 68.8983C78.0968 68.5707 78.4728 67.9369 78.4728 67.2494V56.9637C78.4728 56.303 78.1237 55.6853 77.5543 55.347H77.5436ZM66.1622 68.7318L61.3819 66.1322V60.1273L66.1622 62.7269V68.7318ZM74.7023 66.1322L69.922 68.7318V62.7269L74.7023 60.1273V66.1322Z" fill="url(#paint2_linear_66_1469)"/>
</g>
<defs>
<linearGradient id="paint0_linear_66_1469" x1="51.6007" y1="111.131" x2="51.6007" y2="29.0981" gradientUnits="userSpaceOnUse">
<stop stop-color="white"/>
<stop offset="1" stop-color="white" stop-opacity="0.5"/>
</linearGradient>
<linearGradient id="paint1_linear_66_1469" x1="89.7037" y1="111.131" x2="89.7037" y2="29.0982" gradientUnits="userSpaceOnUse">
<stop stop-color="white"/>
<stop offset="1" stop-color="white" stop-opacity="0.5"/>
</linearGradient>
<linearGradient id="paint2_linear_66_1469" x1="68.0421" y1="52.9998" x2="68.0421" y2="77.664" gradientUnits="userSpaceOnUse">
<stop stop-color="white"/>
<stop offset="0.14" stop-color="white" stop-opacity="0.97"/>
<stop offset="0.34" stop-color="white" stop-opacity="0.9"/>
<stop offset="0.58" stop-color="white" stop-opacity="0.78"/>
<stop offset="0.85" stop-color="white" stop-opacity="0.61"/>
<stop offset="1" stop-color="white" stop-opacity="0.5"/>
</linearGradient>
<clipPath id="clip0_66_1469">
<rect width="66.6504" height="80.2286" fill="white" transform="translate(34.7139 27.7715)"/>
</clipPath>
</defs>
</svg>
