<svg width="135" height="135" viewBox="0 0 135 135" fill="none" xmlns="http://www.w3.org/2000/svg">
<circle cx="67.5" cy="67.5" r="67.5" fill="#AF0D7C"/>
<g clip-path="url(#clip0_66_1509)">
<g opacity="0.6">
<path d="M64.7163 59.0829C64.0432 59.8663 62.9058 60.0055 62.0645 59.4485C62.1341 59.5297 62.2037 59.6168 62.2908 59.6864L64.0606 61.2183L65.8768 59.6632C65.8768 59.6632 65.9117 59.64 65.9291 59.6284L67.1883 58.5549L64.9542 56.6226C64.8846 56.5645 64.8091 56.5181 64.7395 56.4717C65.3604 57.2202 65.3778 58.3228 64.7279 59.0887L64.7163 59.0829Z" fill="white"/>
</g>
<path d="M103.34 28.0965C102.759 27.7252 102.034 27.6671 101.407 27.9515L85.9256 34.8973C85.1945 35.2223 84.7245 35.9476 84.7245 36.7484V77.9304L67.177 85.9846L49.6295 77.9304V36.7484C49.6295 35.9476 49.1595 35.2223 48.4284 34.8973L32.9467 27.9515C32.32 27.6671 31.5888 27.7252 31.0144 28.0965C30.4341 28.4737 30.0859 29.112 30.0859 29.8025V90.0407C30.0859 90.8357 30.5502 91.561 31.2755 91.8918L66.3356 107.82C66.6025 107.942 66.8869 108 67.177 108C67.4671 108 67.7515 107.942 68.0184 107.82L103.079 91.8918C103.804 91.561 104.268 90.8415 104.268 90.0407V29.8025C104.268 29.112 103.92 28.4737 103.34 28.0965ZM34.1479 32.9418L45.5676 38.0656V79.236C45.5676 80.031 46.0318 80.7505 46.7514 81.0813L65.146 89.5243V102.818L34.1479 88.7351V32.9418ZM100.206 88.7351L69.208 102.818V89.5243L87.6026 81.0813C88.3222 80.7505 88.7864 80.031 88.7864 79.236V38.0656L100.206 32.9418V88.7351Z" fill="url(#paint0_linear_66_1509)"/>
<path d="M76.873 55.2823C74.5171 54.1972 71.8304 54.5744 69.8575 56.2572L65.9232 59.6286C65.9232 59.6286 65.8884 59.6518 65.871 59.6634L61.8497 63.1102C61.0896 63.7601 60.0857 63.9052 59.1746 63.4816C58.2636 63.0638 57.7182 62.2108 57.7182 61.2069C57.7182 60.2727 58.1592 59.6808 58.5305 59.35C59.076 58.8684 59.8188 58.6247 60.5267 58.7117C61.0083 58.7698 61.4551 58.9671 61.8497 59.3036C62.7027 60.0348 63.9851 59.9361 64.7163 59.0831C65.4474 58.2301 65.3488 56.9477 64.4958 56.2166C63.4919 55.3578 62.2791 54.8239 60.9967 54.673C59.1282 54.4583 57.2481 55.056 55.8323 56.3152C54.428 57.5628 53.6562 59.2978 53.6562 61.2011C53.6562 63.7949 55.1185 66.0812 57.4744 67.1663C58.3681 67.5783 59.3081 67.7814 60.2365 67.7814C61.7627 67.7814 63.2656 67.2418 64.49 66.1915L67.1534 63.911L69.8575 66.2263C71.0819 67.2766 72.5848 67.8162 74.1109 67.8162C75.0393 67.8162 75.9852 67.6131 76.873 67.2011C79.2289 66.116 80.6912 63.8297 80.6912 61.2359C80.6912 58.6421 79.2289 56.3558 76.873 55.2707V55.2823ZM75.1728 63.5222C74.2618 63.94 73.2579 63.8007 72.4977 63.1508L70.2753 61.2475L72.4977 59.3442C73.2579 58.6885 74.2618 58.5493 75.1728 58.9729C76.0838 59.3907 76.6293 60.2437 76.6293 61.2475C76.6293 62.2514 76.0838 63.0986 75.1728 63.5222Z" fill="url(#paint1_linear_66_1509)"/>
</g>
<defs>
<linearGradient id="paint0_linear_66_1509" x1="67.177" y1="113.223" x2="67.177" y2="24.5975" gradientUnits="userSpaceOnUse">
<stop stop-color="white"/>
<stop offset="1" stop-color="white" stop-opacity="0.5"/>
</linearGradient>
<linearGradient id="paint1_linear_66_1509" x1="67.1766" y1="113.223" x2="67.1766" y2="24.5975" gradientUnits="userSpaceOnUse">
<stop stop-color="white"/>
<stop offset="0.14" stop-color="white" stop-opacity="0.97"/>
<stop offset="0.34" stop-color="white" stop-opacity="0.9"/>
<stop offset="0.58" stop-color="white" stop-opacity="0.78"/>
<stop offset="0.85" stop-color="white" stop-opacity="0.61"/>
<stop offset="1" stop-color="white" stop-opacity="0.5"/>
</linearGradient>
<clipPath id="clip0_66_1509">
<rect width="74.1821" height="80.2286" fill="white" transform="translate(30.0859 27.7715)"/>
</clipPath>
</defs>
</svg>
