<svg width="170" height="19" viewBox="0 0 170 19" fill="none" xmlns="http://www.w3.org/2000/svg">
<g clip-path="url(#clip0_8_1013)">
<path d="M15.1667 14.0863C15.1667 14.8917 14.8633 15.2944 14.2565 15.2944C13.6497 15.2944 13.3886 14.8776 13.3886 14.0439V4.612C13.3886 4.18809 13.371 3.85603 13.3357 3.61582C13.3004 3.3756 13.2264 3.19191 13.1135 3.06474C13.0006 2.93756 12.8242 2.85985 12.5843 2.83159C12.3444 2.80333 12.0269 2.7892 11.6318 2.7892H10.5946C10.2418 2.7892 9.96311 2.81039 9.7585 2.85278C9.55389 2.89517 9.39513 2.97996 9.28224 3.10713C9.16935 3.2343 9.09527 3.41799 9.05999 3.65821C9.02471 3.89842 9.00707 4.21635 9.00707 4.612V14.0651C9.00707 14.8847 8.71073 15.2944 8.11806 15.2944C7.79349 15.2944 7.56066 15.1991 7.41954 15.0083C7.27843 14.8176 7.20787 14.5173 7.20787 14.1075V4.63319C7.20787 4.23755 7.19023 3.91962 7.15496 3.6794C7.11968 3.43919 7.04912 3.25196 6.94329 3.11773C6.83745 2.98349 6.68575 2.89517 6.48819 2.85278C6.29064 2.81039 6.02958 2.7892 5.70501 2.7892H3.52481C3.21436 2.7892 2.96036 2.81039 2.7628 2.85278C2.56524 2.89517 2.41001 2.97996 2.29712 3.10713C2.18423 3.2343 2.10662 3.40386 2.06429 3.61582C2.02195 3.82777 2.00078 4.10331 2.00078 4.44243V5.12068C2.00078 5.3609 2.01137 5.55166 2.03253 5.69296C2.0537 5.83426 2.08898 5.95437 2.13837 6.05328C2.18776 6.15219 2.26537 6.23344 2.37121 6.29703C2.47704 6.36061 2.61463 6.42773 2.78396 6.49838C3.0803 6.61142 3.27433 6.75979 3.36606 6.94348C3.45778 7.12718 3.5107 7.43804 3.52481 7.87608V13.2385C3.52481 13.9591 3.40486 14.4572 3.16497 14.7328C2.92508 15.0083 2.48763 15.1461 1.85261 15.1461C1.2176 15.1461 0.780152 15.0083 0.540259 14.7328C0.300366 14.4572 0.18042 13.945 0.18042 13.1961V3.08593C0.18042 2.6479 0.208643 2.29464 0.265088 2.02617C0.321533 1.75769 0.427369 1.54927 0.582593 1.4009C0.737818 1.25254 0.956544 1.15009 1.23877 1.09357C1.521 1.03705 1.88789 1.00879 2.33946 1.00879H13.0711C13.5086 1.00879 13.8649 1.03352 14.1401 1.08297C14.4152 1.13243 14.6304 1.23487 14.7857 1.39031C14.9409 1.54574 15.0432 1.76476 15.0926 2.04736C15.142 2.32997 15.1667 2.70442 15.1667 3.17071V14.0863Z" fill="white"/>
<path d="M24.7342 9.02064C24.7342 9.35976 24.713 9.63883 24.6707 9.85785C24.6283 10.0769 24.5507 10.2429 24.4378 10.3559C24.325 10.469 24.1627 10.5467 23.951 10.5891C23.7393 10.6315 23.4571 10.6527 23.1043 10.6527H21.0088C20.529 10.6527 20.2221 10.7198 20.088 10.854C19.954 10.9883 19.8869 11.2956 19.8869 11.776V12.4543C19.8869 12.7086 19.8975 12.91 19.9187 13.0584C19.9398 13.2067 19.9928 13.3198 20.0774 13.3975C20.1621 13.4752 20.2785 13.5246 20.4267 13.5458C20.5749 13.567 20.7759 13.5776 21.03 13.5776H22.2788C22.5893 13.5776 22.808 13.5282 22.935 13.4293C23.062 13.3304 23.1396 13.1537 23.1678 12.8994L23.2102 12.5391C23.2525 12.0586 23.4994 11.8184 23.951 11.8184C24.4731 11.8184 24.7342 12.1858 24.7342 12.9206V13.5141C24.7342 13.8673 24.713 14.1499 24.6707 14.3619C24.6283 14.5738 24.5507 14.7398 24.4378 14.86C24.325 14.9801 24.1627 15.0578 23.951 15.0931C23.7393 15.1284 23.4571 15.1461 23.1043 15.1461H18.5957C18.2571 15.1461 17.9784 15.1284 17.7596 15.0931C17.5409 15.0578 17.3751 14.9801 17.2622 14.86C17.1493 14.7398 17.0717 14.5738 17.0294 14.3619C16.987 14.1499 16.9659 13.8673 16.9659 13.5141V6.83752C16.9659 6.47013 16.9835 6.17693 17.0188 5.95791C17.0541 5.73889 17.1317 5.56933 17.2516 5.44922C17.3716 5.32912 17.5374 5.2514 17.7491 5.21607C17.9607 5.18075 18.243 5.16309 18.5957 5.16309H23.1043C23.4571 5.16309 23.7429 5.18075 23.9616 5.21607C24.1803 5.2514 24.3461 5.32912 24.459 5.44922C24.5719 5.56933 24.646 5.73889 24.6813 5.95791C24.7165 6.17693 24.7342 6.47013 24.7342 6.83752V9.02064ZM23.189 7.8125C23.189 7.33208 23.122 7.02474 22.9879 6.89051C22.8538 6.75627 22.5469 6.68915 22.0671 6.68915H19.6329C19.3789 6.68915 19.1778 6.69975 19.0297 6.72094C18.8815 6.74214 18.7686 6.79159 18.691 6.86931C18.6134 6.94703 18.564 7.06007 18.5428 7.20844C18.5217 7.3568 18.5111 7.55816 18.5111 7.8125V7.96087C18.5111 8.21522 18.5217 8.41657 18.5428 8.56494C18.564 8.71331 18.6134 8.82988 18.691 8.91466C18.7686 8.99944 18.8815 9.05243 19.0297 9.07363C19.1778 9.09482 19.3789 9.10542 19.6329 9.10542H22.0671C22.5469 9.10542 22.8538 9.0383 22.9879 8.90406C23.122 8.76983 23.189 8.45543 23.189 7.96087V7.8125Z" fill="white"/>
<path d="M27.1472 2.87417C27.1472 2.37961 27.2037 2.03695 27.3166 1.8462C27.4295 1.65544 27.6341 1.56006 27.9304 1.56006C28.2268 1.56006 28.4314 1.65191 28.5443 1.8356C28.6571 2.01929 28.7136 2.35842 28.7136 2.85297V4.35784C28.7136 4.69697 28.7453 4.90892 28.8088 4.9937C28.8723 5.07849 29.0382 5.12794 29.3063 5.14207C29.9554 5.1562 30.28 5.41761 30.28 5.9263C30.28 6.43499 29.9836 6.6964 29.3909 6.71053C29.0805 6.72466 28.8865 6.77411 28.8088 6.85889C28.7312 6.94368 28.6924 7.15563 28.6924 7.49475V7.93986C28.6924 8.27898 28.7348 8.5086 28.8194 8.62871C28.9041 8.74881 29.0946 8.84419 29.3909 8.91484C29.6873 8.99962 29.8778 9.11267 29.9624 9.25397C30.0471 9.39527 30.0894 9.67787 30.0894 10.1018V13.3447C30.0894 13.7121 30.0718 14.0123 30.0365 14.2455C30.0013 14.4786 29.9307 14.6623 29.8249 14.7965C29.719 14.9308 29.5744 15.0226 29.3909 15.0721C29.2075 15.1215 28.9676 15.1463 28.6713 15.1463C28.2338 15.1463 27.9163 15.1074 27.7187 15.0297C27.5212 14.952 27.373 14.8001 27.2742 14.574C27.2178 14.461 27.1825 14.3232 27.1684 14.1607C27.1543 13.9982 27.1472 13.7262 27.1472 13.3447V7.62193L27.1261 7.26161C27.1261 7.06378 27.0943 6.93308 27.0308 6.86949C26.9673 6.80591 26.8438 6.75998 26.6604 6.73172L26.3852 6.71053C25.849 6.66814 25.5809 6.41379 25.5809 5.94749C25.5809 5.42468 25.8772 5.16327 26.4699 5.16327C26.6251 5.16327 26.7486 5.15267 26.8403 5.13147C26.932 5.11028 26.9991 5.06082 27.0414 4.98311C27.0837 4.90539 27.112 4.79235 27.1261 4.64398C27.1402 4.49561 27.1472 4.29426 27.1472 4.03991V2.87417Z" fill="white"/>
<path d="M39.5934 13.5141C39.5934 13.8673 39.5723 14.1499 39.5299 14.3619C39.4876 14.5738 39.41 14.7398 39.2971 14.86C39.1842 14.9801 39.0219 15.0578 38.8103 15.0931C38.5986 15.1284 38.3164 15.1461 37.9636 15.1461H33.455C33.1163 15.1461 32.8376 15.1249 32.6189 15.0825C32.4002 15.0401 32.2344 14.9624 32.1215 14.8494C32.0086 14.7363 31.931 14.5703 31.8886 14.3513C31.8463 14.1322 31.8251 13.8532 31.8251 13.5141V10.801C31.8251 10.4337 31.8428 10.1405 31.8781 9.92144C31.9133 9.70242 31.9909 9.53286 32.1109 9.41275C32.2308 9.29264 32.3966 9.21493 32.6083 9.1796C32.82 9.14428 33.1022 9.12661 33.455 9.12661H36.9264C37.1663 9.12661 37.3603 9.11248 37.5085 9.08422C37.6567 9.05596 37.7695 9.00298 37.8472 8.92526C37.9248 8.84754 37.9777 8.7345 38.0059 8.58613C38.0341 8.43777 38.0482 8.24348 38.0482 8.00326V7.8125C38.0482 7.57229 38.0377 7.378 38.0165 7.22963C37.9953 7.08126 37.9459 6.96822 37.8683 6.89051C37.7907 6.81279 37.6778 6.76333 37.5297 6.74214C37.3815 6.72094 37.1804 6.71035 36.9264 6.71035H34.3863C34.0336 6.71035 33.7901 6.74567 33.6561 6.81632C33.522 6.88697 33.4409 7.04241 33.4127 7.28262L33.3703 7.57936C33.2998 8.04565 33.0458 8.2788 32.6083 8.2788C32.312 8.2788 32.1074 8.19402 31.9945 8.02446C31.8816 7.85489 31.8251 7.54403 31.8251 7.09186V6.83752C31.8251 6.47013 31.8428 6.17693 31.8781 5.95791C31.9133 5.73889 31.9909 5.56933 32.1109 5.44922C32.2308 5.32912 32.3966 5.2514 32.6083 5.21607C32.82 5.18075 33.1022 5.16309 33.455 5.16309H37.9847C38.3375 5.16309 38.6198 5.18075 38.8314 5.21607C39.0431 5.2514 39.2054 5.32912 39.3183 5.44922C39.4312 5.56933 39.5052 5.73889 39.5405 5.95791C39.5758 6.17693 39.5934 6.47013 39.5934 6.83752V13.5141ZM35.868 10.6739C35.3883 10.6739 35.0813 10.741 34.9473 10.8752C34.8132 11.0095 34.7462 11.3168 34.7462 11.7972V12.4755C34.7462 12.7298 34.7568 12.9312 34.7779 13.0795C34.7991 13.2279 34.852 13.341 34.9367 13.4187C35.0214 13.4964 35.1378 13.5458 35.2859 13.567C35.4341 13.5882 35.6352 13.5988 35.8892 13.5988H36.9264C37.1663 13.5988 37.3603 13.5847 37.5085 13.5564C37.6567 13.5282 37.7695 13.4752 37.8472 13.3975C37.9248 13.3198 37.9777 13.2102 38.0059 13.0689C38.0341 12.9276 38.0482 12.7369 38.0482 12.4967V11.8608C38.0482 11.5923 38.0377 11.3804 38.0165 11.225C37.9953 11.0695 37.9459 10.9494 37.8683 10.8646C37.7907 10.7799 37.6778 10.7269 37.5297 10.7057C37.3815 10.6845 37.1804 10.6739 36.9264 10.6739H35.868Z" fill="white"/>
<path d="M49.0745 13.5141C49.0745 13.8673 49.0533 14.1499 49.011 14.3619C48.9687 14.5738 48.8911 14.7398 48.7782 14.86C48.6653 14.9801 48.503 15.0578 48.2913 15.0931C48.0797 15.1284 47.7974 15.1461 47.4446 15.1461H42.9361C42.5833 15.1461 42.3011 15.1284 42.0894 15.0931C41.8777 15.0578 41.7119 14.9801 41.592 14.86C41.472 14.7398 41.3944 14.5738 41.3591 14.3619C41.3238 14.1499 41.3062 13.8673 41.3062 13.5141V12.8146C41.3062 12.3342 41.3626 12.0056 41.4755 11.829C41.5884 11.6524 41.786 11.5641 42.0682 11.5641C42.3363 11.5641 42.5233 11.6347 42.6291 11.776C42.735 11.9173 42.802 12.1858 42.8302 12.5815C42.8443 13.0336 42.9149 13.3198 43.0419 13.4399C43.1689 13.56 43.4441 13.62 43.8674 13.62H44.9893C45.2433 13.62 45.4444 13.6059 45.5925 13.5776C45.7407 13.5494 45.8536 13.4964 45.9312 13.4187C46.0088 13.341 46.0617 13.2279 46.0899 13.0795C46.1182 12.9312 46.1323 12.7369 46.1323 12.4967V11.7972C46.1323 11.3168 46.0653 11.013 45.9312 10.8858C45.7971 10.7587 45.4902 10.6951 45.0104 10.6951H42.9149C42.5762 10.6951 42.2975 10.6739 42.0788 10.6315C41.8601 10.5891 41.6943 10.5078 41.5814 10.3877C41.4685 10.2676 41.3909 10.1016 41.3485 9.88965C41.3062 9.67769 41.285 9.39509 41.285 9.04183V6.83752C41.285 6.47013 41.3027 6.17693 41.338 5.95791C41.3732 5.73889 41.4508 5.56933 41.5708 5.44922C41.6907 5.32912 41.8565 5.2514 42.0682 5.21607C42.2799 5.18075 42.5621 5.16309 42.9149 5.16309H47.4658C47.8186 5.16309 48.1008 5.18075 48.3125 5.21607C48.5242 5.2514 48.69 5.32912 48.8099 5.44922C48.9299 5.56933 49.0075 5.73889 49.0428 5.95791C49.078 6.17693 49.0957 6.47013 49.0957 6.83752V7.28262C49.0957 7.65001 49.0357 7.91142 48.9158 8.06685C48.7958 8.22228 48.5947 8.3 48.3125 8.3C48.0585 8.3 47.8715 8.23641 47.7516 8.10924C47.6316 7.98207 47.5505 7.77011 47.5081 7.47338C47.4799 7.14838 47.4023 6.93996 47.2753 6.84812C47.1483 6.75627 46.8731 6.71035 46.4498 6.71035H43.9521C43.7122 6.71035 43.5182 6.72448 43.37 6.75274C43.2218 6.781 43.1089 6.83399 43.0313 6.9117C42.9537 6.98942 42.9043 7.10246 42.8831 7.25083C42.862 7.39919 42.8514 7.59349 42.8514 7.8337V8.00326C42.8514 8.24348 42.8655 8.43777 42.8937 8.58613C42.922 8.7345 42.9749 8.84754 43.0525 8.92526C43.1301 9.00298 43.243 9.05243 43.3912 9.07363C43.5393 9.09482 43.7334 9.10542 43.9732 9.10542H47.4446C47.7974 9.10542 48.0832 9.12661 48.3019 9.16901C48.5206 9.2114 48.6864 9.29264 48.7993 9.41275C48.9122 9.53286 48.9863 9.70242 49.0216 9.92144C49.0569 10.1405 49.0745 10.4337 49.0745 10.801V13.5141Z" fill="white"/>
<path d="M50.789 6.79513C50.789 6.456 50.8102 6.18046 50.8525 5.96851C50.8949 5.75656 50.976 5.59053 51.096 5.47042C51.2159 5.35031 51.3817 5.26906 51.5934 5.22667C51.805 5.18428 52.0732 5.16309 52.3977 5.16309H56.9275C57.2803 5.16309 57.5625 5.18428 57.7742 5.22667C57.9858 5.26906 58.1481 5.34678 58.261 5.45982C58.3739 5.57286 58.4515 5.73536 58.4938 5.94731C58.5362 6.15927 58.5573 6.44187 58.5573 6.79513V13.4717C58.5573 13.839 58.5397 14.1322 58.5044 14.3513C58.4691 14.5703 58.3951 14.7398 58.2822 14.86C58.1693 14.9801 58.0035 15.0578 57.7847 15.0931C57.566 15.1284 57.2803 15.1461 56.9275 15.1461H53.3291C52.934 15.1461 52.6694 15.2097 52.5353 15.3369C52.4013 15.464 52.3342 15.7184 52.3342 16.0999V17.5836C52.3342 18.0781 52.2813 18.4172 52.1755 18.6009C52.0696 18.7846 51.8686 18.8765 51.5722 18.8765C51.2759 18.8765 51.0713 18.7811 50.9584 18.5903C50.8455 18.3996 50.789 18.0569 50.789 17.5624V6.79513ZM53.4561 6.68915C52.9763 6.68915 52.6694 6.75627 52.5353 6.89051C52.4013 7.02474 52.3342 7.33208 52.3342 7.8125V8.40597C52.3342 8.7451 52.3766 8.97471 52.4612 9.09482C52.5459 9.21493 52.7364 9.31031 53.0327 9.38096C53.3291 9.46574 53.5196 9.57878 53.6042 9.72008C53.6889 9.86139 53.7312 10.144 53.7312 10.5679V12.4755C53.7312 12.7298 53.7418 12.9312 53.763 13.0795C53.7842 13.2279 53.8371 13.341 53.9218 13.4187C54.0064 13.4964 54.1228 13.5458 54.271 13.567C54.4192 13.5882 54.6203 13.5988 54.8743 13.5988H55.8903C56.1302 13.5988 56.3242 13.5847 56.4724 13.5564C56.6205 13.5282 56.7334 13.4752 56.811 13.3975C56.8887 13.3198 56.9416 13.2067 56.9698 13.0584C56.998 12.91 57.0121 12.7157 57.0121 12.4755V7.8125C57.0121 7.33208 56.9486 7.02474 56.8216 6.89051C56.6946 6.75627 56.3912 6.68915 55.9115 6.68915H53.4561Z" fill="white"/>
<path d="M63.1929 13.3444C63.1929 13.7118 63.1753 14.012 63.14 14.2452C63.1047 14.4783 63.0341 14.662 62.9283 14.7963C62.8225 14.9305 62.6778 15.0224 62.4944 15.0718C62.3109 15.1213 62.071 15.146 61.7747 15.146C61.3372 15.146 61.0233 15.1071 60.8328 15.0294C60.6423 14.9517 60.4906 14.7998 60.3777 14.5737C60.3212 14.4607 60.286 14.3229 60.2718 14.1604C60.2577 13.9979 60.2507 13.7259 60.2507 13.3444V2.25922C60.2507 1.76467 60.3071 1.42554 60.42 1.24185C60.5329 1.05816 60.7375 0.966309 61.0339 0.966309C61.3302 0.966309 61.5136 1.05816 61.6265 1.24185C61.7394 1.42554 61.7959 1.76467 61.7959 2.25922V4.12441C61.7959 4.46354 61.8382 4.69316 61.9229 4.81326C62.0075 4.93337 62.198 5.02875 62.4944 5.0994C62.7907 5.18418 62.9812 5.29722 63.0659 5.43853C63.1506 5.57983 63.1929 5.86243 63.1929 6.28634V13.3444Z" fill="white"/>
<path d="M72.6546 13.5141C72.6546 13.8673 72.6334 14.1499 72.5911 14.3619C72.5488 14.5738 72.4711 14.7398 72.3583 14.86C72.2454 14.9801 72.0831 15.0578 71.8714 15.0931C71.6597 15.1284 71.3775 15.1461 71.0247 15.1461H66.5162C66.1775 15.1461 65.8988 15.1284 65.6801 15.0931C65.4613 15.0578 65.2955 14.9801 65.1826 14.86C65.0697 14.7398 64.9921 14.5738 64.9498 14.3619C64.9075 14.1499 64.8863 13.8673 64.8863 13.5141V6.83752C64.8863 6.47013 64.9039 6.17693 64.9392 5.95791C64.9745 5.73889 65.0521 5.56933 65.1721 5.44922C65.292 5.32912 65.4578 5.2514 65.6695 5.21607C65.8811 5.18075 66.1634 5.16309 66.5162 5.16309H71.0247C71.3775 5.16309 71.6633 5.18075 71.882 5.21607C72.1007 5.2514 72.2665 5.32912 72.3794 5.44922C72.4923 5.56933 72.5664 5.73889 72.6017 5.95791C72.637 6.17693 72.6546 6.47013 72.6546 6.83752V13.5141ZM67.5533 6.68915C67.0736 6.68915 66.7666 6.75627 66.6326 6.89051C66.4985 7.02474 66.4315 7.33208 66.4315 7.8125V8.40597C66.4315 8.7451 66.4738 8.97471 66.5585 9.09482C66.6432 9.21493 66.8337 9.31031 67.13 9.38096C67.4263 9.46574 67.6168 9.57878 67.7015 9.72008C67.7862 9.86139 67.8285 10.144 67.8285 10.5679V12.4755C67.8285 12.7298 67.8391 12.9312 67.8603 13.0795C67.8814 13.2279 67.9343 13.341 68.019 13.4187C68.1037 13.4964 68.2201 13.5458 68.3683 13.567C68.5164 13.5882 68.7175 13.5988 68.9715 13.5988H69.9875C70.2274 13.5988 70.4215 13.5847 70.5696 13.5564C70.7178 13.5282 70.8307 13.4752 70.9083 13.3975C70.9859 13.3198 71.0388 13.2067 71.0671 13.0584C71.0953 12.91 71.1094 12.7157 71.1094 12.4755V7.8125C71.1094 7.33208 71.0459 7.02474 70.9189 6.89051C70.7919 6.75627 70.4885 6.68915 70.0087 6.68915H67.5533Z" fill="white"/>
<path d="M77.2902 2.25951C77.2902 2.75407 77.1879 3.09673 76.9832 3.28749C76.7786 3.47825 76.3941 3.57362 75.8296 3.57362C75.237 3.57362 74.8383 3.48884 74.6337 3.31928C74.4291 3.14972 74.3268 2.82472 74.3268 2.34429C74.3268 1.83561 74.4361 1.48235 74.6549 1.28453C74.8736 1.0867 75.2793 0.987793 75.872 0.987793C76.4082 0.987793 76.7786 1.07611 76.9832 1.25273C77.1879 1.42936 77.2902 1.76496 77.2902 2.25951ZM77.2902 13.3447C77.2902 13.7121 77.2725 14.0123 77.2372 14.2455C77.202 14.4786 77.1314 14.6623 77.0256 14.7966C76.9197 14.9308 76.7751 15.0226 76.5917 15.0721C76.4082 15.1216 76.1683 15.1463 75.872 15.1463C75.4345 15.1463 75.1205 15.1074 74.93 15.0297C74.7395 14.952 74.5878 14.8001 74.475 14.574C74.4185 14.461 74.3832 14.3232 74.3691 14.1607C74.355 13.9982 74.3479 13.7262 74.3479 13.3447V6.4138C74.3479 5.91924 74.4044 5.58012 74.5173 5.39642C74.6302 5.21273 74.8348 5.12088 75.1311 5.12088C75.4275 5.12088 75.6109 5.21273 75.7238 5.39642C75.8367 5.58012 75.8931 5.91924 75.8931 6.4138V7.93986C75.8931 8.27899 75.9355 8.50861 76.0201 8.62871C76.1048 8.74882 76.2953 8.8442 76.5917 8.91485C76.888 8.99963 77.0785 9.11267 77.1632 9.25398C77.2478 9.39528 77.2902 9.67788 77.2902 10.1018V13.3447Z" fill="white"/>
<path d="M79.2799 2.87417C79.2799 2.37961 79.3363 2.03695 79.4492 1.8462C79.5621 1.65544 79.7667 1.56006 80.063 1.56006C80.3594 1.56006 80.564 1.65191 80.6769 1.8356C80.7898 2.01929 80.8462 2.35842 80.8462 2.85297V4.35784C80.8462 4.69697 80.878 4.90892 80.9415 4.9937C81.005 5.07849 81.1708 5.12794 81.4389 5.14207C82.088 5.1562 82.4126 5.41761 82.4126 5.9263C82.4126 6.43499 82.1162 6.6964 81.5236 6.71053C81.2131 6.72466 81.0191 6.77411 80.9415 6.85889C80.8639 6.94368 80.8251 7.15563 80.8251 7.49475V7.93986C80.8251 8.27898 80.8674 8.5086 80.9521 8.62871C81.0367 8.74881 81.2272 8.84419 81.5236 8.91484C81.8199 8.99962 82.0104 9.11267 82.0951 9.25397C82.1797 9.39527 82.2221 9.67787 82.2221 10.1018V13.3447C82.2221 13.7121 82.2044 14.0123 82.1692 14.2455C82.1339 14.4786 82.0633 14.6623 81.9575 14.7965C81.8517 14.9308 81.707 15.0226 81.5236 15.0721C81.3401 15.1215 81.1002 15.1463 80.8039 15.1463C80.3664 15.1463 80.0489 15.1074 79.8514 15.0297C79.6538 14.952 79.5056 14.8001 79.4069 14.574C79.3504 14.461 79.3151 14.3232 79.301 14.1607C79.2869 13.9982 79.2799 13.7262 79.2799 13.3447V7.62193L79.2587 7.26161C79.2587 7.06378 79.2269 6.93308 79.1634 6.86949C79.0999 6.80591 78.9765 6.75998 78.793 6.73172L78.5178 6.71053C77.9816 6.66814 77.7135 6.41379 77.7135 5.94749C77.7135 5.42468 78.0098 5.16327 78.6025 5.16327C78.7577 5.16327 78.8812 5.15267 78.9729 5.13147C79.0647 5.11028 79.1317 5.06082 79.174 4.98311C79.2164 4.90539 79.2446 4.79235 79.2587 4.64398C79.2728 4.49561 79.2799 4.29426 79.2799 4.03991V2.87417Z" fill="white"/>
<path d="M98.9652 13.2386C98.9652 13.6625 98.9369 13.9981 98.8805 14.2454C98.8241 14.4927 98.7041 14.6834 98.5207 14.8177C98.3372 14.9519 98.0797 15.0402 97.7481 15.0826C97.4164 15.125 96.9684 15.1462 96.404 15.1462H90.8794C90.3714 15.1462 89.9621 15.1215 89.6517 15.072C89.3412 15.0226 89.0978 14.9272 88.9214 14.7859C88.745 14.6446 88.6286 14.4397 88.5722 14.1712C88.5157 13.9027 88.4875 13.5565 88.4875 13.1326V2.08986C88.4875 1.32683 88.7838 0.945312 89.3765 0.945312C89.7011 0.945312 89.9304 1.03363 90.0644 1.21025C90.1985 1.38688 90.2655 1.68008 90.2655 2.08986V5.01482C90.2655 5.43872 90.3008 5.74959 90.3714 5.94741C90.4419 6.14524 90.576 6.27947 90.7735 6.35012L91.1334 6.51969C91.2745 6.59034 91.3909 6.66099 91.4826 6.73164C91.5743 6.80229 91.6449 6.90474 91.6943 7.03897C91.7437 7.17321 91.7754 7.36397 91.7895 7.61125C91.8037 7.85853 91.8107 8.17999 91.8107 8.57563V11.7549C91.8107 12.1082 91.8319 12.3908 91.8742 12.6027C91.9165 12.8147 92.0047 12.9737 92.1388 13.0796C92.2729 13.1856 92.4634 13.2563 92.7103 13.2916C92.9573 13.3269 93.2924 13.3446 93.7157 13.3446H95.6419C95.9665 13.3446 96.2276 13.3234 96.4251 13.281C96.6227 13.2386 96.7779 13.1609 96.8908 13.0479C97.0037 12.9348 97.0813 12.7758 97.1236 12.571C97.166 12.3661 97.1871 12.1011 97.1871 11.7761V2.08986C97.1871 1.68008 97.2577 1.38688 97.3988 1.21025C97.5399 1.03363 97.7657 0.945312 98.0761 0.945312C98.3866 0.945312 98.6124 1.03363 98.7535 1.21025C98.8946 1.38688 98.9652 1.68008 98.9652 2.08986V13.2386Z" fill="white"/>
<path d="M106.924 5.16309C107.277 5.16309 107.559 5.18075 107.771 5.21607C107.982 5.2514 108.148 5.32912 108.268 5.44922C108.388 5.56933 108.466 5.73889 108.501 5.95791C108.536 6.17693 108.554 6.47013 108.554 6.83752V13.832C108.554 14.3265 108.497 14.6692 108.384 14.86C108.272 15.0507 108.067 15.1461 107.771 15.1461C107.474 15.1461 107.273 15.0542 107.167 14.8706C107.062 14.6869 107.009 14.3477 107.009 13.8532V7.8125C107.009 7.33208 106.942 7.02474 106.808 6.89051C106.673 6.75627 106.367 6.68915 105.887 6.68915H103.474C102.994 6.68915 102.687 6.75627 102.553 6.89051C102.419 7.02474 102.352 7.33208 102.352 7.8125V8.40597C102.352 8.7451 102.394 8.97471 102.479 9.09482C102.564 9.21493 102.754 9.31031 103.05 9.38096C103.347 9.46574 103.537 9.57878 103.622 9.72008C103.707 9.86139 103.749 10.144 103.749 10.5679V13.3445C103.749 13.7119 103.731 14.0121 103.696 14.2453C103.661 14.4784 103.59 14.6621 103.484 14.7964C103.378 14.9306 103.234 15.0225 103.05 15.0719C102.867 15.1214 102.627 15.1461 102.331 15.1461C101.879 15.1461 101.558 15.1072 101.368 15.0295C101.177 14.9518 101.025 14.7999 100.913 14.5738C100.856 14.4608 100.821 14.323 100.807 14.1605C100.793 13.998 100.786 13.726 100.786 13.3445V6.83752C100.786 6.47013 100.803 6.17693 100.838 5.95791C100.874 5.73889 100.951 5.56933 101.071 5.44922C101.191 5.32912 101.357 5.2514 101.569 5.21607C101.78 5.18075 102.063 5.16309 102.415 5.16309H106.924Z" fill="white"/>
<path d="M113.189 13.3444C113.189 13.7118 113.172 14.012 113.136 14.2452C113.101 14.4783 113.031 14.662 112.925 14.7963C112.819 14.9305 112.674 15.0224 112.491 15.0718C112.307 15.1213 112.068 15.146 111.771 15.146C111.334 15.146 111.02 15.1071 110.829 15.0294C110.639 14.9517 110.487 14.7998 110.374 14.5737C110.318 14.4607 110.282 14.3229 110.268 14.1604C110.254 13.9979 110.247 13.7259 110.247 13.3444V2.25922C110.247 1.76467 110.304 1.42554 110.417 1.24185C110.529 1.05816 110.734 0.966309 111.03 0.966309C111.327 0.966309 111.51 1.05816 111.623 1.24185C111.736 1.42554 111.792 1.76467 111.792 2.25922V4.12441C111.792 4.46354 111.835 4.69316 111.919 4.81326C112.004 4.93337 112.195 5.02875 112.491 5.0994C112.787 5.18418 112.978 5.29722 113.062 5.43853C113.147 5.57983 113.189 5.86243 113.189 6.28634V13.3444Z" fill="white"/>
<path d="M122.651 9.02064C122.651 9.35976 122.63 9.63883 122.588 9.85785C122.545 10.0769 122.468 10.2429 122.355 10.3559C122.242 10.469 122.08 10.5467 121.868 10.5891C121.656 10.6315 121.374 10.6527 121.021 10.6527H118.926C118.446 10.6527 118.139 10.7198 118.005 10.854C117.871 10.9883 117.804 11.2956 117.804 11.776V12.4543C117.804 12.7086 117.814 12.91 117.836 13.0584C117.857 13.2067 117.91 13.3198 117.994 13.3975C118.079 13.4752 118.195 13.5246 118.344 13.5458C118.492 13.567 118.693 13.5776 118.947 13.5776H120.196C120.506 13.5776 120.725 13.5282 120.852 13.4293C120.979 13.3304 121.057 13.1537 121.085 12.8994L121.127 12.5391C121.169 12.0586 121.416 11.8184 121.868 11.8184C122.39 11.8184 122.651 12.1858 122.651 12.9206V13.5141C122.651 13.8673 122.63 14.1499 122.588 14.3619C122.545 14.5738 122.468 14.7398 122.355 14.86C122.242 14.9801 122.08 15.0578 121.868 15.0931C121.656 15.1284 121.374 15.1461 121.021 15.1461H116.513C116.174 15.1461 115.895 15.1284 115.677 15.0931C115.458 15.0578 115.292 14.9801 115.179 14.86C115.066 14.7398 114.989 14.5738 114.946 14.3619C114.904 14.1499 114.883 13.8673 114.883 13.5141V6.83752C114.883 6.47013 114.9 6.17693 114.936 5.95791C114.971 5.73889 115.049 5.56933 115.169 5.44922C115.289 5.32912 115.454 5.2514 115.666 5.21607C115.878 5.18075 116.16 5.16309 116.513 5.16309H121.021C121.374 5.16309 121.66 5.18075 121.879 5.21607C122.097 5.2514 122.263 5.32912 122.376 5.44922C122.489 5.56933 122.563 5.73889 122.598 5.95791C122.633 6.17693 122.651 6.47013 122.651 6.83752V9.02064ZM121.106 7.8125C121.106 7.33208 121.039 7.02474 120.905 6.89051C120.771 6.75627 120.464 6.68915 119.984 6.68915H117.55C117.296 6.68915 117.095 6.69975 116.947 6.72094C116.798 6.74214 116.686 6.79159 116.608 6.86931C116.53 6.94703 116.481 7.06007 116.46 7.20844C116.439 7.3568 116.428 7.55816 116.428 7.8125V7.96087C116.428 8.21522 116.439 8.41657 116.46 8.56494C116.481 8.71331 116.53 8.82988 116.608 8.91466C116.686 8.99944 116.798 9.05243 116.947 9.07363C117.095 9.09482 117.296 9.10542 117.55 9.10542H119.984C120.464 9.10542 120.771 9.0383 120.905 8.90406C121.039 8.76983 121.106 8.45543 121.106 7.96087V7.8125Z" fill="white"/>
<path d="M132.113 13.5141C132.113 13.8673 132.092 14.1499 132.049 14.3619C132.007 14.5738 131.929 14.7398 131.816 14.86C131.704 14.9801 131.541 15.0578 131.33 15.0931C131.118 15.1284 130.836 15.1461 130.483 15.1461H125.974C125.636 15.1461 125.357 15.1249 125.138 15.0825C124.919 15.0401 124.754 14.9624 124.641 14.8494C124.528 14.7363 124.45 14.5703 124.408 14.3513C124.366 14.1322 124.344 13.8532 124.344 13.5141V10.801C124.344 10.4337 124.362 10.1405 124.397 9.92144C124.433 9.70242 124.51 9.53286 124.63 9.41275C124.75 9.29264 124.916 9.21493 125.128 9.1796C125.339 9.14428 125.622 9.12661 125.974 9.12661H129.446C129.686 9.12661 129.88 9.11248 130.028 9.08422C130.176 9.05596 130.289 9.00298 130.366 8.92526C130.444 8.84754 130.497 8.7345 130.525 8.58613C130.553 8.43777 130.568 8.24348 130.568 8.00326V7.8125C130.568 7.57229 130.557 7.378 130.536 7.22963C130.515 7.08126 130.465 6.96822 130.388 6.89051C130.31 6.81279 130.197 6.76333 130.049 6.74214C129.901 6.72094 129.7 6.71035 129.446 6.71035H126.906C126.553 6.71035 126.309 6.74567 126.175 6.81632C126.041 6.88697 125.96 7.04241 125.932 7.28262L125.89 7.57936C125.819 8.04565 125.565 8.2788 125.128 8.2788C124.831 8.2788 124.627 8.19402 124.514 8.02446C124.401 7.85489 124.344 7.54403 124.344 7.09186V6.83752C124.344 6.47013 124.362 6.17693 124.397 5.95791C124.433 5.73889 124.51 5.56933 124.63 5.44922C124.75 5.32912 124.916 5.2514 125.128 5.21607C125.339 5.18075 125.622 5.16309 125.974 5.16309H130.504C130.857 5.16309 131.139 5.18075 131.351 5.21607C131.562 5.2514 131.725 5.32912 131.838 5.44922C131.95 5.56933 132.025 5.73889 132.06 5.95791C132.095 6.17693 132.113 6.47013 132.113 6.83752V13.5141ZM128.387 10.6739C127.908 10.6739 127.601 10.741 127.467 10.8752C127.333 11.0095 127.265 11.3168 127.265 11.7972V12.4755C127.265 12.7298 127.276 12.9312 127.297 13.0795C127.318 13.2279 127.371 13.341 127.456 13.4187C127.541 13.4964 127.657 13.5458 127.805 13.567C127.953 13.5882 128.154 13.5988 128.408 13.5988H129.446C129.686 13.5988 129.88 13.5847 130.028 13.5564C130.176 13.5282 130.289 13.4752 130.366 13.3975C130.444 13.3198 130.497 13.2102 130.525 13.0689C130.553 12.9276 130.568 12.7369 130.568 12.4967V11.8608C130.568 11.5923 130.557 11.3804 130.536 11.225C130.515 11.0695 130.465 10.9494 130.388 10.8646C130.31 10.7799 130.197 10.7269 130.049 10.7057C129.901 10.6845 129.7 10.6739 129.446 10.6739H128.387Z" fill="white"/>
<path d="M141.594 13.5141C141.594 13.8673 141.573 14.1499 141.53 14.3619C141.488 14.5738 141.41 14.7398 141.297 14.86C141.185 14.9801 141.022 15.0578 140.811 15.0931C140.599 15.1284 140.317 15.1461 139.964 15.1461H135.455C135.103 15.1461 134.82 15.1284 134.609 15.0931C134.397 15.0578 134.231 14.9801 134.111 14.86C133.991 14.7398 133.914 14.5738 133.878 14.3619C133.843 14.1499 133.825 13.8673 133.825 13.5141V12.8146C133.825 12.3342 133.882 12.0056 133.995 11.829C134.108 11.6524 134.305 11.5641 134.588 11.5641C134.856 11.5641 135.043 11.6347 135.148 11.776C135.254 11.9173 135.321 12.1858 135.35 12.5815C135.364 13.0336 135.434 13.3198 135.561 13.4399C135.688 13.56 135.963 13.62 136.387 13.62H137.509C137.763 13.62 137.964 13.6059 138.112 13.5776C138.26 13.5494 138.373 13.4964 138.45 13.4187C138.528 13.341 138.581 13.2279 138.609 13.0795C138.637 12.9312 138.652 12.7369 138.652 12.4967V11.7972C138.652 11.3168 138.585 11.013 138.45 10.8858C138.316 10.7587 138.01 10.6951 137.53 10.6951H135.434C135.096 10.6951 134.817 10.6739 134.598 10.6315C134.379 10.5891 134.214 10.5078 134.101 10.3877C133.988 10.2676 133.91 10.1016 133.868 9.88965C133.825 9.67769 133.804 9.39509 133.804 9.04183V6.83752C133.804 6.47013 133.822 6.17693 133.857 5.95791C133.893 5.73889 133.97 5.56933 134.09 5.44922C134.21 5.32912 134.376 5.2514 134.588 5.21607C134.799 5.18075 135.081 5.16309 135.434 5.16309H139.985C140.338 5.16309 140.62 5.18075 140.832 5.21607C141.043 5.2514 141.209 5.32912 141.329 5.44922C141.449 5.56933 141.527 5.73889 141.562 5.95791C141.597 6.17693 141.615 6.47013 141.615 6.83752V7.28262C141.615 7.65001 141.555 7.91142 141.435 8.06685C141.315 8.22228 141.114 8.3 140.832 8.3C140.578 8.3 140.391 8.23641 140.271 8.10924C140.151 7.98207 140.07 7.77011 140.027 7.47338C139.999 7.14838 139.922 6.93996 139.795 6.84812C139.668 6.75627 139.392 6.71035 138.969 6.71035H136.471C136.231 6.71035 136.037 6.72448 135.889 6.75274C135.741 6.781 135.628 6.83399 135.551 6.9117C135.473 6.98942 135.424 7.10246 135.402 7.25083C135.381 7.39919 135.371 7.59349 135.371 7.8337V8.00326C135.371 8.24348 135.385 8.43777 135.413 8.58613C135.441 8.7345 135.494 8.84754 135.572 8.92526C135.649 9.00298 135.762 9.05243 135.91 9.07363C136.059 9.09482 136.253 9.10542 136.493 9.10542H139.964C140.317 9.10542 140.602 9.12661 140.821 9.16901C141.04 9.2114 141.206 9.29264 141.319 9.41275C141.432 9.53286 141.506 9.70242 141.541 9.92144C141.576 10.1405 141.594 10.4337 141.594 10.801V13.5141Z" fill="white"/>
<path d="M151.077 13.8319C151.077 14.3264 151.02 14.6691 150.907 14.8599C150.794 15.0506 150.59 15.146 150.293 15.146C149.997 15.146 149.796 15.0541 149.69 14.8705C149.584 14.6868 149.531 14.3476 149.531 13.8531V7.8124C149.531 7.33198 149.464 7.02464 149.33 6.89041C149.196 6.75617 148.889 6.68905 148.41 6.68905H145.997C145.517 6.68905 145.21 6.75617 145.076 6.89041C144.942 7.02464 144.875 7.33198 144.875 7.8124V8.40587C144.875 8.745 144.917 8.97462 145.002 9.09472C145.086 9.21483 145.277 9.31021 145.573 9.38086C145.87 9.46564 146.06 9.57868 146.145 9.71999C146.229 9.86129 146.272 10.1439 146.272 10.5678V13.3444C146.272 13.7118 146.254 14.012 146.219 14.2452C146.184 14.4783 146.113 14.662 146.007 14.7963C145.901 14.9305 145.757 15.0224 145.573 15.0718C145.39 15.1213 145.15 15.146 144.854 15.146C144.402 15.146 144.081 15.1071 143.89 15.0294C143.7 14.9517 143.548 14.7998 143.435 14.5737C143.379 14.4607 143.344 14.3229 143.33 14.1604C143.315 13.9979 143.308 13.7259 143.308 13.3444V2.25922C143.308 1.76467 143.365 1.42554 143.478 1.24185C143.591 1.05816 143.795 0.966309 144.092 0.966309C144.388 0.966309 144.589 1.05816 144.695 1.24185C144.801 1.42554 144.854 1.76467 144.854 2.25922V4.188C144.854 4.56952 144.921 4.82739 145.055 4.96163C145.189 5.09587 145.453 5.16299 145.848 5.16299H149.447C149.8 5.16299 150.082 5.18065 150.293 5.21597C150.505 5.2513 150.671 5.32902 150.791 5.44912C150.911 5.56923 150.988 5.73879 151.024 5.95781C151.059 6.17683 151.077 6.47003 151.077 6.83742V13.8319Z" fill="white"/>
<path d="M160.538 9.02064C160.538 9.35976 160.517 9.63883 160.475 9.85785C160.432 10.0769 160.355 10.2429 160.242 10.3559C160.129 10.469 159.967 10.5467 159.755 10.5891C159.543 10.6315 159.261 10.6527 158.908 10.6527H156.813C156.333 10.6527 156.026 10.7198 155.892 10.854C155.758 10.9883 155.691 11.2956 155.691 11.776V12.4543C155.691 12.7086 155.702 12.91 155.723 13.0584C155.744 13.2067 155.797 13.3198 155.882 13.3975C155.966 13.4752 156.083 13.5246 156.231 13.5458C156.379 13.567 156.58 13.5776 156.834 13.5776H158.083C158.393 13.5776 158.612 13.5282 158.739 13.4293C158.866 13.3304 158.944 13.1537 158.972 12.8994L159.014 12.5391C159.057 12.0586 159.304 11.8184 159.755 11.8184C160.277 11.8184 160.538 12.1858 160.538 12.9206V13.5141C160.538 13.8673 160.517 14.1499 160.475 14.3619C160.432 14.5738 160.355 14.7398 160.242 14.86C160.129 14.9801 159.967 15.0578 159.755 15.0931C159.543 15.1284 159.261 15.1461 158.908 15.1461H154.4C154.061 15.1461 153.783 15.1284 153.564 15.0931C153.345 15.0578 153.179 14.9801 153.066 14.86C152.953 14.7398 152.876 14.5738 152.834 14.3619C152.791 14.1499 152.77 13.8673 152.77 13.5141V6.83752C152.77 6.47013 152.788 6.17693 152.823 5.95791C152.858 5.73889 152.936 5.56933 153.056 5.44922C153.176 5.32912 153.342 5.2514 153.553 5.21607C153.765 5.18075 154.047 5.16309 154.4 5.16309H158.908C159.261 5.16309 159.547 5.18075 159.766 5.21607C159.984 5.2514 160.15 5.32912 160.263 5.44922C160.376 5.56933 160.45 5.73889 160.485 5.95791C160.521 6.17693 160.538 6.47013 160.538 6.83752V9.02064ZM158.993 7.8125C158.993 7.33208 158.926 7.02474 158.792 6.89051C158.658 6.75627 158.351 6.68915 157.871 6.68915H155.437C155.183 6.68915 154.982 6.69975 154.834 6.72094C154.686 6.74214 154.573 6.79159 154.495 6.86931C154.418 6.94703 154.368 7.06007 154.347 7.20844C154.326 7.3568 154.315 7.55816 154.315 7.8125V7.96087C154.315 8.21522 154.326 8.41657 154.347 8.56494C154.368 8.71331 154.418 8.82988 154.495 8.91466C154.573 8.99944 154.686 9.05243 154.834 9.07363C154.982 9.09482 155.183 9.10542 155.437 9.10542H157.871C158.351 9.10542 158.658 9.0383 158.792 8.90406C158.926 8.76983 158.993 8.45543 158.993 7.96087V7.8125Z" fill="white"/>
<path d="M170 13.514C170 13.8389 169.979 14.1074 169.936 14.3194C169.894 14.5313 169.813 14.6974 169.693 14.8175C169.573 14.9376 169.411 15.0224 169.206 15.0718C169.002 15.1213 168.737 15.146 168.412 15.146H163.862C163.523 15.146 163.244 15.1283 163.025 15.093C162.807 15.0577 162.641 14.98 162.528 14.8599C162.415 14.7397 162.338 14.5737 162.295 14.3618C162.253 14.1498 162.232 13.8672 162.232 13.514V6.81622C162.232 6.46297 162.249 6.17683 162.285 5.95781C162.32 5.73879 162.397 5.56923 162.517 5.44912C162.637 5.32902 162.803 5.2513 163.015 5.21597C163.227 5.18065 163.509 5.16299 163.862 5.16299H167.481C167.876 5.16299 168.137 5.09587 168.264 4.96163C168.391 4.82739 168.455 4.56952 168.455 4.188V2.25922C168.455 1.76467 168.511 1.42554 168.624 1.24185C168.737 1.05816 168.935 0.966309 169.217 0.966309C169.527 0.966309 169.735 1.05816 169.841 1.24185C169.947 1.42554 170 1.76467 170 2.25922V13.514ZM164.899 6.68905C164.419 6.68905 164.112 6.75617 163.978 6.89041C163.844 7.02464 163.777 7.33198 163.777 7.8124V8.40587C163.777 8.745 163.819 8.97462 163.904 9.09472C163.989 9.21483 164.179 9.31021 164.475 9.38086C164.772 9.46564 164.962 9.57868 165.047 9.71999C165.132 9.86129 165.174 10.1439 165.174 10.5678V12.4754C165.174 12.7297 165.184 12.9311 165.206 13.0794C165.227 13.2278 165.28 13.3409 165.364 13.4186C165.449 13.4963 165.565 13.5457 165.714 13.5669C165.862 13.5881 166.063 13.5987 166.317 13.5987H167.333C167.573 13.5987 167.767 13.5846 167.915 13.5563C168.063 13.5281 168.18 13.4751 168.264 13.3974C168.349 13.3197 168.405 13.2066 168.434 13.0583C168.462 12.9099 168.476 12.7156 168.476 12.4754V7.8124C168.476 7.33198 168.409 7.02464 168.275 6.89041C168.141 6.75617 167.834 6.68905 167.354 6.68905H164.899Z" fill="white"/>
</g>
<defs>
<clipPath id="clip0_8_1013">
<rect width="169.82" height="17.9313" fill="white" transform="translate(0.18042 0.945312)"/>
</clipPath>
</defs>
</svg>
