<svg width="68" height="58" viewBox="0 0 68 58" fill="none" xmlns="http://www.w3.org/2000/svg">
<g clip-path="url(#clip0_8_943)">
<path fill-rule="evenodd" clip-rule="evenodd" d="M19.4585 0.46582C37.1985 6.82115 48.8288 19.4709 48.8288 19.4709L50.5891 19.2348C43.5402 12.057 32.0848 4.28892 19.4585 0.46582Z" fill="white"/>
<g opacity="0.1">
<mask id="path-2-inside-1_8_943" fill="white">
<path fill-rule="evenodd" clip-rule="evenodd" d="M32.9935 29.4778C31.7275 28.7771 30.2333 27.669 29.1307 24.6113C27.9635 21.3784 29.9557 17.959 34.8565 18.4768C39.2934 18.9452 44.312 22.6427 45.1447 23.0425C43.7798 21.744 40.6165 18.6101 37.6852 16.8737C34.7576 15.1411 29.5299 15.2744 26.9332 17.7724C24.3364 20.2742 25.0702 26.9075 29.2296 30.7077C33.3927 34.508 32.1913 38.8756 32.1913 38.8756C32.1913 38.8756 37.9513 38.7766 41.6811 39.3097C39.685 33.0077 34.2558 30.1746 32.9897 29.474"/>
</mask>
<path d="M29.1307 24.6113L30.0714 24.2721L30.0713 24.2717L29.1307 24.6113ZM34.8565 18.4768L34.7514 19.4713L34.7515 19.4713L34.8565 18.4768ZM45.1447 23.0425L44.7118 23.9439L45.8339 22.318L45.1447 23.0425ZM37.6852 16.8737L38.1948 16.0133L38.1945 16.0131L37.6852 16.8737ZM26.9332 17.7724L26.2399 17.0517L26.2393 17.0522L26.9332 17.7724ZM29.2296 30.7077L28.555 31.446L28.5554 31.4463L29.2296 30.7077ZM32.1913 38.8756L31.2271 38.6104L30.8728 39.8984L32.2085 39.8754L32.1913 38.8756ZM41.6811 39.3097L41.5396 40.2996L43.1149 40.5248L42.6344 39.0077L41.6811 39.3097ZM33.4777 28.6028C32.9015 28.2839 32.3145 27.8956 31.7453 27.2609C31.1742 26.6239 30.5859 25.699 30.0714 24.2721L28.19 24.9505C28.778 26.5813 29.4881 27.7393 30.2563 28.596C31.0264 29.4549 31.8195 29.971 32.5093 30.3527L33.4777 28.6028ZM30.0713 24.2717C29.5861 22.9278 29.7862 21.6446 30.496 20.766C31.1949 19.9008 32.5457 19.2382 34.7514 19.4713L34.9616 17.4824C32.2666 17.1976 30.1708 17.9859 28.9402 19.5091C27.7205 21.019 27.5081 23.0619 28.1901 24.9509L30.0713 24.2717ZM34.7515 19.4713C36.7703 19.6844 38.9937 20.6486 40.8772 21.6653C41.807 22.1673 42.6308 22.6691 43.2802 23.0745C43.5906 23.2683 43.8994 23.4643 44.1174 23.5999C44.331 23.7327 44.5491 23.8658 44.7118 23.9439L45.5776 22.141C45.5321 22.1192 45.4112 22.0493 45.1736 21.9015C44.9405 21.7565 44.6859 21.5944 44.3395 21.3781C43.675 20.9632 42.8107 20.4363 41.8272 19.9054C39.884 18.8564 37.3796 17.7376 34.9615 17.4824L34.7515 19.4713ZM45.8339 22.318C44.506 21.0547 41.2475 17.8216 38.1948 16.0133L37.1755 17.7341C39.9856 19.3986 43.0535 22.4333 44.4554 23.767L45.8339 22.318ZM38.1945 16.0131C36.5192 15.0217 34.2692 14.5999 32.1207 14.7387C29.9755 14.8772 27.7628 15.5867 26.2399 17.0517L27.6264 18.4931C28.7002 17.4601 30.3999 16.854 32.2496 16.7345C34.096 16.6153 35.9236 16.9932 37.1759 17.7343L38.1945 16.0131ZM26.2393 17.0522C24.6048 18.627 24.1575 21.3095 24.5596 23.9061C24.9692 26.5514 26.2888 29.3754 28.555 31.446L29.9041 29.9695C28.011 28.2398 26.884 25.847 26.536 23.6001C26.1806 21.3046 26.6648 19.4196 27.627 18.4925L26.2393 17.0522ZM28.5554 31.4463C30.4439 33.1701 31.0895 34.9893 31.2813 36.3558C31.3783 37.0463 31.3601 37.6291 31.3191 38.0328C31.2987 38.2342 31.2727 38.3894 31.2533 38.4892C31.2436 38.5391 31.2355 38.5749 31.2306 38.5955C31.2282 38.6058 31.2265 38.6123 31.2259 38.6149C31.2256 38.6161 31.2255 38.6164 31.2257 38.6156C31.2258 38.6153 31.226 38.6147 31.2262 38.6138C31.2263 38.6133 31.2264 38.6128 31.2266 38.6123C31.2267 38.612 31.2268 38.6115 31.2268 38.6114C31.227 38.6109 31.2271 38.6104 32.1913 38.8756C33.1555 39.1408 33.1556 39.1403 33.1558 39.1397C33.1559 39.1395 33.156 39.1389 33.1561 39.1385C33.1564 39.1377 33.1566 39.1368 33.1569 39.1358C33.1574 39.1339 33.158 39.1317 33.1586 39.1292C33.16 39.1242 33.1615 39.1182 33.1634 39.1111C33.167 39.0968 33.1716 39.0783 33.177 39.0557C33.1876 39.0105 33.2013 38.9488 33.2163 38.8718C33.2463 38.7179 33.2817 38.5022 33.3089 38.2347C33.3631 37.7007 33.385 36.9541 33.2619 36.0777C33.0137 34.3103 32.1784 32.0456 29.9037 29.9691L28.5554 31.4463ZM32.1913 38.8756C32.2085 39.8754 32.2085 39.8754 32.2085 39.8754C32.2085 39.8754 32.2085 39.8754 32.2086 39.8754C32.2087 39.8754 32.2089 39.8754 32.2091 39.8754C32.2097 39.8754 32.2106 39.8754 32.2119 39.8754C32.2144 39.8754 32.2183 39.8753 32.2235 39.8752C32.2339 39.875 32.2498 39.8748 32.2707 39.8745C32.3126 39.8739 32.3751 39.8732 32.4562 39.8723C32.6184 39.8707 32.8551 39.8689 33.1512 39.8685C33.7435 39.8675 34.572 39.8718 35.5156 39.8925C37.4135 39.9342 39.7367 40.0419 41.5396 40.2996L41.8226 38.3198C39.8957 38.0443 37.474 37.935 35.5595 37.893C34.5969 37.8718 33.7523 37.8675 33.148 37.8685C32.8457 37.8689 32.6033 37.8707 32.436 37.8724C32.3523 37.8733 32.2874 37.8741 32.2431 37.8747C32.221 37.875 32.204 37.8753 32.1924 37.8754C32.1866 37.8755 32.1822 37.8756 32.1791 37.8757C32.1776 37.8757 32.1764 37.8757 32.1756 37.8757C32.1752 37.8757 32.1748 37.8757 32.1746 37.8757C32.1745 37.8757 32.1744 37.8757 32.1743 37.8757C32.1742 37.8757 32.1741 37.8757 32.1913 38.8756ZM42.6344 39.0077C40.5076 32.2929 34.7349 29.2968 33.4739 28.599L32.5055 30.3489C33.7767 31.0524 38.8625 33.7225 40.7277 39.6116L42.6344 39.0077Z" fill="white" mask="url(#path-2-inside-1_8_943)"/>
</g>
<path fill-rule="evenodd" clip-rule="evenodd" d="M52.0186 24.4973C52.0186 24.4973 52.9197 26.3441 53.6725 26.9839C53.1098 26.9458 52.5623 26.5307 52.0756 25.8529C51.5852 25.1751 52.0186 24.4973 52.0186 24.4973ZM41.8673 39.3823C39.5367 32.3796 34.1721 30.133 31.9707 28.6365C29.7732 27.14 26.6061 21.1921 31.4879 18.9493C36.3696 16.7026 45.1902 23.3055 45.1902 23.3055C45.1902 23.3055 44.8252 26.4393 46.3194 27.654C47.8136 28.8688 51.338 30.0263 53.0299 31.1268C54.7218 32.2273 58.5542 35.4183 59.2614 36.6901C60.729 35.0527 63.2079 33.4991 63.915 33.0765C61.0673 32.8784 57.8433 30.7536 57.0144 30.0987C56.1856 29.4437 55.3529 28.5299 55.3644 28.3623C55.3758 28.1948 55.7598 28.0158 55.9042 28.0158C56.0487 28.0158 56.0107 27.4636 55.8434 27.2504C55.6761 27.0372 54.9689 26.2071 54.5393 25.693C54.1097 25.1789 51.6574 20.8798 51.551 20.6514C51.4445 20.4229 51.1784 20.4115 50.7145 20.4496C50.2469 20.4838 48.0607 20.8075 48.0607 20.8075C48.0607 20.8075 46.7947 19.4785 46.7262 19.2843C44.8443 17.4223 42.814 15.2975 40.5632 13.7287C39.3922 12.712 37.5711 12.3616 37.5711 12.3616C37.5711 12.3616 36.2061 9.06402 33.5295 8.34814C35.229 9.99695 35.2442 11.7828 35.2442 11.7828C35.2442 11.7828 33.8793 11.3982 31.7426 11.4478C31.1115 10.3968 29.1877 9.71136 27.3133 10.0465C28.9938 10.591 29.6059 11.958 29.6059 11.958C29.6059 11.958 27.5072 12.3426 26.6479 13.0432C26.1233 12.3769 23.4429 12.5863 22.3593 13.6754C23.5151 13.4126 25.0017 13.7782 25.2488 14.079C23.4999 15.0081 23.0969 16.7102 23.0969 16.7102C23.0969 16.7102 20.4545 16.8321 19.6827 18.8312C20.8537 18.0239 22.1844 18.321 22.1844 18.321C22.1844 18.321 21.0818 20.0573 21.2035 21.8432C20.3443 22.2811 19.4546 23.8233 19.504 24.7182C20.0477 23.5606 21.1313 23.3169 21.1313 23.3169C21.1313 23.3169 20.6978 27.635 22.7243 30.4871C24.7546 33.3392 27.7809 37.6764 28.0243 39.2528C24.7546 39.1919 7.34526 42.2915 0.836258 47.0056C8.09425 44.0545 17.2418 40.8407 34.6131 40.8407C51.9844 40.8407 67.2912 47.0932 67.2912 47.0932C67.2912 47.0932 55.0222 40.399 41.8711 39.3861" fill="white"/>
<path fill-rule="evenodd" clip-rule="evenodd" d="M59.8432 54.0693H58.4668V51.4229H59.7519C60.0637 51.4229 60.288 51.4305 60.5389 51.4686C61.3145 51.5676 61.7556 51.9712 61.7556 52.7404C61.7556 53.5096 61.2651 53.9932 60.4971 54.0541C60.2386 54.0732 60.0865 54.0732 59.8432 54.0732M61.8012 55.6306C61.7289 54.949 61.4438 54.3968 60.9001 54.2064C61.6225 54.0541 62.1243 53.5096 62.1243 52.7137C62.1243 51.7922 61.5616 51.2896 60.6226 51.1754C60.3374 51.1411 60.0675 51.1297 59.7557 51.1297H58.1285V57.3022H58.4668V54.3664H59.8317C59.9762 54.3664 60.1815 54.3664 60.3678 54.374C61.0826 54.4121 61.3792 55.0023 61.459 55.6801C61.5578 56.5368 61.6833 56.9062 61.824 57.2984H62.208C62.0217 56.9214 61.8962 56.5216 61.7974 55.6268M53.4178 54.3549H56.6875V54.0693H53.4178V51.4114H56.8928V51.1259H53.0794V57.2984H56.9841V57.0014H53.4178V54.3511V54.3549ZM47.2548 51.4114H49.5702V57.2984H49.9086V51.4114H52.2316V51.1259H47.2548V51.4114ZM45.9811 51.1259V54.4082C45.9811 55.2117 45.9811 56.1713 46.0001 56.9747L42.4795 51.1221H41.9624V57.2946H42.3008V54.0008C42.3008 53.1935 42.3008 52.2454 42.2818 51.4419L45.791 57.2946H46.3195L46.3119 51.1221H45.9811V51.1259ZM40.1565 55.1698C40.1565 55.3754 40.1489 55.5468 40.1299 55.7258C40.0576 56.5026 39.5405 57.1309 38.4228 57.1309C37.305 57.1309 36.7955 56.5064 36.7271 55.7258C36.7081 55.5468 36.7005 55.3754 36.7005 55.1698V51.1259H36.3621V55.1622C36.3621 55.3145 36.3697 55.5011 36.3887 55.7524C36.4609 56.7196 37.1301 57.4241 38.4266 57.4241C39.723 57.4241 40.3998 56.7158 40.472 55.7524C40.491 55.5011 40.4986 55.3145 40.4986 55.1622V51.1259H40.1603V55.1698H40.1565ZM32.5639 52.0854H29.0433V48.4794H26.7469V57.2984H29.0433V53.8751H32.5639V57.2984H34.8603V48.4794H32.5639V52.0854ZM20.7663 51.4114H23.0817V57.2984H23.4201V51.4114H25.7431V51.1259H20.7663V51.4114ZM16.6336 54.3549H19.9033V54.0693H16.6336V51.4114H20.1086V51.1259H16.2952V57.2984H20.1998V57.0014H16.6374V54.3511L16.6336 54.3549ZM12.4438 52.2492C12.4438 52.7594 12.4552 53.6695 12.5198 54.5606L9.17788 48.4756H6.31879V57.2946H8.61519V53.6505C8.61519 53.1402 8.61519 52.3596 8.53915 51.4648L11.7442 57.2946H14.744V48.4756H12.4476V52.2454L12.4438 52.2492Z" fill="white"/>
<path fill-rule="evenodd" clip-rule="evenodd" d="M40.6013 47.1008H41.3313V42.5161H40.6013V47.1008ZM36.9324 42.5161H36.2024V47.1008H39.3695V46.4953H36.9324V42.5161ZM32.3434 45.0065L32.9783 43.1178L33.5828 45.0065H32.3434ZM32.5221 42.5161L30.8758 47.1008H31.6514L32.1495 45.5853H33.7767L34.2748 47.1008H35.0656L33.465 42.5161H32.5221ZM29.4501 42.5161L27.321 44.8503V42.5161H26.591V47.1008H27.321V45.6271L27.7278 45.1892L29.2334 47.1046H30.2105L28.2601 44.7399L30.3169 42.5199H29.4539L29.4501 42.5161Z" fill="white"/>
</g>
<defs>
<clipPath id="clip0_8_943">
<rect width="66.4511" height="56.9581" fill="white" transform="translate(0.83252 0.46582)"/>
</clipPath>
</defs>
</svg>
