<svg xmlns="http://www.w3.org/2000/svg" xml:space="preserve" id="Layer_1" x="0" y="0" style="enable-background:new 0 0 288 288" version="1.1" viewBox="0 0 288 288"><style>.st2{opacity:.9}.st3{fill:#fff}</style><switch><g><linearGradient id="SVGID_1_" x1="-2138.216" x2="-2138.216" y1="-3000.121" y2="-2822.609" gradientUnits="userSpaceOnUse"><stop offset="0" style="stop-color:#00ba00"/><stop offset="1" style="stop-color:#007124;stop-opacity:0"/></linearGradient><path d="M-2062.3-2892.4c0-4.6-3.1-8.4-7.3-9.5v-26.9c0-20.2-14.1-37.2-33-41.7-.7-4.8-4.8-8.5-9.8-8.5-5 0-9.1 3.7-9.8 8.5-18.9 4.4-33 21.4-33 41.7v5.8c-4.2 1.1-7.3 5-7.3 9.5 0 5.5 4.4 9.9 9.9 9.9.1 6.9.3 19.3.4 25.5h-.4c-1.4 0-2.6 1.2-2.6 2.6v17.5l-16.9 16.9c-1.4-.8-3.1-1.3-4.9-1.3-5.5 0-9.9 4.4-9.9 9.9 0 1.8.5 3.5 1.3 4.9l-16.1 16.1c-13.3 13.3-16 33.4-8 49.4-1.9 1.8-3 4.3-3 7.1 0 5.5 4.4 9.9 9.9 9.9 2.1 0 4.1-.7 5.7-1.8 7.4 5.6 16.3 8.6 25.7 8.6 11.4 0 22.2-4.5 30.3-12.5l8.4-8.4c1.5.9 3.2 1.4 5.1 1.4 5.5 0 9.9-4.4 9.9-9.9 0-1.9-.5-3.6-1.4-5.1l28.4-28.4c8.1-8.1 12.5-18.8 12.5-30.3v-.1c5.6-7.5 8.6-16.3 8.6-25.7v-25.2c4.2-1.5 7.3-5.4 7.3-9.9zm-8.4-9.8h-.2.2zm-31.8-66.9v.8-1.6.8zm-19.7-.8v1.6-.8c-.1-.3-.1-.6 0-.8zm-31.7 46.5h-.2.2zm-17.1 82.8zm-13.8 13.8zm-11.3 78.8s0-.1 0 0c0-.1 0 0 0 0z" style="fill:url(#SVGID_1_)"/><linearGradient id="SVGID_00000103249655883452542550000004590841908292312493_" x1="-2138.216" x2="-2138.216" y1="-2719.612" y2="-2877.95" gradientUnits="userSpaceOnUse"><stop offset="0" style="stop-color:#00ba00"/><stop offset="1" style="stop-color:#007124;stop-opacity:0"/></linearGradient><path d="M-2062.3-2892.4c0-4.6-3.1-8.4-7.3-9.5v-26.9c0-20.2-14.1-37.2-33-41.7-.7-4.8-4.8-8.5-9.8-8.5-5 0-9.1 3.7-9.8 8.5-18.9 4.4-33 21.4-33 41.7v5.8c-4.2 1.1-7.3 5-7.3 9.5 0 5.5 4.4 9.9 9.9 9.9.1 6.9.3 19.3.4 25.5h-.4c-1.4 0-2.6 1.2-2.6 2.6v17.5l-16.9 16.9c-1.4-.8-3.1-1.3-4.9-1.3-5.5 0-9.9 4.4-9.9 9.9 0 1.8.5 3.5 1.3 4.9l-16.1 16.1c-13.3 13.3-16 33.4-8 49.4-1.9 1.8-3 4.3-3 7.1 0 5.5 4.4 9.9 9.9 9.9 2.1 0 4.1-.7 5.7-1.8 7.4 5.6 16.3 8.6 25.7 8.6 11.4 0 22.2-4.5 30.3-12.5l8.4-8.4c1.5.9 3.2 1.4 5.1 1.4 5.5 0 9.9-4.4 9.9-9.9 0-1.9-.5-3.6-1.4-5.1l28.4-28.4c8.1-8.1 12.5-18.8 12.5-30.3v-.1c5.6-7.5 8.6-16.3 8.6-25.7v-25.2c4.2-1.5 7.3-5.4 7.3-9.9zm-8.4-9.8h-.2.2zm-31.8-66.9v.8-1.6.8zm-19.7-.8v1.6-.8c-.1-.3-.1-.6 0-.8zm-31.7 46.5h-.2.2zm-17.1 82.8zm-13.8 13.8zm-11.3 78.8s0-.1 0 0c0-.1 0 0 0 0z" style="fill:url(#SVGID_00000103249655883452542550000004590841908292312493_)"/><g class="st2"><path d="m-2175.9-2884.7 2.1 11.4 23.4-7-25.5-4.4M-2151.4-2901.6l-8.8 4.8 20.6 13.5zM-2134.4-2886.5l21-4.8-5.9-7.1-15.1 11.9 21-4.8M-2152.6-2903.7c-5.5 0-9.9-4.4-9.9-9.9s4.4-9.9 9.9-9.9 9.9 4.4 9.9 9.9-4.5 9.9-9.9 9.9zm0-14.6c-2.6 0-4.7 2.1-4.7 4.7s2.1 4.7 4.7 4.7 4.7-2.1 4.7-4.7-2.1-4.7-4.7-4.7zM-2177-2822.9c-5.5 0-9.9-4.4-9.9-9.9s4.4-9.9 9.9-9.9 9.9 4.4 9.9 9.9-4.4 9.9-9.9 9.9zm0-14.6c-2.6 0-4.7 2.1-4.7 4.7s2.1 4.7 4.7 4.7 4.7-2.1 4.7-4.7-2.1-4.7-4.7-4.7zM-2072.1-2882.5c-5.5 0-9.9-4.4-9.9-9.9s4.4-9.9 9.9-9.9 9.9 4.4 9.9 9.9c-.1 5.4-4.5 9.9-9.9 9.9zm0-14.7c-2.6 0-4.7 2.1-4.7 4.7s2.1 4.7 4.7 4.7 4.7-2.1 4.7-4.7c0-2.5-2.1-4.7-4.7-4.7zM-2127.6-2758.2c-5.5 0-9.9-4.4-9.9-9.9s4.4-9.9 9.9-9.9 9.9 4.4 9.9 9.9c-.1 5.4-4.5 9.9-9.9 9.9zm0-14.6c-2.6 0-4.7 2.1-4.7 4.7s2.1 4.7 4.7 4.7 4.7-2.1 4.7-4.7-2.1-4.7-4.7-4.7zM-2112.4-2959.3c-5.5 0-9.9-4.4-9.9-9.9s4.4-9.9 9.9-9.9 9.9 4.4 9.9 9.9-4.4 9.9-9.9 9.9zm0-14.6c-2.6 0-4.7 2.1-4.7 4.7s2.1 4.7 4.7 4.7 4.7-2.1 4.7-4.7c.1-2.6-2.1-4.7-4.7-4.7z" class="st3"/><path d="m-2119.3-2962.1-27.5 40.5c.9.7 1.8 1.6 2.4 2.5l27.9-41.1c-1-.4-1.9-1.1-2.8-1.9zM-2202.8-2745.4c-5.5 0-9.9-4.4-9.9-9.9s4.4-9.9 9.9-9.9 9.9 4.4 9.9 9.9-4.5 9.9-9.9 9.9zm0-14.6c-2.6 0-4.7 2.1-4.7 4.7s2.1 4.7 4.7 4.7 4.7-2.1 4.7-4.7-2.1-4.7-4.7-4.7z" class="st3"/><path d="m-2193.3-2758 57.1-5.1c-.6-1-1-2.1-1.2-3.3l-57.6 5.2c.7.8 1.3 2 1.7 3.2zM-2197.3-2763.5l18.5-59.6c-1.2-.2-2.2-.6-3.2-1.2l-18.5 59.4c1.2.3 2.3.8 3.2 1.4zM-2150-2923.1v-5.8c0-17.6 12.1-32.4 28.5-36.5-.5-1.1-.7-2.4-.7-3.7 0-.5 0-1 .1-1.4-18.9 4.4-33 21.4-33 41.7v5.8c.8-.2 1.7-.4 2.6-.4s1.6.1 2.5.3zM-2102.6-2970.6c.1.5.1.9.1 1.4 0 1.3-.3 2.6-.7 3.7 16.4 4.1 28.5 18.9 28.5 36.5v26.9c.8-.2 1.7-.4 2.6-.4s1.7.1 2.6.4v-26.9c-.1-20.1-14.2-37.1-33.1-41.6z" class="st3"/><path d="m-2136.3-2763.3-8.5 8.5c-7.1 7.1-16.6 11-26.6 11-8.2 0-16-2.6-22.4-7.4-.7 1.6-1.9 3-3.3 4 7.4 5.6 16.3 8.6 25.7 8.6 11.4 0 22.2-4.5 30.3-12.5l8.4-8.4c-1.5-1-2.7-2.3-3.6-3.8zM-2181.9-2824.2c-1.5-.9-2.8-2.1-3.6-3.6l-16.1 16.1c-13.3 13.3-16 33.4-8 49.4 1.2-1.2 2.8-2.1 4.5-2.5-6.9-14.1-4.5-31.6 7.1-43.2l16.1-16.2zM-2074.7-2882.9v25.2c0 6.2-1.5 12.1-4.3 17.5-1.6-8.3-5.7-15.9-11.7-21.9-1.4-1.4-2.9-2.7-4.4-3.9v-62.9c0-9.5-7.7-17.2-17.2-17.2s-17.2 7.7-17.2 17.2v21.2c0 1.4 1.2 2.6 2.6 2.6 1.4 0 2.6-1.2 2.6-2.6v-21.2c0-6.6 5.4-12.1 12.1-12.1 6.6 0 12.1 5.4 12.1 12.1v59.6c-6.3-3.5-13.4-5.4-20.7-5.4-1.1 0-2.3.1-3.4.1v-2.2c0-1.4-1.2-2.6-2.6-2.6-1.4 0-2.6 1.2-2.6 2.6v19.1c0 5.1 2.3 9.9 6.2 13.2 3 2.5 6.9 3.9 10.8 4l.1.1c2.3 2.3 3.5 5.3 3.5 8.5s-1.3 6.2-3.5 8.5l-3.2 3.2c-9.6-.8-18.4-5.3-24.9-12.6-6-6.8-9.3-15.4-9.4-24.5v-18.5c0-1.4-1.2-2.6-2.6-2.6-1.4 0-2.6 1.2-2.6 2.6v17.5l-16.9 16.9c1.5.9 2.8 2.1 3.6 3.6l13.7-13.7c1.1 7.4 4.1 14.3 8.7 20.2l-37.6 37.6c-3.2 3.2-5 7.6-5 12.2s1.8 8.9 5 12.2c3.2 3.2 7.6 5 12.2 5s8.9-1.8 12.2-5l46.4-46.4 4-4c3.2-3.2 5-7.6 5-12.2s-1.8-8.9-5-12.2c-.4-.4-.7-.7-1.1-1-3-2.5-6.8-3.9-10.8-4-2.3-2.3-3.6-5.4-3.6-8.6v-11.7c9-.8 17.9 1.6 25.2 6.8 1.8 1.2 3.4 2.6 4.9 4.1 6.9 6.9 10.8 16 11 25.8v.9c0 10.1-3.9 19.5-11 26.6l-28.5 28.5c1.5.8 2.8 2.1 3.7 3.6l28.4-28.4c8.1-8.1 12.5-18.8 12.5-30.3v-.1c5.6-7.5 8.6-16.3 8.6-25.7v-25.2c-.8.2-1.7.4-2.6.4s-1.9-.3-2.7-.5zm-88.2 110c-2.3 2.3-5.3 3.5-8.5 3.5s-6.2-1.3-8.5-3.5c-2.3-2.3-3.5-5.3-3.5-8.5s1.3-6.3 3.5-8.5l37.4-37.4c6.2 6.1 13.9 10.2 22.3 11.8l-42.7 42.6z" class="st3"/><path d="M-2084.3-2840.2c-.5-2.2-1.2-4.4-2.1-6.4l-37.7-13.1h-.3v2.1c0 .5 0 1 .1 1.5l37.7 13.1-37.4 65.8c.5.2 1 .4 1.4.7-.1-.1-.2-.1-.3-.2l5.7-5.7 32.9-57.8z" class="st3"/><path d="M-2112.5-2840.4s-.1 0 0 0c-.6-.1-1.1-.1-1.6-.2l-12 15.7-24-44.8v7.3l20.4 38.1c1.8.9 3.7 1.7 5.6 2.3l12.9-16.9c-.3-.4-.8-1-1.3-1.5zM-2078.9-2899.6l-16.2-14.4v4.6l14.2 12.6c.4-1.1 1.1-2 2-2.8zM-2079.4-2885.8l-13.1 22c.6.5 1.2 1.1 1.8 1.6.3.3.5.6.8.8l13.3-22.4c-1.1-.4-2-1.1-2.8-2z" class="st3"/></g><linearGradient id="SVGID_00000020393810318718998320000006824396456431002797_" x1="144" x2="144" y1="2.722" y2="180.234" gradientUnits="userSpaceOnUse"><stop offset="0" style="stop-color:#00ba00"/><stop offset="1" style="stop-color:#007124;stop-opacity:0"/></linearGradient><path d="M220 110.4c0-4.6-3.1-8.4-7.3-9.5v-27c0-20.2-14.1-37.2-33-41.7-.7-4.8-4.8-8.5-9.8-8.5-5 0-9.1 3.7-9.8 8.5-18.9 4.4-33 21.4-33 41.7v5.8c-4.2 1.1-7.3 5-7.3 9.5 0 5.5 4.4 9.9 9.9 9.9.1 6.9.3 19.3.4 25.5h-.4c-1.4 0-2.6 1.2-2.6 2.6v17.5l-16.9 16.9c-1.4-.8-3.1-1.3-4.9-1.3-5.5 0-9.9 4.4-9.9 9.9 0 1.8.5 3.5 1.3 4.9l-16.1 16.1c-13.3 13.3-16 33.4-8 49.4-1.9 1.8-3 4.3-3 7.1 0 5.5 4.4 9.9 9.9 9.9 2.1 0 4.1-.7 5.7-1.8 7.4 5.6 16.3 8.6 25.7 8.6 11.4 0 22.2-4.5 30.3-12.5l8.4-8.4c1.5.9 3.2 1.4 5.1 1.4 5.5 0 9.9-4.4 9.9-9.9 0-1.9-.5-3.6-1.4-5.1l28.4-28.4c8.1-8.1 12.5-18.8 12.5-30.3v-.1c5.6-7.5 8.6-16.3 8.6-25.7V120c4.1-1.2 7.3-5 7.3-9.6zm-8.5-9.8h-.2.2zm-31.8-66.9v.8-1.6.8zm-19.7-.8v1.6-.8c-.1-.3 0-.5 0-.8zm-31.7 46.6h-.2.2zm-17 82.7c-.1 0-.1 0 0 0-.1 0-.1 0 0 0zm-13.9 13.9zm-11.3 78.7z" style="fill:url(#SVGID_00000020393810318718998320000006824396456431002797_)"/><linearGradient id="SVGID_00000030446529105408900770000000196402594760347834_" x1="144" x2="144" y1="283.231" y2="124.892" gradientUnits="userSpaceOnUse"><stop offset="0" style="stop-color:#00ba00"/><stop offset="1" style="stop-color:#007124;stop-opacity:0"/></linearGradient><path d="M220 110.4c0-4.6-3.1-8.4-7.3-9.5v-27c0-20.2-14.1-37.2-33-41.7-.7-4.8-4.8-8.5-9.8-8.5-5 0-9.1 3.7-9.8 8.5-18.9 4.4-33 21.4-33 41.7v5.8c-4.2 1.1-7.3 5-7.3 9.5 0 5.5 4.4 9.9 9.9 9.9.1 6.9.3 19.3.4 25.5h-.4c-1.4 0-2.6 1.2-2.6 2.6v17.5l-16.9 16.9c-1.4-.8-3.1-1.3-4.9-1.3-5.5 0-9.9 4.4-9.9 9.9 0 1.8.5 3.5 1.3 4.9l-16.1 16.1c-13.3 13.3-16 33.4-8 49.4-1.9 1.8-3 4.3-3 7.1 0 5.5 4.4 9.9 9.9 9.9 2.1 0 4.1-.7 5.7-1.8 7.4 5.6 16.3 8.6 25.7 8.6 11.4 0 22.2-4.5 30.3-12.5l8.4-8.4c1.5.9 3.2 1.4 5.1 1.4 5.5 0 9.9-4.4 9.9-9.9 0-1.9-.5-3.6-1.4-5.1l28.4-28.4c8.1-8.1 12.5-18.8 12.5-30.3v-.1c5.6-7.5 8.6-16.3 8.6-25.7V120c4.1-1.2 7.3-5 7.3-9.6zm-8.5-9.8h-.2.2zm-31.8-66.9v.8-1.6.8zm-19.7-.8v1.6-.8c-.1-.3 0-.5 0-.8zm-31.7 46.6h-.2.2zm-17 82.7c-.1 0-.1 0 0 0-.1 0-.1 0 0 0zm-13.9 13.9zm-11.3 78.7z" style="fill:url(#SVGID_00000030446529105408900770000000196402594760347834_)"/><g class="st2"><path d="m106.3 118.1 2.1 11.5 23.5-7-25.6-4.5M130.8 101.3 122 106l20.6 13.6zM147.8 116.3l21-4.8-5.9-7.1-15.1 11.9 21-4.8M129.6 99.2c-5.5 0-9.9-4.4-9.9-9.9s4.4-9.9 9.9-9.9 9.9 4.4 9.9 9.9c0 5.4-4.5 9.9-9.9 9.9zm0-14.7c-2.6 0-4.7 2.1-4.7 4.7s2.1 4.7 4.7 4.7 4.7-2.1 4.7-4.7c0-2.5-2.1-4.7-4.7-4.7zM105.2 180c-5.5 0-9.9-4.4-9.9-9.9s4.4-9.9 9.9-9.9 9.9 4.4 9.9 9.9c0 5.4-4.4 9.9-9.9 9.9zm0-14.7c-2.6 0-4.7 2.1-4.7 4.7s2.1 4.7 4.7 4.7 4.7-2.1 4.7-4.7c.1-2.5-2-4.7-4.7-4.7zM210.1 120.3c-5.5 0-9.9-4.4-9.9-9.9s4.4-9.9 9.9-9.9 9.9 4.4 9.9 9.9-4.5 9.9-9.9 9.9zm0-14.6c-2.6 0-4.7 2.1-4.7 4.7s2.1 4.7 4.7 4.7 4.7-2.1 4.7-4.7-2.1-4.7-4.7-4.7zM154.6 244.6c-5.5 0-9.9-4.4-9.9-9.9s4.4-9.9 9.9-9.9 9.9 4.4 9.9 9.9-4.5 9.9-9.9 9.9zm0-14.6c-2.6 0-4.7 2.1-4.7 4.7s2.1 4.7 4.7 4.7 4.7-2.1 4.7-4.7-2.1-4.7-4.7-4.7zM169.8 43.6c-5.5 0-9.9-4.4-9.9-9.9s4.4-9.9 9.9-9.9 9.9 4.4 9.9 9.9-4.4 9.9-9.9 9.9zm0-14.6c-2.6 0-4.7 2.1-4.7 4.7s2.1 4.7 4.7 4.7 4.7-2.1 4.7-4.7c.1-2.6-2-4.7-4.7-4.7z" class="st3"/><path d="m163 40.8-27.5 40.5c.9.7 1.8 1.6 2.4 2.5l27.9-41.1c-1.1-.5-2-1.1-2.8-1.9zM79.4 257.5c-5.5 0-9.9-4.4-9.9-9.9s4.4-9.9 9.9-9.9 9.9 4.4 9.9 9.9-4.4 9.9-9.9 9.9zm0-14.7c-2.6 0-4.7 2.1-4.7 4.7s2.1 4.7 4.7 4.7 4.7-2.1 4.7-4.7-2.1-4.7-4.7-4.7z" class="st3"/><path d="m88.9 244.8 57.1-5.1c-.6-1-1-2.1-1.2-3.3l-57.6 5.2c.7.9 1.3 2 1.7 3.2zM84.9 239.4l18.5-59.6c-1.2-.2-2.2-.6-3.2-1.2L81.8 238c1.1.3 2.2.7 3.1 1.4zM132.2 79.7v-5.8c0-17.6 12.1-32.4 28.5-36.5-.5-1.1-.7-2.4-.7-3.7 0-.5 0-1 .1-1.4-18.9 4.4-33 21.4-33 41.7v5.8c.8-.2 1.7-.4 2.6-.4.8 0 1.6.1 2.5.3zM179.6 32.3c.1.5.1.9.1 1.4 0 1.3-.3 2.6-.7 3.7 16.4 4.1 28.5 18.9 28.5 36.5v26.9c.8-.2 1.7-.4 2.6-.4s1.7.1 2.6.4V73.9c-.1-20.2-14.2-37.2-33.1-41.6z" class="st3"/><path d="m145.9 239.5-8.5 8.5c-7.1 7.1-16.6 11-26.6 11-8.2 0-16-2.6-22.4-7.4-.7 1.6-1.9 3-3.3 4 7.4 5.6 16.3 8.6 25.7 8.6 11.4 0 22.2-4.5 30.3-12.5l8.4-8.4c-1.5-1-2.7-2.2-3.6-3.8zM100.3 178.6c-1.5-.9-2.8-2.1-3.6-3.6l-16.1 16.1c-13.3 13.3-16 33.4-8 49.4 1.2-1.2 2.8-2.1 4.5-2.5-6.9-14.1-4.5-31.6 7.1-43.2l16.1-16.2zM207.5 120v25.2c0 6.2-1.5 12.1-4.3 17.5-1.6-8.3-5.7-15.9-11.7-21.9-1.4-1.4-2.9-2.7-4.4-3.9v-63c0-9.5-7.7-17.2-17.2-17.2s-17.2 7.7-17.2 17.2v21.2c0 1.4 1.2 2.6 2.6 2.6 1.4 0 2.6-1.2 2.6-2.6V73.9c0-6.6 5.4-12.1 12.1-12.1 6.6 0 12.1 5.4 12.1 12.1v59.6c-6.3-3.5-13.4-5.4-20.7-5.4-1.1 0-2.3.1-3.4.1V126c0-1.4-1.2-2.6-2.6-2.6-1.4 0-2.6 1.2-2.6 2.6v19.1c0 5.1 2.3 9.9 6.2 13.2 3 2.5 6.9 3.9 10.8 4l.1.1c2.3 2.3 3.5 5.3 3.5 8.5s-1.3 6.2-3.5 8.5l-3.2 3.2c-9.6-.8-18.4-5.3-24.9-12.6-6-6.8-9.3-15.4-9.4-24.5V127c0-1.4-1.2-2.6-2.6-2.6-1.4 0-2.6 1.2-2.6 2.6v17.5l-16.9 16.9c1.5.9 2.8 2.1 3.6 3.6l13.7-13.7c1.1 7.4 4.1 14.3 8.7 20.2l-37.6 37.6c-3.2 3.2-5 7.6-5 12.2s1.8 8.9 5 12.2c3.2 3.2 7.6 5 12.2 5s8.9-1.8 12.2-5l46.4-46.4 4-4c3.2-3.2 5-7.6 5-12.2s-1.8-8.9-5-12.2c-.4-.4-.7-.7-1.1-1-3-2.5-6.8-3.9-10.8-4-2.3-2.3-3.6-5.4-3.6-8.6v-11.7c9-.8 17.9 1.6 25.2 6.8 1.8 1.2 3.4 2.6 4.9 4.1 6.9 6.9 10.8 16 11 25.8v.9c0 10.1-3.9 19.5-11 26.6l-28.5 28.5c1.5.8 2.8 2.1 3.7 3.6l28.4-28.4c8.1-8.1 12.5-18.8 12.5-30.3v-.1c5.6-7.5 8.6-16.3 8.6-25.7V120c-.8.2-1.7.4-2.6.4s-1.9-.2-2.7-.4zm-88.2 109.9c-2.3 2.3-5.3 3.5-8.5 3.5s-6.2-1.3-8.5-3.5c-2.3-2.3-3.5-5.3-3.5-8.5s1.3-6.3 3.5-8.5l37.4-37.4c6.2 6.1 13.9 10.2 22.3 11.8l-42.7 42.6z" class="st3"/><path d="M197.9 162.7c-.5-2.2-1.2-4.4-2.1-6.4l-37.7-13.1h-.3v2.1c0 .5 0 1 .1 1.5l37.7 13.1-37.4 65.8c.5.2 1 .4 1.4.7-.1-.1-.2-.1-.3-.2l5.7-5.7 32.9-57.8z" class="st3"/><path d="M169.7 162.5c0-.1 0-.1 0 0-.6-.1-1.1-.1-1.6-.2l-12 15.7-24-44.8v7.3l20.4 38.1c1.8.9 3.7 1.7 5.6 2.3L171 164c-.3-.5-.8-1-1.3-1.5zM203.3 103.2 187 88.8v4.6l14.2 12.6c.6-1 1.2-2 2.1-2.8zM202.8 117.1l-13.1 22c.6.5 1.2 1.1 1.8 1.6.3.3.5.6.8.8l13.3-22.4c-1.1-.5-2-1.2-2.8-2z" class="st3"/></g></g></switch></svg>