<svg xmlns="http://www.w3.org/2000/svg" xml:space="preserve" id="Layer_1" x="0" y="0" style="enable-background:new 0 0 288 288" version="1.1" viewBox="0 0 288 288"><style>.st2{fill:#fff}</style><switch><g><linearGradient id="SVGID_1_" x1="144" x2="144" y1="32.264" y2="259.454" gradientUnits="userSpaceOnUse"><stop offset="0" style="stop-color:#00d9f2"/><stop offset="1" style="stop-color:#005c84;stop-opacity:0"/></linearGradient><path d="M223.8 75.6c-3.8-2.2-8.6-1.2-11.3 2l-16.9-7.2c-.7-.3-1.5-.2-2.2.2l-.1.1-11.3 5.4v-10c0-.9-.5-1.7-1.4-2.1L146 49.1V8.3c0-1.3-1-2.3-2.3-2.3-1.3 0-2.3 1-2.3 2.3v1.1c-2.7-.1-7.2 0-12.2 1-10.6 2.2-18.5 7.5-22.6 15.5-5.1 9.8-20.4 4-20.5 4-1-.4-2.1 0-2.7.8-.6.9-.5 2 .1 2.8.7.8 13.5 15.2 25.7 15.2 2.9 0 5.7-.8 8.3-2.7 9.1-6.8 20.3-2.6 23.8-1v4.1L106.8 64c-.8.4-1.4 1.2-1.4 2.1v10L94 70.7l-.1-.1c-.6-.4-1.4-.5-2.2-.2l-16.5 7.1c-.6-.7-1.4-1.4-2.3-1.9-4.2-2.4-9.7-1-12.1 3.2-2.4 4.2-1 9.7 3.2 12.1.5.3 1 .5 1.5.7v106.9c.1 1.9.4 3.8.9 5.8v.2c7 28.7 50.9 56.4 68.7 66.6-.9 3.7.7 7.7 4.2 9.7 1.4.8 2.9 1.2 4.4 1.2 3.1 0 6.1-1.6 7.7-4.4 1.2-2.1 1.5-4.5.9-6.7 19.3-11.1 67.5-41.7 69.3-72.5V91.8c2.1-.6 4-2 5.2-4.1 2.7-4.2 1.2-9.6-3-12.1z" style="fill:url(#SVGID_1_)"/><g style="opacity:.9"><path d="M223.8 75.6c-3.8-2.2-8.6-1.2-11.3 2l-16.9-7.2c-.7-.3-1.5-.2-2.2.2l-.1.1-11.3 5.4v-10c0-.9-.5-1.7-1.4-2.1L146 49.1V8.3c0-1.3-1-2.3-2.3-2.3s-2.3 1-2.3 2.3v1.1c-2.7-.1-7.2 0-12.2 1-10.6 2.2-18.5 7.5-22.6 15.5-5.1 9.8-20.4 4-20.5 4-1-.4-2.1 0-2.7.8-.6.9-.5 2 .1 2.8.7.8 13.5 15.2 25.7 15.2 2.9 0 5.7-.8 8.3-2.7 9.1-6.8 20.3-2.6 23.8-1v4.1L106.8 64c-.8.4-1.4 1.2-1.4 2.1v10L94 70.7l-.1-.1c-.6-.4-1.4-.5-2.2-.2l-16.5 7.1c-.6-.7-1.4-1.4-2.3-1.9-4.2-2.4-9.7-1-12.1 3.2-2.4 4.2-1 9.7 3.2 12.1.5.3 1 .5 1.5.7v106.9c.1 1.9.4 3.8.9 5.8v.2c7 28.7 50.9 56.4 68.7 66.6-.9 3.7.7 7.7 4.2 9.7 1.4.8 2.9 1.2 4.4 1.2 3.1 0 6.1-1.6 7.7-4.4 1.2-2.1 1.5-4.5.9-6.7 19.3-11.1 67.5-41.7 69.3-72.5V91.8c2.1-.6 4-2 5.2-4.1 2.7-4.2 1.2-9.6-3-12.1zm-11.7 2.6c-.1.2-.3.4-.4.6.1-.2.2-.4.4-.6zM182 81c.2 0 .4-.1.6-.2l9.9-4.7V90L182 85.5V81zm-36-26.9 31.5 13.5V87c0 .9.5 1.7 1.4 2.1l15 6.4c.7.3 1.5.2 2.2-.2.6-.4 1-1.1 1-1.9V76l13.6 5.8c-.6 3.6 1 7.3 4.3 9.2.7.4 1.5.7 2.3.9v62.8l-48-20.6c-.8-.3-1.7 0-2 .8-.3.8 0 1.7.8 2l9.2 4v20.4L146 147.8V54.1zm65.7 24.8c-.1.2-.3.5-.4.7.1-.2.2-.5.4-.7zm-.6 1.2c0 .1-.1.2-.1.2s0-.1.1-.2zm-.3.9zm-5.8 71.8v20.5l-24.8-10.7c0-.1.1-.3.1-.4v-20l24.7 10.6zm-59-1.7 43.9 19V189L146 170.2v-19.1zM114.9 42.4c-6.7 5-16.2-1.2-22.2-6.3 6.6.6 14.1-.8 17.9-8 7.1-13.6 24.8-14.3 30.8-14.1v26.1c-5.4-2.1-16.6-5-26.5 2.3zM95 76.2l9.9 4.7c.2.1.4.1.6.2v4.5L95 90V76.2zM76.3 87.7c1.1-1.9 1.4-4.1 1-6.1L90.5 76v17.5c0 .8.4 1.5 1 1.9.6.4 1.4.5 2.2.2l15-6.4c.8-.4 1.4-1.2 1.4-2.1V67.6l31.5-13.5v70.1l-71.2 30.6V92c.2 0 .5-.1.7-.1 2.1-.6 4.1-2.1 5.2-4.2zm-.2-9.3zm1 2.1zm54.1 73.3c-.3-.8-1.2-1.1-2-.8l-24.3 10.4v-19.8c0-.2 0-.3-.1-.5l36.6-15.7v42.7l-17.4 7.5v-19.1l6.4-2.7c.8-.3 1.1-1.2.8-2zm-37.1 17.6 26.9-11.5v18.4c0 .2.1.5.2.7l-26.8 11.5v-18.1c0-.5-.1-.8-.3-1zM70.3 158l31.6-13.6v20.3l-31.6 13.6V158zm-5.4-76.9c1.2-2.1 3.8-2.8 5.9-1.6 2.1 1.2 2.8 3.8 1.6 5.9-.6 1-1.5 1.7-2.6 2-1.1.3-2.3.1-3.3-.4-2.1-1.1-2.8-3.8-1.6-5.9zm2 10.9c.1 0 .3.1.4.1-.2-.1-.3-.1-.4-.1zm.8.1c.3 0 .6.1.9.1-.3 0-.6 0-.9-.1zm.9.1c.3 0 .6 0 .9-.1-.3.1-.6.1-.9.1zm1.7 106.2v-16.8l21.1-9.1v19.1l-20.9 9c-.1-.7-.2-1.5-.2-2.2zm65.4 71.5c0-.1.1-.2.1-.2-.1.1-.1.2-.1.2zm1.1-2.1s.1 0 0 0c.1 0 0 0 0 0zm10.9 7.4c-1.2 2.1-3.8 2.8-5.9 1.6-2.1-1.2-2.8-3.8-1.6-5.9.8-1.4 2.3-2.2 3.8-2.2.7 0 1.5.2 2.2.6 2 1.2 2.7 3.9 1.5 5.9zm4.4-5.6s0 .1.1.1c0 0-.1 0-.1-.1zm-.5-.9c.1 0 .1 0 0 0 .1 0 .1 0 0 0zm-1.3-1.9c-.5-.6-1.2-1-1.9-1.5-3.6-2.1-8.1-1.3-10.9 1.6-15.5-9-51.5-31.5-63.4-55.3l68.1-29.2v75c0 .8.7 1.5 1.5 1.5s1.5-.7 1.5-1.5v-75l68.1 29.2c-11.9 23.7-47.4 46.2-63 55.2zm64.3-57.8-70.2-30.1c-.1 0-.1 0-.2-.1h-.8c-.1 0-.1 0-.2.1L72.9 209c-.5-1.3-1-2.5-1.4-3.8l72.3-31 72.2 31c-.4 1.2-.9 2.5-1.4 3.8zm2.4-8.3-24.1-10.3v-19l17.3 7.5c.2.1.4.1.6.1.6 0 1.1-.3 1.4-.9.3-.8 0-1.7-.8-2l-3.4-1.5v-20.5l9.2 3.9v40.2c0 .8-.1 1.6-.2 2.5zm1.3-108.6c.3 0 .7.1 1 .1-.3 0-.7 0-1-.1zm2.3 0zm2.5-6.6c-1.2 2.1-3.8 2.8-5.9 1.6-2.1-1.2-2.8-3.8-1.6-5.9.8-1.4 2.3-2.2 3.8-2.2.7 0 1.5.2 2.2.6 2 1.2 2.7 3.8 1.5 5.9z" class="st2"/><path d="M100.7 208.3c-.6-.4-1.4-.5-2.2-.2l-9.2 3.9c-.8.4-1.4 1.2-1.4 2.1v5.1c0 .8.4 1.5 1.1 1.9l9.2 5.8c.4.2.8.3 1.2.3.4 0 .8-.1 1.1-.3.7-.4 1.2-1.2 1.2-2V210c.1-.6-.3-1.3-1-1.7zm-3.5 12.6-4.6-2.9v-2.4l4.6-2v7.3zM116.5 238c.4 0 .8-.1 1.1-.3.7-.4 1.2-1.2 1.2-2v-32.9c0-.8-.4-1.5-1-1.9-.6-.4-1.4-.5-2.2-.2l-9.2 3.9c-.8.4-1.4 1.2-1.4 2.1V230c0 .8.4 1.5 1.1 1.9l9.2 5.8c.4.2.8.3 1.2.3zm-2.3-6.4-4.6-2.9v-20.4l4.6-2v25.3zM123.1 242.6l8.8 5.5c.4.2.8.3 1.2.3h.4c1.3 0 2.3-1 2.3-2.3v-50.6c0-.8-.4-1.5-1-1.9-.6-.4-1.4-.5-2.2-.2l-9.2 3.9c-.8.4-1.4 1.2-1.4 2.1v41.2c.1.9.5 1.6 1.1 2zm3.5-41.6 4.6-2v43.3l-4.6-2.9V201zM186.9 227c.3.2.7.3 1.1.3.4 0 .8-.1 1.2-.3l9.2-5.8c.7-.4 1.1-1.1 1.1-1.9v-5.1c0-.9-.5-1.7-1.4-2.1l-9.2-3.9c-.7-.3-1.5-.2-2.2.2-.6.4-1 1.1-1 1.9V225c0 .9.5 1.6 1.2 2zm3.4-13.4 4.6 2v2.4l-4.6 2.9v-7.3zM169.9 237.7c.3.2.7.3 1.1.3.4 0 .8-.1 1.2-.3l9.2-5.8c.7-.4 1.1-1.1 1.1-1.9v-23.2c0-.9-.5-1.7-1.4-2.1l-9.2-3.9c-.7-.3-1.5-.2-2.2.2-.6.4-1 1.1-1 1.9v32.9c0 .8.4 1.5 1.2 1.9zm3.3-31.4 4.6 2v20.4l-4.6 2.9v-25.3zM153.9 248.5h.4c.4 0 .8-.1 1.2-.3l8.8-5.5c.7-.4 1.1-1.1 1.1-1.9v-41.2c0-.9-.5-1.7-1.4-2.1l-9.2-3.9c-.7-.3-1.5-.2-2.2.2-.6.4-1 1.1-1 1.9v50.6c.1 1.2 1.1 2.2 2.3 2.2zm2.3-49.5 4.6 2v38.4l-4.6 2.9V199zM150.2 261.6c.3 0 .5-.1.8-.2 1.2-.7 2.4-1.4 3.8-2.2 8.2-4.9 16.1-10 23.2-15.3.7-.5.8-1.4.3-2.1-.5-.7-1.4-.8-2.1-.3-7 5.1-14.9 10.3-23 15.1-1.4.8-2.6 1.5-3.8 2.2-.7.4-1 1.3-.6 2.1.3.4.8.7 1.4.7zM138.1 258.7c-1.1-.7-2.4-1.4-3.8-2.2-8-4.8-16-10-23-15.1-.7-.5-1.6-.3-2.1.3-.5.7-.3 1.6.3 2.1 7.2 5.2 15 10.4 23.2 15.3 1.4.8 2.6 1.6 3.8 2.2.2.1.5.2.8.2.5 0 1-.3 1.3-.8.5-.6.2-1.6-.5-2zM81.8 140.9c.4.3.8.4 1.3.4.3 0 .6-.1.9-.2l41.2-17.5c.8-.4 1.4-1.2 1.4-2.1V91.7c0-.8-.4-1.5-1-1.9-.6-.4-1.4-.5-2.1-.2l-41.2 17.5c-.8.4-1.4 1.2-1.4 2.1V139c-.2.8.2 1.5.9 1.9zm3.5-28.9 9.2 4.4v15.4l-9.2 3.9V112zm36.6 8-24.4 10.4v-14l24.4-9.9v-3.3L96 113.7l-8.4-4 34.3-14.6V120zM206.5 141.3c.4 0 .9-.1 1.3-.4.6-.4 1-1.1 1-1.9v-29.8c0-.9-.5-1.7-1.4-2.1l-41.2-17.5c-.7-.3-1.5-.2-2.1.2-.6.4-1 1.1-1 1.9v29.8c0 .9.5 1.7 1.4 2.1l41.2 17.5c.2.1.5.2.8.2zm-4.6-31.6-8.4 4-25.9-10.5v-8.1l34.3 14.6zm-34.3-3.2 24.4 9.9v14l1.2.5-25.6-10.9v-13.5zm36.6 29.1-9.2-3.9v-15.4l9.2-4.4v-1.3l-.5-.2.5.2v25z" class="st2"/></g></g></switch></svg>