<svg width="129" height="36" viewBox="0 0 129 36" fill="none" xmlns="http://www.w3.org/2000/svg">
<g clip-path="url(#clip0_8_1003)">
<path fill-rule="evenodd" clip-rule="evenodd" d="M41.1957 31.5341H41.5082L42.339 33.9136L43.1779 31.5341H43.4823L42.5199 34.1892H42.1498L41.1957 31.5341ZM46.3446 31.5341H46.6325V33.2708C46.6325 33.3876 46.6325 33.5129 46.6572 33.6298C46.6736 33.6966 46.7065 33.755 46.7559 33.7968C46.8052 33.8385 46.8628 33.8719 46.9204 33.8886C47.0273 33.9136 47.1425 33.922 47.2576 33.9136H47.5373C47.6524 33.9136 47.7676 33.9136 47.8745 33.8886C47.9321 33.8719 47.9897 33.8385 48.039 33.7968C48.0801 33.755 48.113 33.6966 48.1295 33.6381C48.1542 33.5212 48.1624 33.396 48.1542 33.2791V31.5425H48.4421V33.3209C48.5408 33.7216 48.294 34.1307 47.8992 34.2309C47.784 34.256 47.6607 34.256 47.5455 34.2309H47.233C46.8381 34.3311 46.4351 34.0806 46.3364 33.6799C46.3117 33.563 46.3117 33.4377 46.3364 33.3209V31.5425L46.3446 31.5341ZM51.5841 34.1892V31.5341H51.872V33.9136H53.3525V34.1892H51.5841ZM56.256 34.1892V31.5341H56.7001L58.1149 33.9053V31.5341H58.4028V34.1892H57.9586L56.5439 31.818V34.1892H56.256ZM61.5695 34.1892V31.5341H63.4037V31.818H61.8573V32.6863H63.3626V32.9535H61.8573V33.9053H63.4037V34.1808H61.5695V34.1892ZM67.5163 31.818H66.6855V32.8783H67.5163C67.6643 32.895 67.8124 32.8616 67.944 32.7949C68.018 32.7197 68.0591 32.6112 68.0427 32.5026V32.1937C68.0591 32.0852 68.018 31.9766 67.944 31.9015C67.8124 31.8347 67.6643 31.8013 67.5163 31.818ZM66.3977 34.1975V31.5425H67.5739C67.7877 31.5258 67.9933 31.5675 68.1825 31.6761C68.3059 31.8013 68.3635 31.9766 68.347 32.152V32.5527C68.347 32.6696 68.3223 32.7782 68.2648 32.8783C68.2072 32.9618 68.1085 33.0119 68.0098 33.0286C68.1167 33.0453 68.2072 33.1038 68.273 33.1873C68.3306 33.3042 68.3552 33.4294 68.347 33.5546V34.1892H68.0427V33.6465C68.0591 33.5129 68.0262 33.3793 67.9522 33.2624C67.8535 33.1789 67.7301 33.1455 67.6068 33.1622H66.6855V34.1975H66.3977ZM71.8016 33.2541H72.9367L72.4185 31.8263H72.328L71.8098 33.2541H71.8016ZM71.16 34.1975L72.1224 31.5425H72.5994L73.57 34.1975H73.2739L73.0272 33.5212H71.7029L71.4561 34.1975H71.16ZM76.7449 32.6863H77.6908C77.7978 32.703 77.9129 32.6696 78.0034 32.6028C78.0692 32.4943 78.1021 32.3607 78.0856 32.2355C78.0856 32.0518 78.061 31.9349 78.0034 31.8931C77.8718 31.8347 77.7237 31.8096 77.5757 31.8263H76.7614V32.6947L76.7449 32.6863ZM76.7449 33.9136H77.6991C77.8224 33.9303 77.9458 33.8969 78.0527 33.8302C78.1103 33.7717 78.1432 33.6298 78.1432 33.4127C78.1597 33.2791 78.1268 33.1455 78.0445 33.0453C77.88 32.9702 77.6991 32.9368 77.5263 32.9618H76.7532V33.922L76.7449 33.9136ZM76.4571 34.1975V31.5425H77.6744C77.8718 31.5174 78.0692 31.5675 78.2337 31.6677C78.3489 31.818 78.3982 32.01 78.3735 32.2021C78.3818 32.3523 78.3571 32.4943 78.3077 32.6362C78.2584 32.7197 78.1679 32.7865 78.0692 32.8032C78.1844 32.8282 78.2913 32.895 78.3571 32.9952C78.4229 33.1372 78.4476 33.2958 78.4393 33.4544C78.464 33.6632 78.4064 33.8802 78.2666 34.0472C78.061 34.1725 77.8224 34.2226 77.5839 34.1975H76.4571ZM81.4991 34.1975V31.5425H81.787V33.922H83.2675V34.1975H81.4991ZM86.171 34.1975V31.5425H88.0052V31.8263H86.4589V32.6947H87.9641V32.9618H86.4589V33.9136H88.0052V34.1892H86.171V34.1975ZM92.5044 32.6863H93.4503C93.5572 32.703 93.6724 32.6696 93.7629 32.6028C93.8287 32.4943 93.8616 32.3607 93.8451 32.2355C93.8451 32.0518 93.8204 31.9432 93.7629 31.8931C93.6313 31.8347 93.4832 31.8096 93.3352 31.8263H92.5209V32.6947L92.5044 32.6863ZM92.5044 33.9136H93.4585C93.5819 33.9303 93.7053 33.8969 93.8122 33.8302C93.8698 33.7717 93.9027 33.6298 93.9027 33.4127C93.9191 33.2791 93.8862 33.1455 93.804 33.0453C93.6395 32.9702 93.4585 32.9368 93.2858 32.9618H92.5126V33.922L92.5044 33.9136ZM92.2165 34.1975V31.5425H93.4339C93.6313 31.5174 93.8287 31.5675 93.9932 31.6677C94.1083 31.818 94.1577 32.01 94.133 32.2021C94.1412 32.3523 94.1165 32.4943 94.0672 32.6362C94.0178 32.7197 93.9274 32.7865 93.8287 32.8032C93.9438 32.8282 94.0508 32.895 94.1166 32.9952C94.1824 33.1372 94.207 33.2958 94.1988 33.4544C94.2235 33.6632 94.1659 33.8802 94.0261 34.0472C93.8204 34.1725 93.5819 34.2226 93.3434 34.1975H92.2165ZM98.0893 34.1975H97.8014V33.0203L96.7239 31.5425H97.0612L97.9413 32.7782L98.8214 31.5425H99.1668L98.0893 33.0119V34.1892V34.1975ZM103.074 34.1975V31.5425H104.332C104.579 31.5174 104.826 31.5842 105.023 31.7429C105.179 31.9349 105.245 32.1854 105.221 32.4358V33.3125C105.245 33.563 105.171 33.8135 105.023 34.0055C104.826 34.1558 104.579 34.2309 104.332 34.2059H103.074V34.1975ZM103.362 33.9303H104.291C104.472 33.9554 104.653 33.9053 104.793 33.7968C104.892 33.6548 104.941 33.4795 104.924 33.3042V32.4442C104.949 32.2605 104.9 32.0768 104.801 31.9265C104.653 31.818 104.472 31.7763 104.291 31.7929H103.362V33.922V33.9303ZM108.297 34.1892V31.5341H110.131V31.818H108.585V32.6863H110.09V32.9535H108.585V33.9053H110.131V34.1808H108.297V34.1892ZM113.051 33.3292H113.339V33.3793C113.339 33.4962 113.339 33.6131 113.372 33.73C113.388 33.7968 113.429 33.8552 113.487 33.8886C113.544 33.9136 113.61 33.9387 113.684 33.9387C113.775 33.947 113.956 33.9554 114.227 33.9554C114.342 33.9554 114.457 33.9554 114.573 33.922C114.638 33.9053 114.704 33.8719 114.754 33.8302C114.778 33.7968 114.795 33.755 114.803 33.7133C114.811 33.6381 114.819 33.563 114.819 33.4795C114.836 33.3542 114.819 33.2207 114.762 33.1121C114.696 33.0537 114.614 33.0203 114.531 33.0203L113.725 32.9535C113.544 32.9535 113.363 32.895 113.224 32.7698C113.117 32.6195 113.067 32.4358 113.084 32.2438C113.084 32.1186 113.092 31.9933 113.133 31.8681C113.158 31.7763 113.215 31.7011 113.281 31.6343C113.347 31.5842 113.421 31.5508 113.503 31.5341C113.668 31.5091 113.841 31.5007 114.005 31.5007H114.096C114.285 31.5007 114.474 31.5007 114.663 31.5425C114.762 31.5675 114.86 31.6093 114.935 31.6761C114.992 31.7262 115.025 31.7846 115.05 31.8597C115.074 31.9516 115.091 32.0518 115.083 32.152V32.2856H114.795V32.2188C114.795 32.1436 114.795 32.0685 114.778 31.9933C114.778 31.9516 114.754 31.9098 114.721 31.8764C114.663 31.8347 114.597 31.8013 114.523 31.8013C114.351 31.7846 114.17 31.7763 113.997 31.7763C113.824 31.7512 113.643 31.7846 113.487 31.8681C113.405 31.9766 113.363 32.1102 113.388 32.2355C113.38 32.344 113.405 32.4525 113.454 32.5527C113.52 32.6195 113.618 32.6613 113.717 32.6529L114.54 32.7197C114.704 32.7197 114.869 32.7865 114.992 32.9034C115.091 33.0537 115.14 33.229 115.124 33.4127C115.124 33.5463 115.124 33.6715 115.091 33.8051C115.074 33.8886 115.033 33.9637 114.984 34.0222C114.918 34.0973 114.828 34.1474 114.729 34.1725C114.54 34.2059 114.342 34.2226 114.145 34.2142H114.013C113.841 34.2142 113.668 34.2142 113.503 34.1725C113.413 34.1474 113.331 34.1057 113.257 34.0472C113.191 33.9888 113.141 33.9053 113.109 33.8135C113.076 33.6966 113.059 33.5713 113.059 33.4461V33.3209L113.051 33.3292ZM118.216 34.1892V31.5341H118.504V34.1892H118.216ZM121.564 32.4108C121.539 32.152 121.613 31.9015 121.77 31.7011C121.983 31.5425 122.247 31.4757 122.502 31.5007H122.831C123.077 31.484 123.324 31.5425 123.546 31.6677C123.703 31.793 123.793 31.985 123.777 32.1854V32.2939H123.48V32.2605C123.497 32.1186 123.448 31.9766 123.341 31.8764C123.184 31.7846 122.995 31.7512 122.814 31.7679H122.584C122.452 31.7679 122.321 31.7679 122.197 31.8013C122.123 31.818 122.058 31.8514 122 31.9015C121.951 31.9516 121.909 32.01 121.893 32.0768C121.868 32.2104 121.86 32.344 121.86 32.4692V33.2207C121.86 33.3542 121.86 33.4878 121.893 33.6131C121.909 33.6799 121.951 33.7383 122 33.7884C122.058 33.8385 122.123 33.8719 122.197 33.8886C122.329 33.9136 122.461 33.922 122.584 33.922H122.814C122.929 33.922 123.053 33.922 123.168 33.8969C123.234 33.8802 123.291 33.8468 123.349 33.8051C123.398 33.7634 123.431 33.7049 123.448 33.6381C123.472 33.5212 123.48 33.396 123.48 33.2791V33.1121H122.757V32.8449H123.785V33.2875C123.809 33.5463 123.735 33.7968 123.579 33.9971C123.365 34.1558 123.102 34.2226 122.847 34.1975H122.518C122.255 34.2226 122 34.1558 121.786 33.9971C121.63 33.7968 121.548 33.5463 121.58 33.2875V32.3941L121.564 32.4108ZM126.828 34.1892V31.5341H127.272L128.687 33.9053V31.5341H128.975V34.1892H128.531L127.116 31.818V34.1892H126.828Z" fill="white"/>
<path fill-rule="evenodd" clip-rule="evenodd" d="M87.5199 24.2783V5.20045L89.6091 3.47217V26.566C89.6091 26.8081 89.4858 26.9501 89.1732 26.9417H87.4377C87.2979 26.9501 87.158 26.8833 87.0758 26.7664L79.2372 18.9683V26.5493C79.2619 26.7413 79.1302 26.9167 78.9411 26.9417C78.9082 26.9417 78.8753 26.9417 78.8424 26.9417H77.5346C77.296 26.9417 77.1398 26.8499 77.148 26.541V16.7223C77.148 16.5303 77.2302 16.4301 77.403 16.4217H79.6402L87.5199 24.2616V24.2783ZM69.2765 24.963H76.2514C76.4324 24.9463 76.5969 25.0715 76.6133 25.2552C76.6133 25.2802 76.6133 25.3053 76.6133 25.3387V26.5577C76.6133 26.8165 76.49 26.9501 76.2514 26.9501H67.5492C67.3682 26.9668 67.1955 26.8332 67.179 26.6495C67.179 26.6244 67.179 26.5994 67.179 26.5827V16.7557C67.179 16.5386 67.286 16.4384 67.4834 16.4384H68.9392C69.1695 16.4384 69.2682 16.5386 69.2765 16.714V24.963ZM54.0187 16.8643C54.0023 16.6639 54.1339 16.4885 54.3231 16.4384H55.7954C55.9681 16.4551 56.1079 16.572 56.1491 16.739V23.1094C56.1408 23.4434 56.1573 23.7774 56.2149 24.1113C56.2478 24.27 56.3136 24.4119 56.3958 24.5455C56.511 24.7125 56.6837 24.8377 56.8729 24.8962C57.2348 25.0047 57.6131 25.0465 57.9997 25.0381H61.882C62.2604 25.0548 62.6387 25.0047 63.0089 24.8962C63.2063 24.8294 63.379 24.7041 63.4942 24.5372C63.5846 24.4119 63.6422 24.2616 63.6669 24.1113C63.7162 23.7774 63.7409 23.4434 63.7327 23.1094V16.7307C63.7162 16.5804 63.8149 16.4468 63.9548 16.4301C63.9794 16.4301 64.0041 16.4301 64.0288 16.4301H65.5011C65.7479 16.4301 65.863 16.5303 65.8548 16.7307V23.0343C65.8712 23.6855 65.7972 24.3368 65.6245 24.963C65.4847 25.4639 65.2132 25.9148 64.8349 26.2738C64.4647 26.5911 64.0288 26.8081 63.5517 26.9C62.8361 27.0336 62.1123 27.0837 61.3885 27.067H58.5097C57.7859 27.0837 57.0621 27.0336 56.3547 26.9C55.8776 26.8081 55.4335 26.5911 55.0633 26.2821C54.6768 25.9482 54.3971 25.5057 54.249 25.0047C54.0763 24.3869 54.0023 23.744 54.0187 23.1011V16.8476V16.8643ZM53.8378 17.0813L48.549 26.7413C48.4914 26.8582 48.3845 26.9417 48.2529 26.9584H46.5832C46.4598 26.9584 46.3611 26.8833 46.2624 26.7163L40.9818 17.0646C40.916 16.6889 41.0723 16.4969 41.3766 16.4468H42.8571C42.9723 16.4551 43.0628 16.5219 43.1121 16.6221L47.3892 24.5121L51.7897 16.4468H53.4841C53.846 16.547 53.8871 16.7975 53.8296 17.0813H53.8378Z" fill="white"/>
<path fill-rule="evenodd" clip-rule="evenodd" d="M127.832 21.2564C127.971 21.3315 128.095 21.4317 128.21 21.5402C128.621 22.0078 128.827 22.6173 128.786 23.2435V24.2621C128.86 25.122 128.457 25.9486 127.741 26.4162C126.877 26.9255 125.109 26.9589 124.138 26.9589H117.525C117.295 26.9589 117.164 26.8587 117.164 26.6249V16.7395C117.164 16.5641 117.238 16.4472 117.435 16.4472H124.361C125.01 16.4305 125.66 16.4639 126.302 16.5474C126.705 16.5975 127.1 16.7311 127.453 16.9398C127.807 17.1569 128.087 17.4825 128.251 17.8666C128.416 18.3342 128.49 18.8351 128.473 19.3361C128.514 19.9455 128.358 20.5467 128.029 21.056C127.971 21.1311 127.906 21.1979 127.832 21.2647V21.2564ZM119.253 18.4176V20.4632H124.163C124.846 20.4882 125.529 20.4215 126.195 20.2628C126.384 20.1292 126.4 19.67 126.4 19.4696C126.409 19.2442 126.384 19.0104 126.335 18.7934C126.318 18.7266 126.277 18.6598 126.219 18.618C126.071 18.5429 125.915 18.4928 125.751 18.4761C125.282 18.426 124.813 18.4093 124.344 18.426H119.253V18.4176ZM119.253 22.5171V24.93H124.969C125.487 24.9634 126.014 24.8883 126.507 24.7129C126.713 24.5626 126.738 24.0533 126.738 23.8279C126.738 23.5858 126.713 22.9179 126.499 22.7509C126.014 22.5672 125.487 22.4921 124.969 22.5254H119.253V22.5171ZM114.811 26.2826C114.441 26.5998 114.005 26.8169 113.536 26.9088C112.821 27.0424 112.097 27.0924 111.373 27.0758H108.494C107.77 27.0924 107.047 27.0424 106.339 26.9088C105.862 26.8169 105.426 26.5998 105.048 26.2909C104.661 25.957 104.382 25.5145 104.234 25.0135C104.061 24.3957 103.987 23.7528 104.003 23.1099V16.7311C104.003 16.5391 104.085 16.4305 104.283 16.4305H105.829C105.977 16.4138 106.109 16.514 106.125 16.656C106.125 16.681 106.125 16.6977 106.125 16.7228V23.1015C106.117 23.4355 106.134 23.7695 106.191 24.1034C106.224 24.2621 106.29 24.404 106.372 24.5376C106.487 24.7046 106.66 24.8298 106.857 24.8883C107.219 24.9968 107.598 25.0385 107.984 25.0302H111.867C112.245 25.0469 112.623 24.9968 112.993 24.8883C113.191 24.8215 113.363 24.6962 113.479 24.5292C113.569 24.404 113.627 24.2537 113.651 24.1034C113.701 23.7695 113.725 23.4355 113.717 23.1015V16.7228C113.717 16.514 113.832 16.4222 114.038 16.4222H115.551C115.691 16.4055 115.823 16.5057 115.847 16.6476C115.847 16.6727 115.847 16.6977 115.847 16.7228V23.0264C115.864 23.6776 115.79 24.3289 115.617 24.9551C115.477 25.456 115.206 25.9069 114.828 26.2659L114.811 26.2826ZM92.9486 20.5634H100.582V16.7311C100.557 16.5892 100.656 16.4556 100.795 16.4389C100.82 16.4389 100.845 16.4389 100.869 16.4389H102.416C102.597 16.4389 102.679 16.5391 102.679 16.7311V26.5581C102.679 26.8002 102.572 26.9505 102.276 26.9505H100.976C100.787 26.9756 100.606 26.842 100.582 26.6499C100.582 26.6165 100.582 26.5831 100.582 26.5498V22.5338H92.9486V26.5581C92.9732 26.7501 92.8334 26.9255 92.6442 26.9505C92.6113 26.9505 92.5867 26.9505 92.5537 26.9505H91.2459C91.0485 26.9756 90.8758 26.8253 90.8511 26.6332C90.8511 26.6082 90.8511 26.5831 90.8511 26.5498V2.43731L92.9486 0.700684V20.5634Z" fill="white"/>
<path fill-rule="evenodd" clip-rule="evenodd" d="M21.2084 35.0407V26.4494L23.2894 24.7295V35.0407H21.2084Z" fill="white"/>
<path fill-rule="evenodd" clip-rule="evenodd" d="M24.5396 35.0406V23.6941L26.6124 21.9741V35.0489H24.5396V35.0406Z" fill="white"/>
<path fill-rule="evenodd" clip-rule="evenodd" d="M24.7042 19.0017L21.702 16.6806L22.6972 15.3447C22.8535 15.1778 22.8453 14.9189 22.689 14.7603C22.5903 14.6601 22.4422 14.6184 22.3024 14.6601L17.8608 15.2529C17.4742 15.3197 17.211 15.8206 17.5729 16.1045L23.1002 20.3292L24.7042 19.0017Z" fill="white"/>
<path fill-rule="evenodd" clip-rule="evenodd" d="M21.9076 21.3062L16.7586 17.4739C16.2733 17.14 15.7716 17.2736 15.8209 17.8831L16.4131 22.1912C16.5612 22.5836 16.808 22.6671 17.1534 22.4417L18.1816 21.181L20.2708 22.6504L21.9076 21.2979V21.3062Z" fill="white"/>
<path fill-rule="evenodd" clip-rule="evenodd" d="M34.2204 14.1597L18.9216 26.817C18.1484 27.4182 17.0874 27.4599 16.2731 26.9172L0.86729 15.4538C0.299751 15.0697 0.143473 14.2933 0.521831 13.7172C0.612309 13.5836 0.727461 13.4667 0.859064 13.3749L16.1579 0.717501C16.9311 0.11636 17.9921 0.0746142 18.8064 0.617311L34.2122 12.0891C34.7798 12.4731 34.936 13.2496 34.5577 13.8257C34.4672 13.9593 34.3521 14.0762 34.2204 14.168V14.1597ZM34.2204 17.8584C34.788 17.4743 34.936 16.6895 34.5495 16.1217C34.459 15.9882 34.3438 15.8713 34.2122 15.7794L33.9326 15.5707L32.23 16.9817C32.1971 17.3073 32.0325 17.6079 31.7693 17.8083L31.4157 18.1005V20.1878L34.2204 17.8667V17.8584ZM29.8364 21.4819V19.3946L27.7061 21.1563V23.2436L29.8364 21.4819ZM20.3034 29.3719V27.2846L18.716 28.5954C18.0579 29.1047 17.1532 29.1381 16.454 28.6789L15.4423 27.9275V29.9981L16.2649 30.6076C17.0791 31.1503 18.1402 31.1085 18.9134 30.5074L20.2952 29.3635L20.3034 29.3719ZM13.8713 28.8375V26.7669L11.996 25.3726V27.4432L13.8713 28.8375ZM10.4167 26.266V24.1954L8.5414 22.8011V24.8717L10.4167 26.266ZM6.96216 23.6944V21.6239L5.08681 20.2295V22.3001L6.96216 23.6944ZM3.50758 21.1229V19.0523L3.31017 18.902C3.03052 18.71 2.85779 18.3927 2.84134 18.0504L1.1634 16.8064L0.842614 17.0652C0.275076 17.4493 0.127022 18.2341 0.513606 18.8018C0.604083 18.9354 0.719236 19.0523 0.850839 19.1441L3.49935 21.1146L3.50758 21.1229ZM3.76256 14.5437C3.76256 14.5437 3.77901 14.5604 3.79546 14.5688L5.10326 15.5373L16.3636 6.22796C17.0216 5.71866 17.9263 5.68526 18.6255 6.14447L29.9598 14.5771L31.2594 13.5001L31.2758 13.4834L18.8064 4.19911C17.9921 3.65641 16.9311 3.69816 16.1579 4.2993L3.77901 14.5521H3.77078L3.76256 14.5437ZM34.2122 21.8409C34.7798 21.4569 34.9278 20.672 34.5412 20.1043C34.4508 19.9707 34.3356 19.8538 34.204 19.762L33.9243 19.5533L32.23 20.9643C32.1971 21.2899 32.0325 21.5905 31.7693 21.7908L27.7143 25.1472V27.2345L34.2287 21.8493H34.2204L34.2122 21.8409ZM20.3034 33.3544V31.2672L18.716 32.578C18.0579 33.0873 17.1532 33.1207 16.454 32.6615L3.3184 22.8929C3.03874 22.7009 2.86601 22.3836 2.84956 22.0413L1.17162 20.7973L0.850839 21.0561C0.283301 21.4402 0.135247 22.225 0.521831 22.7927C0.612309 22.9263 0.727461 23.0432 0.859064 23.1351L16.2649 34.6068C17.0791 35.1495 18.1402 35.1078 18.9134 34.5066L20.2952 33.3628L20.3034 33.3544ZM6.31237 16.439L7.63662 17.4242L16.3553 10.2105C17.0133 9.70122 17.9181 9.66782 18.6173 10.127L27.41 16.6728L28.726 15.579L18.7982 8.19002C17.9839 7.64732 16.9229 7.68907 16.1497 8.29021L6.31237 16.439ZM31.7693 14.1012C32.2464 13.7673 32.378 13.1077 32.049 12.6151C31.975 12.4982 31.8763 12.398 31.7611 12.3229L18.6173 2.54597C17.9263 2.08677 17.0133 2.12016 16.3553 2.62946L3.31017 13.4333C2.83311 13.7673 2.70151 14.4269 3.03052 14.9195C3.10454 15.0363 3.20324 15.1282 3.3184 15.2117L16.4623 24.9969C17.1532 25.4561 18.0579 25.4227 18.7242 24.9134L31.7776 14.1096L31.7693 14.1012Z" fill="white"/>
</g>
<defs>
<clipPath id="clip0_8_1003">
<rect width="128.683" height="34.8077" fill="white" transform="translate(0.308228 0.23291)"/>
</clipPath>
</defs>
</svg>
