<svg xmlns="http://www.w3.org/2000/svg" xml:space="preserve" id="Layer_1" x="0" y="0" style="enable-background:new 0 0 288 288" version="1.1" viewBox="0 0 288 288"><style>.st2{fill:#fff}</style><switch><g><linearGradient id="SVGID_1_" x1="144" x2="144" y1="40.963" y2="269.144" gradientUnits="userSpaceOnUse"><stop offset="0" style="stop-color:#ff005e"/><stop offset="1" style="stop-color:#f800a0;stop-opacity:0"/></linearGradient><path d="M273.5 31.8c-.2-.9-.9-1.6-1.9-1.8-1.9-.4-47.5-9.6-76 23.3-.1.2-1.3 1.4-2.7 3.4-12.5-6.1-26.1-9.8-40-10.9-.2-.9-.6-1.8-1-2.6-1.3-2.2-3.3-3.7-5.7-4.4-2.4-.6-5-.3-7.2.9-2.2 1.3-3.7 3.3-4.4 5.7 0 .1-.1.3-.1.4-13.7 1.2-27.2 4.9-39.4 10.8-1.5-2-2.6-3.2-2.7-3.3C63.8 20.4 18.2 29.6 16.3 30c-.9.2-1.6.9-1.9 1.8-.2.9.1 1.9.8 2.5 3.8 3.1 11.8 13 27.8 42 1.7 3 3.5 5.8 5.3 8.3l-.1.1c-.7.9-2 2.4-3.7 4.3-8.2 9.5-15.7 18.3-16.6 22-.3 1.1.2 2.2 1.2 2.8l5.1 2.7c-2.6 4.5-6.9 12.6-7.1 15.8-.1 1.1.7 2.1 1.7 2.5.3.1 1.8.5 3.7.6-3.3 6.2-6.9 13.6-6.9 16 0 1.2.9 2.3 2.1 2.4.2 0 3.7.4 7.1-1.1 2.1 7.3 8.2 24.6 20.9 38.5-.5.8-1 1.8-1.2 2.7-.7 2.4-.3 5 .9 7.2 1.2 2 3 3.5 5.2 4.2-.2 1.9-.3 3.7 0 5.1.3 1.1 1.2 1.8 2.3 1.9.9 0 7.3.1 12.7-1.3-.9 3.2-1.6 6.6-1.2 8.2.3 1.1 1.4 1.9 2.5 1.8 5-.4 8.9-1.1 11.6-2.1.4 5.2 1.4 8.3 3.2 9.4.7.4 1.5.5 2.2.2l4.9-2c.6 8.7 3.5 9.1 4.5 9.2h.2c.7 0 4.6.1 8.3-1.4.2 2.5.9 5.3 3.2 7.9.6.7 1.6 1 2.5.7 2.6-.8 4.6-1.4 6.1-2-.4 2.9-.4 6.2 1.6 8.1.5.5 1.2.7 1.9.7 1.1-.1 5.4-.5 8.7-2.3.6 3.6 2 8.6 6.7 11.9.1.1.2.1.3.2h.1c.2.1.3.1.5.2h.1c.2 0 .3.1.5.1s.3 0 .5-.1h.1c.2 0 .3-.1.5-.2h.1c.1 0 .2-.1.2-.1 4.7-3.3 6.1-8.3 6.7-11.9 3.3 1.7 7.5 2.2 8.7 2.3.7 0 1.4-.2 1.9-.7 2-1.9 2-5.2 1.6-8.1 1.5.6 3.5 1.2 6.1 2 .9.3 1.9 0 2.5-.7 2.2-2.5 3-5.4 3.2-7.9 3.7 1.5 7.6 1.4 8.3 1.4h.2c1-.1 3.9-.5 4.5-9.2l4.9 2c.7.3 1.5.2 2.2-.2 1.8-1.1 2.9-4.2 3.2-9.4 2.7 1 6.6 1.7 11.6 2.1 1.2.1 2.2-.7 2.5-1.8.4-1.7-.3-5-1.2-8.2 5.4 1.5 11.7 1.4 12.7 1.3 1.1 0 2-.8 2.3-1.9.3-1.3.3-3 .1-4.7 1.1-.2 2.2-.5 3.2-1.1 2.2-1.3 3.7-3.3 4.4-5.7.7-2.4.3-5-.9-7.2-.3-.5-.6-.9-1-1.4 12.2-13.8 18-30.5 20.1-37.7 3.4 1.6 6.9 1.2 7.1 1.1 1.2-.1 2.1-1.2 2.1-2.4 0-2.4-3.6-9.8-6.9-16 1.9 0 3.4-.5 3.7-.6 1.1-.3 1.8-1.3 1.7-2.5-.2-3.2-4.6-11.3-7.1-15.8l5.1-2.7c1-.5 1.5-1.7 1.2-2.8-1-3.7-8.4-12.5-16.6-22-1.6-1.9-3-3.4-3.7-4.3 0-.1-.1-.1-.1-.1 1.8-2.5 3.6-5.3 5.3-8.3 16.1-29 24-38.9 27.8-42 .6-.7 1-1.6.7-2.5zM153.1 48v-.2.2zm0-1v-.3.3zM56.5 190.1l-.1.1.1-.1zm.6-.7.2-.2c0 .1-.1.2-.2.2zm168.7 16.2c.3 0 .6 0 .9-.1-.3.1-.6.1-.9.1z" style="fill:url(#SVGID_1_)"/><g style="opacity:.9"><path d="M225.8 205.6c-.8 0-1.6-.1-2.5-.3-2.4-.7-4.5-2.2-5.7-4.4-1.3-2.2-1.6-4.7-.9-7.2.7-2.4 2.2-4.5 4.4-5.7 2.2-1.3 4.7-1.6 7.2-.9 2.4.7 4.5 2.2 5.7 4.4 1.3 2.2 1.6 4.7.9 7.2-.7 2.4-2.2 4.5-4.4 5.7-1.5.8-3.1 1.2-4.7 1.2zm-.1-14c-.8 0-1.6.2-2.3.6-1.1.6-1.8 1.6-2.1 2.8-.3 1.2-.2 2.4.5 3.5.6 1.1 1.6 1.8 2.8 2.1 1.2.3 2.4.2 3.5-.5 1.1-.6 1.8-1.6 2.1-2.8.3-1.2.2-2.4-.5-3.5-.6-1.1-1.6-1.8-2.8-2.1-.4 0-.8-.1-1.2-.1zM196.9 121.6c-12.6 0-22.8 10.2-22.8 22.8 0 12.6 10.2 22.8 22.8 22.8 12.6 0 22.8-10.2 22.8-22.8 0-12.6-10.2-22.8-22.8-22.8zm1.1 28.3c-3 .6-6-1.4-6.6-4.4-.6-3 1.4-6 4.4-6.6.7-.1 1.4-.1 2 0v.2c.5 2.3 2.3 4 4.6 4.4.5 3-1.4 5.8-4.4 6.4zM91.1 121.6c-12.6 0-22.8 10.2-22.8 22.8 0 12.6 10.2 22.8 22.8 22.8s22.8-10.2 22.8-22.8c0-12.6-10.2-22.8-22.8-22.8zm1.1 28.3c-3 .6-6-1.4-6.6-4.4-.6-3 1.4-6 4.4-6.6.7-.1 1.4-.1 2 0v.2c.5 2.3 2.3 4 4.6 4.4.5 3-1.4 5.8-4.4 6.4zM143.9 84.7c-9.1 0-16.4 6.9-16.4 15.5 0 8.5 7.4 15.5 16.4 15.5 9.1 0 16.4-7 16.4-15.5 0-8.6-7.4-15.5-16.4-15.5zm0 27.7c-1.1 0-2.6-1.8-3.5-5 1.1.1 2.2.2 3.4.2 1.3 0 2.5-.1 3.7-.2-1 3.1-2.5 5-3.6 5zm-.2-8.1c-1.5 0-2.8-.1-4.1-.2-.2-1.2-.3-2.5-.3-3.9s.1-2.7.3-3.9c1.3-.2 2.6-.2 4.1-.2 1.6 0 3.1.1 4.4.3.2 1.2.3 2.5.3 3.8 0 1.4-.1 2.6-.3 3.8-1.3.2-2.8.3-4.4.3zm-12.8-4.1c0-1 2-2.4 5.3-3.2-.1 1-.2 2.1-.2 3.2s.1 2.2.2 3.2c-3.3-.9-5.3-2.2-5.3-3.2zm13-12.2c1.1 0 2.6 1.8 3.6 5-1.2-.1-2.5-.2-3.7-.2-1.1 0-2.3.1-3.4.2.9-3.2 2.3-5 3.5-5zm7.6 9c3.1.9 5 2.2 5 3.1 0 1-1.8 2.3-5 3.1.1-1 .1-2.1.1-3.1s0-2.1-.1-3.1zm4.5-1.7c-1.4-.8-3.1-1.3-5.1-1.8-.4-1.7-.9-3.2-1.6-4.5 3 1.3 5.4 3.5 6.7 6.3zM138.4 89c-.7 1.3-1.2 2.8-1.6 4.4-1.8.4-3.5.9-5 1.6 1.4-2.6 3.7-4.8 6.6-6zm-6.5 16.3c1.4.7 3.1 1.2 5 1.6.4 1.7.9 3.2 1.6 4.4-3-1.2-5.3-3.4-6.6-6zm17.4 6c.7-1.3 1.2-2.8 1.6-4.5 1.9-.4 3.6-1 5.1-1.8-1.3 2.8-3.7 5-6.7 6.3zM139.9 191.7c-.9 0-1.6-.7-1.6-1.6v-7.5c0-.9.7-1.6 1.6-1.6s1.6.7 1.6 1.6v7.5c0 .9-.7 1.6-1.6 1.6zM148.1 191.7c-.9 0-1.6-.7-1.6-1.6v-7.5c0-.9.7-1.6 1.6-1.6.9 0 1.6.7 1.6 1.6v7.5c0 .9-.7 1.6-1.6 1.6zM171.6 218.2c-.5 0-1-.3-1.3-.7l-6.2-9.3c-.5-.7-.3-1.7.5-2.2.7-.5 1.7-.3 2.2.5l6.2 9.3c.5.7.3 1.7-.5 2.2-.3.1-.6.2-.9.2zM175 204.5c-.5 0-1-.3-1.3-.7l-1.9-2.9c-.5-.7-.3-1.7.5-2.2.7-.5 1.7-.3 2.2.5l1.9 2.9c.5.7.3 1.7-.5 2.2-.2.1-.6.2-.9.2zM189.6 210.4c-.5 0-1-.3-1.3-.7l-6.8-10.3c-.5-.7-.3-1.7.5-2.2.7-.5 1.7-.3 2.2.5L191 208c.5.7.3 1.7-.5 2.2-.3.1-.6.2-.9.2zM116.4 218.2c-.3 0-.6-.1-.9-.3-.7-.5-.9-1.5-.5-2.2l6.2-9.3c.5-.7 1.5-.9 2.2-.5.7.5.9 1.5.5 2.2l-6.2 9.3c-.3.6-.8.8-1.3.8zM113 204.5c-.3 0-.6-.1-.9-.3-.7-.5-.9-1.5-.5-2.2l1.9-2.9c.5-.7 1.5-.9 2.2-.5.7.5.9 1.5.5 2.2l-1.9 2.9c-.3.5-.8.8-1.3.8zM98.4 210.4c-.3 0-.6-.1-.9-.3-.7-.5-.9-1.5-.5-2.2l6.8-10.3c.5-.7 1.5-.9 2.2-.5.7.5.9 1.5.5 2.2l-6.8 10.3c-.3.5-.8.8-1.3.8z" class="st2"/><path d="M90.1 177.3c-18.1 0-32.9-14.8-32.9-32.9 0-18.1 14.8-32.9 32.9-32.9s32.9 14.8 32.9 32.9c0 18.2-14.8 32.9-32.9 32.9zm0-62.5c-16.4 0-29.7 13.3-29.7 29.7s13.3 29.7 29.7 29.7 29.7-13.3 29.7-29.7-13.4-29.7-29.7-29.7zM195.9 177.3c-18.1 0-32.9-14.8-32.9-32.9 0-18.1 14.8-32.9 32.9-32.9s32.9 14.8 32.9 32.9c0 18.2-14.7 32.9-32.9 32.9zm0-62.5c-16.4 0-29.7 13.3-29.7 29.7s13.3 29.7 29.7 29.7 29.7-13.3 29.7-29.7-13.3-29.7-29.7-29.7zM167.2 104.9c-.8 0-1.5-.6-1.6-1.4-.1-.9.5-1.7 1.3-1.9.1 0 12.1-2 22-12.4.6-.6 1.6-.7 2.3-.1.6.6.7 1.6.1 2.3-10.6 11.2-23.3 13.3-23.8 13.4-.2.1-.3.1-.3.1zM169.1 96.4c-.8 0-1.5-.6-1.6-1.4-.1-.9.5-1.7 1.3-1.8.1 0 5.7-1 10.3-5.8.6-.6 1.6-.7 2.3-.1.6.6.7 1.6.1 2.3-5.4 5.7-11.9 6.8-12.2 6.8h-.2zM171 88c-.2 0-.4 0-.6-.1-.2-.1-.4-.2-.5-.4-.3-.3-.5-.7-.5-1.1 0-.4.2-.8.5-1.1.6-.6 1.7-.6 2.3 0 .3.3.5.7.5 1.1 0 .2 0 .4-.1.6-.1.2-.2.4-.4.5-.1.1-.3.3-.5.4-.2.1-.5.1-.7.1zM120.5 104.9h-.3c-.5-.1-13.2-2.2-23.8-13.4-.6-.6-.6-1.7.1-2.3.6-.6 1.7-.6 2.3.1 9.9 10.4 21.9 12.4 22 12.4.9.1 1.5 1 1.3 1.9-.1.8-.8 1.3-1.6 1.3zM118.6 96.4h-.3c-.3 0-6.7-1.1-12.2-6.8-.6-.6-.6-1.7.1-2.3.6-.6 1.7-.6 2.3.1 4.7 4.9 10.3 5.8 10.3 5.8.9.1 1.5 1 1.3 1.9 0 .8-.7 1.3-1.5 1.3zM116.7 88c-.2 0-.4 0-.6-.1-.2-.1-.4-.2-.5-.4-.3-.3-.5-.7-.5-1.1 0-.4.2-.8.5-1.1.6-.6 1.7-.6 2.3 0 .3.3.5.7.5 1.1 0 .2 0 .4-.1.6-.1.2-.2.4-.4.5-.1.1-.3.3-.5.4-.3.1-.5.1-.7.1zM63.7 205.6c-.8 0-1.6-.1-2.5-.3-2.4-.7-4.5-2.2-5.7-4.4-1.3-2.2-1.6-4.7-.9-7.2s2.2-4.5 4.4-5.7c2.2-1.3 4.7-1.6 7.2-.9 2.4.7 4.5 2.2 5.7 4.4 1.3 2.2 1.6 4.7.9 7.2-.7 2.4-2.2 4.5-4.4 5.7-1.4.8-3 1.2-4.7 1.2zm0-14c-.8 0-1.6.2-2.3.6-1.1.6-1.8 1.6-2.1 2.8-.3 1.2-.2 2.4.5 3.5.6 1.1 1.6 1.8 2.8 2.1 1.2.3 2.4.2 3.5-.5 1.1-.6 1.8-1.6 2.1-2.8.3-1.2.2-2.4-.5-3.5-.6-1.1-1.6-1.8-2.8-2.1-.4 0-.8-.1-1.2-.1z" class="st2"/><path d="M225.8 205.6c-.8 0-1.6-.1-2.5-.3-.3-.1-.7-.2-1-.3.1.8.2 1.6.3 2.2-3.9-.1-10.2-.7-12.8-2.8-.9-.7-2-.7-2.9-.1-.9.6-1.2 1.8-.9 2.8 1 2.8 2 6.3 2.5 8.5-4.4-.5-8.3-1.5-9.3-2.3-.4-1-1.5-1.6-2.6-1.4-1.2.2-2.1 1.2-2.1 2.4 0 3.3-.4 6.8-.8 8.6l-6.2-2.5c-.7-.3-1.6-.2-2.3.2-.7.5-1.1 1.2-1.1 2 0 3.2-.4 6.6-1 7.9-2.3-.1-6.8-.7-8.3-3.2-.6-1.1-2-1.5-3.1-.9-1.1.5-1.7 1.9-1.2 3 .1.2 1.6 4.4-.5 8-3.1-1-6.4-2.2-7.2-2.8-.9-1.1-2.1-1.1-3-.7-1.9.9-1.4 2.7-1.1 4.1.9 3.6 1 5.4.9 6.3-2.9-.5-5.9-1.5-6.5-2.6-1-1.8-2.3-2-3.1-1.8-2 .4-2.1 2.3-2.3 4-.3 2.5-.7 6.9-3.6 9.9-2.9-3-3.3-7.4-3.6-9.9-.2-1.7-.4-3.5-2.3-4-.9-.2-2.1 0-3.1 1.8-.6 1.1-3.6 2.1-6.5 2.6-.1-.9 0-2.7.9-6.3.3-1.4.8-3.2-1.1-4.1-.9-.4-2.1-.3-3 .7-.8.6-4.1 1.8-7.2 2.8-2.1-3.6-.6-7.8-.6-8 .4-1.2-.1-2.5-1.2-3-1.1-.5-2.5-.1-3.1.9-1.5 2.5-6 3.1-8.3 3.2-.5-1.3-1-4.8-1-7.9 0-.8-.4-1.6-1.1-2-.7-.5-1.5-.5-2.3-.2l-6.2 2.5c-.5-1.8-.8-5.3-.8-8.6 0-1.2-.9-2.2-2.1-2.4-1.1-.2-2.2.4-2.6 1.4-.9.8-4.9 1.8-9.3 2.3.5-2.2 1.5-5.7 2.5-8.5.4-1 0-2.2-.9-2.8-.9-.6-2.1-.6-2.9.1-2.7 2.1-9 2.7-12.9 2.8 0-.5.1-1.2.2-1.8-.6.1-1.2.2-1.9.2-.8 0-1.6-.1-2.5-.3-.2 0-.3-.1-.5-.2-.2 1.9-.3 3.7 0 5.1.3 1.1 1.2 1.8 2.3 1.9.9 0 7.3.1 12.7-1.3-.9 3.2-1.6 6.6-1.2 8.2.3 1.1 1.4 1.9 2.5 1.8 5-.4 8.9-1.1 11.6-2.1.4 5.2 1.4 8.3 3.2 9.4.7.4 1.5.5 2.2.2l4.9-2c.6 8.7 3.5 9.1 4.5 9.2h.2c.7 0 4.6.1 8.3-1.4.2 2.5.9 5.3 3.2 7.9.6.7 1.6 1 2.5.7 2.6-.8 4.6-1.4 6.1-2-.4 2.9-.4 6.2 1.6 8.1.5.5 1.2.7 1.9.7 1.1-.1 5.4-.5 8.7-2.3.6 3.6 2 8.6 6.7 11.9.1.1.2.1.3.2h.1c.2.1.3.1.5.2h.1c.2 0 .3.1.5.1s.3 0 .5-.1h.1c.2 0 .3-.1.5-.2h.1c.1 0 .2-.1.2-.1 4.7-3.3 6.1-8.3 6.7-11.9 3.3 1.7 7.5 2.2 8.7 2.3.7 0 1.4-.2 1.9-.7 2-1.9 2-5.2 1.6-8.1 1.5.6 3.5 1.2 6.1 2 .9.3 1.9 0 2.5-.7 2.2-2.5 3-5.4 3.2-7.9 3.7 1.5 7.6 1.4 8.3 1.4h.2c1-.1 3.9-.5 4.5-9.2l4.9 2c.7.3 1.5.2 2.2-.2 1.8-1.1 2.9-4.2 3.2-9.4 2.7 1 6.6 1.7 11.6 2.1 1.2.1 2.2-.7 2.5-1.8.4-1.7-.3-5-1.2-8.2 5.4 1.5 11.7 1.4 12.7 1.3 1.1 0 2-.8 2.3-1.9.3-1.3.3-3 .1-4.7-.7-.1-1.2 0-1.7 0z" class="st2"/><path d="M273.5 31.8c-.2-.9-.9-1.6-1.9-1.8-1.9-.4-47.5-9.6-76 23.3-.1.2-1.3 1.4-2.7 3.4-12.5-6.1-26.1-9.8-40-10.9.3 1.5.3 3-.1 4.5 0 .1-.1.2-.1.3 13 1.1 25.8 4.5 37.5 10.1-3 4.8-6.1 11.3-5.5 17.3.1 1.3 1.3 2.3 2.6 2.2 1.3-.1 2.3-1.3 2.2-2.6-.8-9.1 9.7-20.9 9.9-21.1C220.9 31.6 253.9 32.7 266 34c-6 6.9-14.6 20.2-25.4 39.8-9.7 17.5-23.5 25.5-25.5 26.6h-.1l-37.6 7.7c-.7.1-1.4.3-2 .5-.3.1-.7.2-1 .3l-.9.3c-.5.1-.9.3-1.4.5-.1 0-.3.1-.4.1-9.3 3.2-17.2 9.4-22.7 17.8-.1.1-.1.2-.2.3-2 3.1-3.6 6.4-4.8 9.8-1.2-3.5-2.8-6.8-4.8-9.8-.1-.1-.1-.2-.2-.3-5.5-8.4-13.4-14.5-22.7-17.8-.1-.1-.3-.1-.4-.1-.5-.2-.9-.3-1.4-.5l-.9-.3c-.3-.1-.7-.2-1-.3-.7-.2-1.4-.3-2-.5l-37.4-7.7H72.9c-2.1-1.1-15.8-9.2-25.5-26.6C36.5 54.3 28 40.9 22 34c12.1-1.4 45.2-2.4 66.8 22.5 3 3.3 10.5 13.4 9.8 21-.1 1.3.9 2.5 2.2 2.6 1.3.1 2.5-.9 2.6-2.2.5-6-2.5-12.5-5.5-17.3 11.5-5.5 24-8.9 36.8-10-.5-1.6-.6-3.2-.2-4.9-13.7 1.2-27.2 4.9-39.4 10.8-1.5-2-2.6-3.2-2.7-3.3C63.8 20.4 18.2 29.6 16.3 30c-.9.2-1.6.9-1.9 1.8-.2.9.1 1.9.8 2.5 3.8 3.1 11.8 13 27.8 42 1.7 3 3.5 5.8 5.3 8.3l-.1.1c-.7.9-2 2.4-3.7 4.3-8.2 9.5-15.7 18.3-16.6 22-.3 1.1.2 2.2 1.2 2.8l5.1 2.7c-2.6 4.5-6.9 12.6-7.1 15.8-.1 1.1.7 2.1 1.7 2.5.3.1 1.8.5 3.7.6-3.3 6.2-6.9 13.6-6.9 16 0 1.2.9 2.3 2.1 2.4.2 0 3.7.4 7.1-1.1 2.1 7.3 8.2 24.6 20.9 38.5.8-1.2 1.9-2.2 3.2-3 .2-.1.3-.2.5-.3-15.3-16.8-20.6-39.5-20.7-39.8-.2-.9-.9-1.6-1.7-1.8-.9-.2-1.8 0-2.4.7-.9.9-2.1 1.4-3.2 1.7 1.6-3.7 4.9-10.3 8-15.9.6-1 .3-2.3-.6-3-.9-.7-2.2-.8-3.1-.1-.8.6-2.1.8-3.2.8 1.3-3.2 4.3-8.9 7.1-13.7.3-.6.4-1.3.2-1.9-.2-.6-.6-1.2-1.2-1.5l-5.3-2.8c2.7-4.4 10.9-14 14.8-18.4 1.3-1.5 2.4-2.8 3.2-3.7 4.5 5.4 9 9.3 12.5 12-13.3 9.2-21.1 24.1-21.1 40.3 0 27.1 22 49.1 49.1 49.1 25.8 0 47-20 48.9-45.4.5 2.4.8 5 .8 7.5-.2 15-15.9 28.4-16 28.5-.8.7-1.1 1.8-.7 2.8l16.7 42.5c.4 1 1.4 1.6 2.4 1.5h.2c1 0 1.9-.6 2.3-1.5l16.7-42.5c.4-1 .1-2.1-.7-2.8-.2-.1-15.9-13.5-16-28.5 0-2.6.3-5.1.8-7.5 1.9 25.3 23.1 45.4 48.9 45.4 27.1 0 49.1-22 49.1-49.1 0-16.2-7.9-31.1-21.1-40.3 3.5-2.7 8-6.6 12.5-12 .8.9 1.9 2.2 3.2 3.7 3.8 4.4 12.1 14 14.8 18.4l-5.3 2.8c-.6.3-1 .8-1.2 1.5-.2.6-.1 1.3.2 1.9 2.8 4.8 5.8 10.5 7.1 13.7-1.1 0-2.4-.1-3.2-.8-.9-.7-2.2-.7-3.1.1-.9.7-1.1 2-.6 3 3.1 5.6 6.4 12.2 8 15.9-1.1-.3-2.3-.8-3.2-1.7-.6-.7-1.5-.9-2.4-.7-.9.2-1.5.9-1.7 1.8-.1.3-5.3 22.6-20.3 39.4 1.6.6 3 1.5 4 2.8 12.2-13.8 18-30.5 20.1-37.7 3.4 1.6 6.9 1.2 7.1 1.1 1.2-.1 2.1-1.2 2.1-2.4 0-2.4-3.6-9.8-6.9-16 1.9 0 3.4-.5 3.7-.6 1.1-.3 1.8-1.3 1.7-2.5-.2-3.2-4.6-11.3-7.1-15.8l5.1-2.7c1-.5 1.5-1.7 1.2-2.8-1-3.7-8.4-12.5-16.6-22-1.6-1.9-3-3.4-3.7-4.3 0-.1-.1-.1-.1-.1 1.8-2.5 3.6-5.3 5.3-8.3 16.1-29 24-38.9 27.8-42 .8-.6 1.2-1.5.9-2.4zM91.9 185c-24.4 0-44.2-19.8-44.2-44.2 0-14.8 7.3-28.4 19.5-36.6 1.6.4 3 .8 4.4 1.1l.5.1h.1l37.4 7.7c.6.1 1.2.3 1.8.4.3.1.6.2.9.2.3.1.6.2.9.2.4.1.8.3 1.2.4.1 0 .3.1.4.1l1.5.6h.1c7.6 3 14 8.3 18.5 15 .9 3.5 1.3 7.1 1.3 10.7-.1 24.4-20 44.3-44.3 44.3zm66.1-2-14 35.6-14-35.6c3-2.8 10.2-10.1 14-19.6 3.8 9.5 11.1 16.8 14 19.6zm82.4-42.3c0 24.4-19.8 44.2-44.2 44.2S152 165.1 152 140.7c0-3.6.4-7.2 1.3-10.7 4.5-6.7 10.9-12 18.5-15h.1l1.5-.6c.1-.1.3-.1.4-.1.4-.1.8-.3 1.2-.4.3-.1.6-.2.9-.2.3-.1.6-.2.9-.2.6-.2 1.2-.3 1.8-.4l37.4-7.7h.2l.5-.1c1.4-.3 2.8-.6 4.4-1.1 12 8.2 19.3 21.8 19.3 36.5z" class="st2"/><path d="M143.7 57.2c-.8 0-1.6-.1-2.5-.3-2.4-.7-4.5-2.2-5.7-4.4-1.3-2.2-1.6-4.7-.9-7.2.7-2.4 2.2-4.5 4.4-5.7 2.2-1.3 4.7-1.6 7.2-.9 2.4.7 4.5 2.2 5.7 4.4 1.3 2.2 1.6 4.7.9 7.2s-2.2 4.5-4.4 5.7c-1.5.8-3.1 1.2-4.7 1.2zm0-14c-.8 0-1.6.2-2.3.6-1.1.6-1.8 1.6-2.1 2.8-.3 1.2-.2 2.4.5 3.5 1.3 2.2 4.1 2.9 6.2 1.7 1.1-.6 1.8-1.6 2.1-2.8.3-1.2.2-2.4-.5-3.5-.6-1.1-1.6-1.8-2.8-2.1-.3-.1-.7-.2-1.1-.2z" class="st2"/></g></g></switch></svg>